{"glyphs":{"0":{"ha":801,"x_min":-11,"x_max":797,"o":"m 56 438 q 59 474 56 456 q 74 507 63 492 l 74 485 q 73 474 74 482 q 71 454 72 465 q 68 426 69 442 q 67 413 67 410 q 56 424 56 415 l 56 438 m 449 710 q 450 710 450 710 q 451 711 450 711 q 472 695 461 711 q 492 658 483 679 q 507 615 501 636 q 513 586 513 594 l 513 571 q 510 554 513 557 q 489 594 497 574 q 474 636 481 614 q 460 672 467 654 q 443 710 454 690 l 449 710 m 310 26 q 345 31 329 26 q 379 38 361 35 q 427 46 403 42 q 474 50 451 50 l 478 50 l 478 47 q 413 19 449 31 q 342 7 378 7 l 336 7 q 319 8 326 7 q 300 17 313 10 l 310 26 m 336 364 q 342 290 336 324 q 365 229 347 257 q 438 328 415 276 q 460 451 460 381 q 458 481 460 460 q 452 526 456 501 q 442 578 449 551 q 428 626 436 606 q 385 588 403 622 q 357 510 368 553 q 341 425 346 467 q 336 364 336 383 m 278 406 q 284 474 278 426 q 305 568 290 521 q 341 651 319 615 q 394 688 363 688 q 433 656 417 688 q 460 582 450 624 q 476 502 471 540 q 481 451 481 464 q 454 310 481 368 q 365 197 428 251 q 297 290 315 239 q 278 406 278 342 m 167 92 q 217 51 193 71 q 242 14 240 31 l 253 14 q 276 12 263 14 q 296 3 289 10 l 307 3 q 317 2 313 3 q 328 1 322 1 l 358 1 q 522 42 451 1 q 641 149 593 83 q 714 299 689 215 q 739 467 739 382 q 719 633 739 551 q 655 780 699 715 q 543 883 611 844 q 378 922 475 922 l 332 922 q 369 907 351 913 q 399 896 385 901 q 426 882 414 890 l 410 882 q 369 885 389 882 q 329 894 349 889 q 290 903 310 899 q 250 907 269 907 q 239 881 249 889 q 215 865 229 872 q 194 850 208 861 l 114 769 q 35 623 61 707 q 10 460 10 539 q 33 290 10 372 q 114 138 56 208 q 135 116 121 128 q 167 92 150 104 m 143 81 q 97 124 111 106 q 12 283 35 199 q -11 460 -11 367 q 15 631 -11 543 q 97 783 42 718 l 181 867 q 193 876 189 874 q 200 881 197 878 l 203 885 l 203 881 l 204 882 q 222 896 215 888 q 229 928 229 904 q 275 926 257 928 q 308 921 293 924 l 314 943 l 378 943 q 548 905 478 943 q 664 804 618 867 l 668 800 q 726 724 701 767 q 767 633 751 682 q 790 532 782 585 q 797 425 797 479 q 772 251 797 338 q 696 97 746 165 q 572 -15 646 28 q 400 -57 497 -57 l 358 -57 q 353 -56 356 -57 q 349 -56 351 -56 l 329 -56 l 326 -53 q 310 -46 319 -47 q 294 -44 301 -44 l 267 -44 l 229 -7 l 221 -7 q 207 26 221 8 l 197 36 q 172 55 183 46 q 151 74 160 64 l 143 81 z "},"1":{"ha":447,"x_min":-8,"x_max":439,"o":"m 129 935 l 33 935 l 33 915 l 6 888 l 1 874 q 7 850 1 858 q 22 835 13 842 q 14 817 15 829 q 10 781 13 804 q 8 771 8 776 q 8 763 8 767 q 8 758 8 760 q 7 754 7 757 l 7 746 q 3 728 4 735 q 0 708 0 717 l 0 710 q -8 689 -8 701 q 10 661 -8 665 l 43 629 q 61 624 49 624 l 104 624 l 104 621 q 105 619 104 619 q 106 617 106 618 l 165 82 l 185 22 q 187 22 186 22 q 189 21 188 21 l 192 21 l 225 -11 q 238 -35 232 -25 q 258 -49 244 -46 l 289 -79 q 310 -87 297 -87 q 323 -81 317 -87 q 335 -67 329 -75 l 335 -68 l 335 -67 l 375 -107 l 407 -81 q 407 -74 407 -79 q 408 -61 407 -68 q 409 -49 408 -57 q 411 -32 410 -40 l 411 1 l 414 1 l 414 231 q 417 247 414 232 q 422 278 419 261 q 428 311 425 296 q 431 333 431 326 l 431 390 q 431 431 431 410 q 432 479 432 453 l 432 603 q 433 636 432 619 q 433 668 433 653 l 433 728 q 435 828 433 785 q 439 886 436 871 l 400 924 l 400 926 q 401 929 400 928 q 401 932 401 931 l 129 935 m 254 -19 l 253 -19 q 243 0 249 -14 q 226 28 236 15 q 200 43 215 42 l 186 90 l 125 618 q 109 670 121 658 q 64 682 97 682 l 19 682 q 13 689 13 682 q 15 694 13 692 q 19 701 17 697 q 21 704 21 706 q 24 722 21 708 q 26 738 25 729 q 28 744 28 747 q 29 763 29 756 q 31 778 29 771 q 36 815 33 810 q 51 819 39 819 l 61 819 q 79 820 68 819 q 106 826 90 821 l 106 829 l 56 829 q 48 840 53 835 q 39 850 43 844 q 27 862 32 857 q 22 872 22 867 l 24 876 l 24 875 l 46 897 q 49 904 49 903 l 47 907 q 43 914 44 913 l 129 914 l 378 911 q 376 863 376 901 q 375 769 375 825 q 374 708 375 740 q 374 644 374 676 l 374 521 q 373 444 374 478 q 372 392 372 411 l 372 375 q 369 356 372 371 q 364 322 367 340 q 358 290 361 304 q 356 271 356 275 l 356 42 q 355 41 356 47 q 353 24 354 35 q 351 2 353 14 q 350 -15 350 -10 q 349 -29 349 -22 l 342 -35 l 328 33 q 324 38 328 38 q 318 33 318 38 l 318 35 q 311 25 314 31 l 296 90 l 293 90 q 292 72 293 85 q 291 45 292 60 q 289 18 290 31 q 286 1 288 6 q 281 -16 286 -3 q 268 -29 276 -29 q 256 -22 263 -29 l 257 -22 l 254 -19 m 163 625 q 162 619 163 622 q 161 611 161 615 l 161 546 q 181 493 161 517 l 181 518 q 177 573 181 546 q 165 625 174 600 l 163 625 m 108 671 q 137 665 131 665 q 156 664 143 664 l 236 664 l 236 667 l 124 682 l 115 682 q 111 683 113 682 q 108 683 110 683 l 108 671 z "},"2":{"ha":578,"x_min":-8,"x_max":568,"o":"m 332 278 q 359 362 332 329 q 421 425 386 394 l 422 425 q 459 460 440 442 q 493 499 478 478 q 517 549 508 521 q 526 615 526 578 q 506 712 526 668 q 453 789 486 756 l 444 797 q 324 898 400 861 q 165 935 249 935 l 107 935 q 65 932 83 935 q 36 920 47 929 q 19 892 25 911 q 14 842 14 874 q 14 831 14 833 q 15 822 14 829 q 25 808 17 814 q 14 783 14 797 l 14 781 q 15 763 14 767 q 25 760 17 760 l 36 749 q 21 728 28 742 q 10 693 14 715 l 19 693 l 28 683 l 22 678 q 13 671 17 675 l 46 638 q 51 638 51 638 l 88 601 q 179 626 150 626 q 183 593 183 611 q 178 586 183 590 q 165 575 172 582 q 161 572 163 572 q 157 568 160 571 q 154 566 156 567 q 151 564 153 565 l 143 554 q 81 478 107 522 q 33 374 54 435 l 33 375 q 17 329 25 361 q 4 258 10 297 q -5 178 -1 219 q -8 104 -8 138 q -5 50 -8 72 q 8 21 -1 28 q 13 17 11 18 q 18 14 15 17 q 25 10 18 13 l 24 10 l 53 -18 q 126 -49 85 -42 q 233 -56 167 -56 l 325 -56 q 354 -55 340 -56 q 382 -53 368 -54 q 394 -52 389 -53 q 406 -51 400 -51 q 418 -51 413 -51 q 431 -50 424 -50 q 453 -48 442 -49 q 478 -47 464 -47 q 493 -47 485 -47 q 510 -49 501 -47 l 518 -47 l 539 -36 q 556 -26 550 -36 l 568 -21 l 557 -10 l 557 -11 q 553 -3 557 -7 l 542 6 q 544 19 544 14 l 522 42 q 532 47 528 44 q 539 51 536 49 q 531 88 535 83 l 525 92 q 557 142 538 101 l 538 161 l 557 188 l 557 228 l 519 264 l 519 272 q 473 268 488 272 q 449 258 458 264 l 449 257 l 447 257 l 443 257 q 407 246 425 246 q 347 242 371 244 q 339 241 343 242 q 332 240 335 240 l 332 278 m 469 10 q 453 11 461 11 q 436 11 444 11 q 399 10 417 11 q 363 7 382 8 q 324 4 343 6 q 283 3 304 3 l 192 3 q 91 9 131 3 q 22 38 51 15 q 15 60 17 42 q 13 104 13 78 q 16 182 13 139 q 25 263 19 225 q 38 330 31 301 q 51 364 44 358 q 156 538 92 483 q 163 544 158 540 q 171 551 167 547 q 193 572 182 561 q 204 593 204 582 q 190 661 204 638 q 139 685 175 685 q 50 663 104 685 l 44 669 q 56 679 49 672 q 69 693 63 686 q 75 701 75 697 q 69 714 75 708 l 36 714 q 53 738 40 731 q 81 747 67 744 q 99 755 92 751 q 107 768 107 758 l 107 772 q 97 771 103 771 q 89 771 93 771 q 65 774 76 771 q 42 779 53 776 q 38 780 39 779 q 35 781 38 781 l 35 783 q 44 797 35 790 q 60 806 53 803 q 65 808 63 807 q 68 810 68 810 l 68 821 q 58 819 65 819 q 36 828 40 819 q 35 836 35 835 q 35 842 35 838 q 53 902 35 890 q 107 914 71 914 l 165 914 q 276 895 222 914 q 374 842 331 876 q 442 761 417 808 q 468 657 468 714 q 460 598 468 624 q 437 551 451 572 q 404 514 422 531 q 368 481 386 497 q 333 449 350 465 q 303 415 317 433 q 282 372 290 396 q 274 319 274 349 l 274 238 q 276 218 274 222 q 289 214 279 214 q 299 215 293 214 q 313 217 304 215 q 351 222 328 219 q 407 225 374 224 q 434 229 424 225 q 454 239 444 233 q 474 248 464 244 q 499 251 483 251 l 499 236 l 443 160 l 453 160 l 485 167 l 490 167 q 469 142 483 150 q 442 128 454 135 q 418 108 418 118 q 432 90 418 100 q 432 81 432 83 q 429 72 432 79 l 429 74 l 414 58 q 422 47 414 49 l 428 47 q 456 55 439 47 q 483 69 472 63 q 486 58 486 58 q 475 43 485 47 q 454 36 465 39 q 443 33 449 36 q 461 22 453 26 q 481 15 469 18 l 469 10 m 74 201 q 65 192 67 197 q 64 182 64 186 l 64 181 q 66 159 64 172 q 74 133 68 146 q 87 112 79 121 q 106 103 94 103 l 117 103 q 92 150 106 124 q 75 200 78 176 l 74 201 m 207 638 q 218 616 210 633 q 229 594 226 599 q 231 590 229 593 q 233 583 232 586 q 238 565 235 574 q 249 554 242 557 l 249 578 q 247 595 249 585 q 240 616 244 606 q 228 633 236 626 q 211 640 221 640 l 207 638 m 121 765 l 121 751 q 135 753 128 751 q 146 765 143 756 l 121 765 m 494 25 l 494 26 q 495 27 494 26 q 497 28 496 28 q 500 25 500 28 q 497 22 500 22 q 494 25 494 22 z "},"3":{"ha":633,"x_min":-3,"x_max":619,"o":"m 233 243 l 232 244 l 201 272 l 201 271 q 192 288 199 285 q 178 292 186 292 q 172 291 175 292 q 161 288 168 290 q 153 287 157 288 q 147 286 150 286 l 138 286 l 138 292 q 94 282 113 285 q 60 279 76 279 q 33 278 44 279 q 13 276 22 278 q 10 276 11 276 q 6 275 8 275 l -3 275 q -1 219 -3 240 q 3 179 0 199 l 3 168 q 3 163 3 165 q 4 158 4 161 l 4 153 q 8 119 7 135 q 10 92 10 103 l 10 68 q 28 34 10 53 q 60 4 47 15 l 65 0 l 81 -14 l 97 -31 l 136 -51 l 399 -53 q 486 -31 446 -53 q 556 30 526 -8 q 603 120 586 68 q 619 233 619 172 l 619 243 q 597 361 617 306 q 539 456 578 417 l 518 474 l 510 485 q 551 557 535 518 q 567 640 567 596 q 544 744 567 693 q 486 831 522 794 l 476 839 q 407 908 449 881 q 317 935 365 935 l 38 935 l 38 892 q 29 883 31 889 q 28 867 28 878 q 28 854 28 861 q 31 839 29 847 l 31 825 q 31 821 31 822 q 32 817 32 819 l 33 797 q 19 780 22 790 q 15 760 15 769 q 18 744 15 750 q 63 694 31 710 l 61 694 l 83 674 q 124 650 100 657 q 175 643 147 643 q 238 650 207 643 q 292 667 269 657 l 292 660 q 288 635 292 647 q 267 633 276 635 q 243 626 257 631 q 239 625 242 625 q 235 613 236 618 q 233 604 235 608 q 226 588 229 592 l 168 617 l 110 564 q 98 519 101 536 q 94 490 94 501 q 111 457 94 464 l 104 388 q 113 385 108 385 l 150 347 q 211 343 172 343 l 256 343 q 268 344 263 343 q 279 344 274 344 l 300 344 q 311 345 306 344 q 321 346 317 346 l 333 346 q 338 320 338 332 q 339 299 339 308 q 324 251 339 272 q 288 231 308 231 l 290 233 q 251 226 260 226 l 253 226 l 251 228 l 240 228 q 235 243 239 239 l 233 243 m 236 561 q 248 583 246 578 q 256 607 250 589 q 289 614 276 614 q 301 613 297 614 q 313 660 313 631 q 308 703 313 685 q 281 725 304 721 l 281 726 q 274 734 281 729 q 268 738 268 739 q 256 727 268 733 q 226 715 244 721 q 183 706 207 710 q 135 701 158 701 q 76 712 103 701 q 38 750 49 722 q 36 760 36 753 q 40 775 36 768 q 50 782 43 782 q 56 792 56 782 q 53 807 54 792 q 51 832 53 822 q 49 851 50 843 q 49 867 49 860 q 50 874 49 874 l 53 874 q 58 875 57 874 l 58 914 l 317 914 q 390 894 356 914 q 451 840 425 874 q 493 765 478 807 q 508 682 508 724 q 490 593 508 636 q 440 518 471 550 q 528 422 499 486 q 561 283 558 358 l 561 274 q 545 169 561 218 q 501 84 529 121 q 437 26 474 47 q 357 6 400 6 l 99 7 l 67 25 l 68 25 q 44 46 58 32 q 31 68 31 60 l 31 92 q 29 122 31 104 q 25 160 28 140 q 20 208 22 183 q 18 256 18 233 q 35 258 25 257 q 60 258 44 258 q 117 264 99 258 q 122 263 118 263 q 133 264 129 263 q 147 266 140 265 q 161 267 154 267 q 171 269 165 267 q 178 271 174 271 q 182 265 181 271 q 202 216 189 225 q 226 207 215 207 l 242 207 q 250 206 243 206 q 275 208 261 206 q 283 210 279 210 l 288 210 q 340 238 319 210 q 360 299 360 267 q 354 353 360 321 q 321 404 349 385 l 303 404 q 283 403 294 404 q 258 403 272 403 q 236 402 247 403 q 214 401 225 401 l 169 401 q 144 402 154 401 q 126 404 135 403 l 133 481 q 121 478 125 478 q 115 490 115 478 q 129 554 115 507 l 129 553 l 172 590 l 236 561 m 381 847 q 388 839 381 842 l 386 839 q 399 828 388 836 q 425 809 411 819 q 450 791 439 799 q 461 783 461 783 q 453 806 461 793 q 435 830 446 818 q 413 849 424 842 q 393 857 401 857 l 392 857 q 385 856 388 857 q 381 847 382 854 m 365 58 q 371 56 368 56 q 386 61 378 56 q 396 67 394 67 q 414 76 404 67 q 431 98 424 85 q 444 126 439 111 q 451 153 450 140 l 449 153 q 442 135 447 146 q 430 112 438 124 q 414 92 422 100 q 397 83 406 83 q 389 86 394 83 q 381 82 386 89 q 371 68 375 75 q 365 61 368 64 l 365 58 m 326 619 q 316 597 319 604 q 310 583 313 589 q 305 574 307 578 q 299 565 303 571 q 292 550 294 561 l 294 550 q 310 558 303 550 q 324 576 318 565 q 333 599 329 588 q 336 619 336 611 l 326 619 m 317 172 q 333 176 321 172 q 336 178 336 178 q 340 179 338 178 l 340 182 l 208 182 l 208 179 q 224 176 213 178 q 247 174 235 175 q 268 173 258 174 q 282 172 278 172 l 317 172 m 149 894 q 136 894 146 894 q 116 892 126 893 q 96 891 106 892 q 83 889 86 890 l 83 886 l 199 886 l 199 889 q 178 894 185 893 q 161 894 171 894 l 149 894 z "},"4":{"ha":778,"x_min":-14,"x_max":768,"o":"m 356 743 q 360 789 357 764 q 361 808 361 799 q 363 829 361 818 l 363 835 q 351 868 363 857 l 322 897 l 322 896 q 303 920 317 914 q 269 926 289 926 l 249 926 q 242 927 246 926 q 231 931 238 928 l 69 931 l 69 908 q 15 924 51 924 l 4 924 q -14 888 -14 906 l -14 878 q 14 627 -1 729 q 44 459 29 525 q 69 360 58 393 q 85 317 81 326 l 90 317 l 99 308 l 97 303 l 104 303 l 131 278 l 144 265 l 324 275 l 458 275 q 472 178 469 228 q 476 82 475 128 q 476 47 476 67 q 478 14 476 29 q 488 -6 481 1 q 506 -17 494 -12 l 504 -17 l 533 -46 q 561 -58 544 -57 q 593 -60 578 -60 q 592 -51 593 -57 q 592 -39 592 -44 l 592 -25 l 600 -33 q 633 -50 611 -42 q 669 -61 654 -58 l 682 -74 l 697 -61 q 699 -35 699 -54 q 701 7 700 -17 q 703 28 703 18 q 704 50 703 39 q 708 111 707 82 q 713 153 710 140 q 713 161 713 154 q 715 175 714 168 q 718 188 717 182 q 721 196 719 194 l 768 813 l 768 828 q 767 843 768 835 q 763 856 767 851 l 729 888 l 729 886 q 722 901 728 896 q 699 907 715 907 l 694 907 q 682 903 688 907 q 669 917 675 910 q 660 926 664 924 l 658 928 q 649 931 651 931 q 640 932 647 932 q 627 929 635 932 q 613 924 619 926 l 611 924 q 594 928 603 924 q 589 929 590 928 q 572 932 581 932 q 551 928 560 932 q 538 919 543 924 l 536 919 q 532 916 533 917 q 531 915 531 915 l 522 915 l 451 924 l 436 924 q 431 924 432 924 q 422 926 429 924 l 424 578 l 346 590 q 349 666 346 629 q 356 743 351 703 m 631 -17 q 624 -12 631 -17 q 607 -2 617 -8 q 587 11 597 4 q 571 22 576 18 q 556 46 558 35 q 554 54 554 49 q 556 67 554 63 q 556 76 556 72 q 553 89 556 82 l 544 97 l 536 88 l 536 83 q 533 68 533 78 l 533 61 q 534 49 533 54 q 535 39 535 43 l 535 17 q 535 8 535 13 q 536 -1 536 4 q 513 2 525 -1 q 499 21 501 6 q 497 51 497 36 q 497 82 497 67 q 491 206 496 143 q 467 324 486 269 q 458 333 465 333 l 282 333 l 104 324 l 104 326 q 89 369 100 336 q 64 466 78 401 q 35 632 50 531 q 7 879 19 733 l 7 888 q 14 903 7 896 l 15 903 q 46 897 35 903 q 63 879 57 890 q 71 853 69 868 q 74 824 72 839 q 74 815 74 819 q 75 807 75 811 l 90 807 l 90 910 l 226 910 q 238 906 233 907 q 249 906 243 906 l 269 906 q 294 899 285 906 q 304 876 304 893 l 304 872 q 301 827 301 849 q 297 785 300 806 q 290 703 293 743 q 288 618 288 663 q 288 608 288 614 q 289 596 289 601 l 289 585 l 297 576 l 444 554 l 443 903 l 446 903 l 450 903 l 522 894 l 531 894 q 542 897 538 894 q 551 903 547 900 q 571 911 560 910 q 577 909 568 910 q 590 907 586 908 q 611 903 599 903 q 626 907 619 903 l 625 907 q 632 910 628 908 q 640 911 636 911 q 647 910 644 911 l 646 910 q 663 896 650 907 q 679 876 676 885 q 694 886 689 886 l 699 886 q 708 881 707 886 q 710 869 710 876 l 710 856 l 663 244 l 663 246 q 660 238 661 244 q 657 222 658 231 q 655 206 656 214 q 654 197 654 199 q 650 156 651 185 q 646 93 649 126 q 642 30 643 60 q 639 -11 640 0 l 639 -10 l 631 -17 m 247 726 q 248 744 247 732 q 250 768 249 756 q 253 792 251 781 q 256 807 254 803 q 250 819 256 811 q 244 829 244 828 q 247 842 244 833 q 249 847 249 844 q 246 850 249 850 q 236 849 240 850 q 229 839 232 847 l 229 831 q 228 824 229 826 q 228 818 228 821 l 228 799 q 229 760 228 778 q 239 718 231 743 l 247 726 m 610 47 q 610 62 610 51 q 613 83 611 72 q 615 104 614 94 q 618 118 617 114 l 618 133 q 619 146 618 140 q 619 156 619 151 q 617 164 619 164 q 607 163 611 164 q 600 153 603 161 l 600 144 q 599 138 600 140 q 599 132 599 135 l 599 113 q 597 88 599 94 q 596 75 596 81 q 596 65 596 71 q 597 53 596 60 q 601 39 597 47 l 610 47 m 233 558 q 246 547 236 547 l 331 536 l 338 536 q 360 537 350 536 q 388 544 369 538 l 388 547 l 233 558 m 276 381 q 294 372 286 376 q 301 368 301 368 l 304 369 l 283 389 l 283 388 q 274 397 282 396 l 242 457 l 239 457 l 256 393 q 260 388 254 392 q 276 381 267 385 z "},"5":{"ha":563,"x_min":-22,"x_max":558,"o":"m 39 64 l 39 65 l 40 65 l 39 64 m 35 72 q 34 70 35 71 q 33 69 33 69 q 32 69 33 69 q 32 71 32 69 l 35 72 m 33 65 l 33 69 q 39 67 36 67 l 39 65 l 33 65 m 24 26 q 23 27 24 26 q 21 28 22 28 q 18 25 18 28 q 21 22 18 22 q 24 25 24 22 l 24 26 m 51 117 q 43 122 46 119 l 65 100 l 65 104 l 51 117 m 399 765 l 399 751 q 383 753 390 751 q 372 765 376 756 l 399 765 m 444 201 q 453 192 451 197 q 454 182 454 186 l 454 181 q 452 159 454 172 q 444 133 450 146 q 431 112 439 121 q 414 103 424 103 l 403 103 q 427 150 414 124 q 443 200 440 176 l 444 201 m 101 790 q 101 783 101 788 q 100 776 101 781 q 98 760 99 769 q 97 744 97 751 l 97 724 q 98 719 97 721 q 99 714 99 717 q 90 696 99 704 q 88 707 90 701 q 82 719 82 718 l 79 728 q 74 745 76 735 q 72 767 72 756 q 83 804 72 789 l 101 790 m 358 619 q 401 574 381 594 q 429 549 422 553 q 436 538 433 542 q 444 526 439 533 q 448 522 446 524 q 451 517 450 519 l 451 518 l 467 504 q 514 432 496 475 q 542 344 532 389 q 555 260 551 299 q 558 203 558 221 q 535 98 558 146 q 472 16 511 50 q 381 -37 432 -18 q 276 -56 331 -56 q 248 -55 261 -56 q 221 -53 235 -54 q 209 -52 214 -53 q 197 -51 204 -51 q 185 -51 190 -51 q 172 -50 179 -50 q 150 -48 161 -49 q 125 -47 139 -47 q 106 -47 115 -47 q 88 -49 97 -47 l 63 -36 q 47 -32 51 -36 l 40 -25 l 42 -25 l 33 -21 l 10 1 l 11 1 q 0 11 1 4 l -22 22 l -3 26 q 1 38 -1 32 q 13 46 4 43 q 11 65 11 51 l 33 65 q 32 58 32 63 q 43 43 33 47 q 64 36 53 39 q 75 33 69 36 q 36 15 57 21 l 49 10 q 67 11 58 11 q 83 11 75 11 q 121 10 103 11 q 157 7 139 8 q 195 4 176 6 q 235 3 214 3 q 333 21 285 3 q 418 71 381 39 q 478 147 456 103 q 500 244 500 192 q 497 300 500 263 q 485 380 494 338 q 458 464 475 422 q 415 532 442 506 q 389 558 410 536 q 345 604 368 579 q 304 652 322 629 q 286 682 286 675 l 467 663 l 474 669 q 463 679 469 672 q 449 693 456 686 q 443 701 443 697 q 449 714 443 708 l 482 714 q 465 737 478 731 q 439 747 453 743 q 421 754 429 750 q 413 768 413 758 l 413 772 q 431 771 418 771 q 453 774 442 771 q 476 779 465 776 q 482 781 479 779 l 482 782 l 483 783 q 474 797 483 790 q 458 806 465 803 q 453 808 456 807 q 450 810 450 810 l 450 821 q 460 819 453 819 l 460 821 l 463 821 l 463 819 q 474 822 468 819 q 482 828 479 824 q 483 835 482 829 q 485 849 483 842 q 487 869 486 858 q 489 882 488 881 q 453 908 482 904 q 369 913 424 913 l 49 913 q 46 892 46 913 q 46 839 46 871 l 46 675 q 70 625 46 656 q 129 554 94 594 q 182 490 154 524 q 233 422 210 457 q 270 350 256 386 q 285 279 285 314 q 269 240 285 254 q 231 218 254 225 q 180 209 207 211 q 131 207 153 207 q 102 210 115 207 q 75 219 89 214 q 47 229 61 225 q 18 233 33 233 l 18 218 l 76 160 l 65 160 l 33 167 l 26 167 q 58 138 38 147 q 96 119 78 128 q 114 111 107 114 q 122 106 121 108 q 124 101 124 104 q 119 90 124 96 l 86 90 q 87 81 86 83 q 90 72 88 79 l 90 74 l 106 58 q 97 47 106 49 l 92 47 q 65 53 81 47 q 39 67 50 60 q 38 76 39 72 l 38 75 l 21 93 q 32 131 25 126 q 13 154 22 140 q -8 188 3 168 l 18 188 l -3 208 l -3 253 q 44 249 25 253 q 78 240 63 246 q 80 240 79 240 q 82 239 81 239 q 131 228 108 228 q 174 229 151 228 q 217 235 197 231 q 251 251 238 240 q 264 279 264 261 q 249 343 264 310 q 213 410 235 376 q 165 476 192 443 q 113 539 138 510 q 51 614 76 581 q 25 675 25 647 l 25 839 q 28 907 25 881 q 49 933 31 933 l 369 933 q 461 928 429 933 q 507 892 493 922 l 507 893 l 535 867 q 547 844 540 861 l 544 844 q 544 822 544 835 q 543 806 543 808 q 541 792 542 799 q 540 783 540 786 q 525 768 538 775 l 531 763 l 532 763 q 542 742 542 753 q 540 733 542 735 l 540 724 l 533 724 q 528 723 531 724 q 522 722 525 722 q 515 719 521 722 q 513 719 517 719 q 507 718 510 719 l 517 708 l 517 710 l 522 704 q 535 686 529 697 q 543 656 540 675 l 515 656 l 542 629 l 517 604 l 358 619 z "},"6":{"ha":676,"x_min":-11,"x_max":661,"o":"m 461 624 q 489 622 472 624 q 526 617 506 619 q 526 631 526 629 q 528 636 526 633 q 522 658 528 650 q 538 663 528 658 q 574 683 549 668 l 546 708 l 553 708 l 593 708 q 564 753 569 740 q 557 774 558 767 l 557 775 q 556 778 557 776 q 556 781 556 779 q 551 793 553 789 q 571 811 557 797 l 571 822 q 564 837 571 828 q 547 856 557 846 l 532 871 l 532 869 q 519 887 528 876 q 499 907 510 897 q 480 924 489 917 q 467 931 471 931 l 465 931 q 453 928 457 931 q 446 922 450 926 l 438 922 q 401 926 419 922 q 382 931 392 929 q 358 932 372 932 q 194 890 264 932 q 79 781 125 849 q 11 625 33 713 q -11 446 -11 538 q 0 333 -11 393 q 33 217 11 274 q 89 110 56 160 q 167 31 122 61 l 172 25 q 249 -28 207 -8 q 343 -49 290 -49 q 419 -44 376 -49 q 492 -19 463 -40 q 510 -24 500 -24 q 531 -13 526 -21 q 538 6 535 -6 q 538 8 538 7 q 539 11 539 10 q 540 22 539 18 l 543 22 q 569 34 557 22 q 592 60 581 46 q 597 68 596 67 q 601 74 599 69 l 613 71 l 639 126 q 656 183 650 153 q 661 244 661 213 q 644 363 661 303 q 600 468 628 424 q 567 511 586 492 l 558 519 q 487 588 528 564 q 393 613 446 613 l 390 613 q 461 624 421 624 m 494 83 q 482 57 485 76 q 477 44 479 50 q 467 35 475 38 q 451 44 457 35 q 420 25 439 32 q 381 15 401 18 q 339 10 360 11 q 301 10 318 10 q 173 53 228 10 q 82 160 118 96 q 28 302 46 225 q 10 446 10 379 q 31 617 10 533 q 96 766 53 700 q 205 872 139 832 q 358 911 271 911 q 378 910 369 911 q 397 906 388 908 q 438 901 415 901 l 451 901 q 454 903 450 901 q 461 907 458 906 q 465 910 464 910 l 467 910 q 477 904 469 910 q 492 891 485 899 q 506 876 500 883 q 513 864 513 868 l 513 861 q 500 848 504 851 q 494 843 496 844 l 494 844 q 490 846 493 846 q 481 842 488 846 q 460 829 474 839 q 472 830 465 829 q 481 831 478 831 q 497 826 494 831 q 500 815 499 822 q 503 795 501 807 q 517 765 506 783 l 514 765 l 476 772 l 472 772 q 476 747 472 753 q 493 733 479 742 q 503 725 499 728 q 488 717 492 718 q 479 717 483 717 l 474 717 q 465 717 471 717 q 451 718 460 718 q 455 699 451 703 q 464 694 458 696 q 469 691 467 693 q 471 681 471 689 q 469 678 469 679 q 469 678 469 678 q 419 682 442 682 q 299 646 344 682 q 250 550 253 610 q 326 582 292 572 q 393 592 361 592 q 479 568 442 592 q 544 500 517 544 q 587 399 571 457 q 603 285 603 342 q 582 174 603 224 l 561 129 q 560 131 561 131 q 558 132 558 132 q 536 113 550 132 q 519 91 528 101 q 503 81 510 81 q 496 83 501 81 l 494 83 m 375 215 q 392 264 383 235 q 400 325 400 293 q 384 388 400 358 q 324 431 368 418 q 292 426 304 426 q 258 422 271 426 q 244 400 246 418 q 242 367 243 382 q 242 338 242 351 q 250 267 242 292 q 275 230 258 242 q 316 216 292 218 q 374 214 340 214 l 375 215 m 300 296 q 301 319 300 307 q 303 346 301 332 l 303 357 q 313 366 304 364 q 333 368 321 368 q 347 368 340 368 q 364 371 356 368 q 366 370 365 371 q 368 369 367 369 l 369 368 l 369 369 q 379 325 379 350 q 373 278 379 301 q 360 235 367 254 q 329 236 343 235 q 304 242 315 238 q 301 265 301 251 q 300 296 300 278 m 207 289 q 215 233 207 264 q 246 182 222 201 l 246 188 q 247 190 246 189 q 247 194 247 192 q 234 255 247 222 q 207 310 221 288 l 207 289 m 211 603 q 199 581 201 589 q 197 557 197 572 l 197 544 l 200 544 q 211 568 208 561 q 217 582 214 576 l 249 661 l 246 663 l 211 603 m 99 725 q 87 703 89 711 q 85 681 85 694 l 85 663 q 87 666 86 664 q 89 669 88 668 q 99 687 96 681 q 104 704 101 693 l 121 749 l 118 750 l 99 725 m 239 67 q 267 47 250 50 q 299 44 285 44 l 303 44 l 303 57 q 275 61 288 57 q 263 65 268 64 q 250 67 257 67 l 239 67 z "},"7":{"ha":586,"x_min":-12,"x_max":581,"o":"m 543 904 l 511 931 l 472 928 q 449 936 457 936 l 433 936 q 429 935 431 936 q 425 935 428 935 l 43 935 q 26 929 33 935 q 15 915 19 924 q 9 898 11 907 q 7 883 7 889 q 8 873 7 876 q 15 857 8 869 l 18 857 l 28 771 l 18 767 q -3 751 7 760 q -12 714 -12 742 q -11 713 -11 713 q -10 713 -11 714 q 4 703 -1 708 l 33 675 q 54 663 44 668 q 72 653 64 657 l 71 653 q 100 640 86 640 l 243 631 l 193 367 l 193 346 q 183 324 189 338 l 165 260 q 167 246 167 249 q 169 238 167 243 q 167 233 168 236 q 161 222 165 229 q 160 219 160 221 q 158 218 160 219 l 160 218 l 151 215 l 151 208 q 144 195 149 201 q 132 182 139 189 q 126 174 129 179 q 119 165 122 168 q 139 171 131 168 l 142 169 q 139 156 142 164 l 139 151 q 138 139 138 142 q 135 132 138 138 q 135 119 135 125 q 142 106 136 113 l 136 106 q 133 85 133 93 q 132 74 132 78 q 132 61 132 68 q 133 51 132 56 l 133 47 l 133 44 l 107 21 q 110 13 110 13 l 107 13 l 117 -21 l 122 -19 l 160 -58 l 378 -46 q 418 12 403 -17 q 442 67 433 40 q 453 117 450 93 q 460 160 457 140 q 460 164 460 163 q 461 168 461 165 q 464 180 463 175 q 465 192 465 185 l 465 199 q 475 242 465 206 q 496 324 485 278 q 501 347 499 335 q 507 369 504 358 q 529 453 519 415 q 539 501 539 490 q 542 524 539 507 q 553 569 546 542 q 554 574 554 572 q 556 579 554 576 q 564 617 560 596 q 567 633 567 625 q 571 650 568 642 q 575 692 574 668 q 576 740 576 715 q 576 770 576 757 q 574 790 575 783 l 572 793 q 573 806 572 799 q 576 832 574 813 q 578 845 578 838 q 581 861 579 853 l 542 899 l 542 900 q 542 901 542 901 q 543 903 543 901 l 543 904 m 514 835 q 518 781 518 811 q 517 735 518 757 q 513 696 515 714 q 504 658 508 676 q 497 624 500 639 q 485 571 490 592 q 481 543 481 550 q 471 499 481 536 q 449 415 461 461 q 435 358 442 386 q 422 305 428 329 q 412 263 415 281 q 408 240 408 246 l 408 238 q 403 203 406 226 q 397 163 400 185 q 385 117 393 142 q 363 66 376 93 q 325 13 349 39 l 128 0 q 133 7 132 4 l 135 11 q 133 14 135 13 l 154 33 l 154 38 q 153 56 154 50 q 151 64 151 60 q 151 74 151 69 q 151 79 151 76 q 151 86 150 82 l 197 90 l 197 93 q 162 114 169 106 q 154 131 154 122 q 156 135 156 133 q 157 144 156 138 q 161 171 161 158 q 169 193 161 178 l 225 193 q 220 217 222 211 q 215 222 218 222 q 211 221 213 222 q 207 219 210 219 l 200 219 q 191 217 194 219 q 185 213 188 215 l 182 210 q 190 239 190 222 q 190 247 190 243 q 188 257 189 251 l 204 318 q 209 332 207 329 q 213 338 211 335 q 214 346 214 339 l 214 363 l 275 685 l 60 699 q 48 704 57 699 q 35 715 39 710 q 31 714 35 713 q 8 728 28 715 q 19 741 10 735 q 39 753 29 747 l 38 753 q 47 758 44 756 q 50 761 49 760 l 39 854 l 179 854 q 156 865 175 860 q 113 872 136 869 q 69 876 90 875 q 40 878 49 878 l 28 878 l 28 883 q 32 902 28 890 q 43 914 36 914 l 425 914 q 436 915 432 914 q 443 915 440 915 l 449 915 q 464 910 453 915 l 471 907 l 501 910 l 521 893 q 515 853 515 861 q 514 839 514 846 l 513 839 l 514 835 m 369 826 q 385 832 378 829 q 396 838 393 835 l 397 838 l 397 840 q 386 842 393 842 q 356 839 375 842 q 318 828 336 836 l 313 799 l 342 796 l 344 817 q 356 821 353 819 q 369 826 358 822 m 174 203 l 172 201 l 174 203 z "},"8":{"ha":701,"x_min":-1,"x_max":685,"o":"m 267 921 q 174 905 221 921 q 90 858 128 889 q 28 780 53 826 q 4 674 4 733 l 4 661 q 33 594 7 622 q 90 542 58 565 q 101 529 94 535 q 113 518 107 524 q 30 416 58 478 q -1 285 1 354 l -1 272 q 26 106 -1 167 q 101 18 54 46 l 114 7 q 190 -37 146 -25 q 283 -51 233 -50 l 447 -87 l 439 -46 l 446 -46 q 540 -24 496 -46 q 615 37 583 -1 q 666 126 647 75 q 685 233 685 176 l 685 242 q 674 370 685 328 q 639 436 663 413 l 619 456 q 605 476 613 467 q 588 492 597 485 q 611 510 600 500 q 631 536 622 519 q 644 578 639 553 q 649 642 649 604 q 628 728 649 686 q 574 804 608 771 l 561 815 q 467 899 525 865 q 347 932 410 932 q 331 910 335 919 q 323 912 326 911 q 315 913 319 913 q 311 913 313 913 q 307 914 310 914 l 303 914 q 284 916 292 915 q 276 917 276 917 l 267 921 m 264 900 q 280 895 268 896 q 306 893 292 894 q 327 890 317 892 q 343 883 338 889 q 349 891 349 888 q 350 899 350 894 q 357 911 350 904 q 442 891 400 911 q 517 838 483 871 q 570 765 550 806 q 590 683 590 725 q 585 621 590 644 q 570 582 579 597 q 549 558 561 567 q 524 542 536 550 q 509 531 517 536 q 492 517 501 525 q 506 510 499 514 q 519 504 514 507 q 565 481 544 493 q 599 447 585 469 q 619 385 613 424 q 626 282 626 347 l 626 274 q 609 174 626 221 q 561 90 592 126 q 490 33 531 54 q 404 13 450 13 q 390 13 397 13 q 378 14 385 13 l 385 -24 l 244 7 q 158 18 199 7 q 86 59 117 29 q 38 140 56 89 q 19 272 19 192 l 19 285 q 56 424 22 360 q 154 519 89 488 q 137 534 146 526 q 118 549 128 542 q 57 599 86 572 q 25 663 28 626 l 25 674 q 47 769 25 728 q 103 840 68 811 q 180 885 138 869 q 264 900 222 900 m 372 447 l 281 403 q 248 353 253 383 q 243 300 243 322 q 265 240 243 268 q 319 211 286 211 l 325 211 l 333 208 q 383 242 364 215 q 401 297 401 268 q 401 322 401 308 q 397 351 400 336 q 385 379 393 365 q 361 403 376 393 l 372 447 m 328 617 q 337 617 332 617 q 346 618 342 618 q 354 617 350 618 q 363 617 358 617 q 367 624 363 618 q 378 636 371 629 q 390 651 385 643 q 396 668 396 660 q 382 707 396 692 q 340 726 368 722 l 332 722 q 307 711 321 718 q 281 696 293 704 q 259 677 268 688 q 250 657 250 667 q 261 646 250 650 q 288 636 272 642 q 313 627 301 631 q 326 618 324 624 l 328 617 m 301 258 l 301 265 q 306 309 301 285 q 332 349 310 333 l 367 364 q 379 328 378 346 q 381 297 381 311 q 366 258 381 278 q 331 231 351 238 l 326 232 l 319 232 q 303 233 308 232 q 301 246 300 240 q 301 258 301 251 m 196 835 q 190 843 194 842 q 183 844 186 844 l 182 844 q 160 837 172 844 q 135 817 147 829 q 116 793 124 806 q 108 771 108 781 q 122 778 110 771 q 148 796 133 786 q 175 815 163 806 q 190 826 188 824 l 189 826 q 196 835 196 829 m 428 844 q 435 836 428 839 l 433 836 q 447 824 435 833 q 474 806 460 815 q 501 788 489 796 q 515 781 514 781 q 507 803 515 790 q 486 827 499 815 q 461 847 474 839 q 440 854 449 854 l 439 854 q 432 853 435 854 q 428 844 429 851 m 89 318 q 82 341 86 333 q 72 356 78 349 q 63 376 63 368 l 60 376 q 58 361 58 372 q 70 310 58 336 q 97 279 82 283 l 89 318 m 410 60 q 415 56 411 56 q 425 59 418 56 q 439 65 432 63 q 443 67 440 67 q 463 76 453 67 q 482 98 474 85 q 496 126 490 111 q 503 151 501 140 l 500 151 q 493 133 499 144 q 480 110 488 121 q 463 91 472 99 q 446 83 454 83 q 438 86 440 83 q 431 81 438 86 q 419 71 425 76 q 410 61 415 65 l 410 60 m 351 182 l 340 140 q 351 145 347 140 q 361 157 356 150 q 372 170 367 164 q 383 179 378 176 l 383 182 l 351 182 m 388 88 l 388 90 l 290 53 l 296 47 l 297 49 l 311 49 l 388 88 m 244 607 q 249 588 244 597 q 252 578 250 585 q 256 568 254 572 q 259 576 258 572 q 261 583 260 581 q 263 588 261 585 q 258 597 260 594 q 253 607 256 600 l 244 607 m 363 651 l 361 650 q 358 646 358 647 q 356 643 357 644 l 350 638 l 349 638 l 347 639 q 344 638 346 639 q 340 638 342 638 l 335 638 q 331 640 333 638 q 371 661 351 654 q 363 651 368 657 m 524 596 q 522 592 522 594 q 515 578 521 590 q 518 572 518 575 q 521 564 519 569 l 524 564 q 528 578 525 569 l 532 596 l 524 596 z "},"9":{"ha":688,"x_min":-12,"x_max":675,"o":"m 63 822 q 61 821 61 821 q 61 819 63 821 q 54 810 58 814 l 40 814 l 11 753 q -7 697 -1 728 q -12 633 -12 665 q 5 512 -12 572 q 51 406 22 451 q 118 335 78 360 l 131 324 q 265 268 186 268 l 267 268 q 200 256 238 256 q 172 258 189 256 q 126 267 154 260 q 126 250 126 253 q 125 247 126 249 l 125 239 l 125 224 q 106 215 118 221 q 71 194 94 210 q 86 181 75 185 l 94 176 l 93 176 l 96 174 l 58 174 q 87 123 82 139 q 93 99 92 107 l 93 96 q 94 93 93 93 l 94 81 l 81 67 l 81 53 q 87 42 81 50 q 103 23 93 33 q 122 3 113 13 q 140 -10 132 -6 l 139 -10 l 156 -26 q 175 -44 167 -37 q 190 -51 183 -51 q 208 -43 200 -51 l 218 -43 q 258 -47 238 -43 l 260 -47 l 261 -49 q 269 -51 263 -50 q 301 -51 276 -51 q 466 -10 396 -51 q 583 99 536 32 q 652 253 629 167 q 675 432 675 340 q 667 531 675 479 q 641 633 658 583 q 598 729 624 683 q 538 808 572 775 l 532 811 l 533 811 q 442 898 496 864 q 318 932 389 932 q 242 928 286 932 q 165 901 199 924 q 147 907 156 907 q 122 890 128 900 q 114 867 117 879 l 113 865 l 113 863 l 111 861 l 111 860 q 84 845 96 857 q 63 822 72 833 m 121 838 q 130 849 128 842 q 135 863 132 856 q 140 876 138 869 q 150 886 143 883 q 165 876 158 886 q 197 896 178 889 q 237 906 215 903 q 280 910 258 910 q 318 911 301 911 q 451 868 394 911 q 544 760 507 825 q 599 617 581 694 q 617 474 617 540 q 595 302 617 386 q 529 153 574 218 q 417 47 485 88 q 260 7 350 7 q 240 8 249 7 q 221 11 231 10 q 176 15 200 15 l 165 15 q 161 13 165 15 q 154 10 157 11 q 151 8 153 8 q 150 7 150 7 q 138 13 146 7 q 122 27 129 19 q 108 42 114 35 q 101 53 101 50 l 101 57 q 116 72 113 68 q 121 75 119 75 q 126 71 121 71 q 137 74 131 71 q 157 88 143 78 q 144 87 151 88 q 135 86 138 86 q 119 90 121 86 q 114 103 117 94 q 109 123 113 110 q 96 153 106 136 l 100 153 l 139 146 l 144 146 q 140 171 144 165 q 125 185 136 176 q 111 194 117 190 q 127 202 122 201 q 135 203 132 203 l 142 203 q 151 202 146 203 q 165 201 157 201 q 161 221 165 217 q 153 226 157 225 q 148 230 150 228 q 146 239 146 232 l 147 240 q 174 237 161 238 q 200 236 186 236 q 320 274 275 236 q 369 368 365 313 q 291 336 328 346 q 224 326 254 326 q 136 350 175 326 q 69 418 97 374 q 25 519 42 463 q 8 633 8 576 q 14 693 8 664 q 31 746 19 722 l 51 792 q 57 789 53 789 q 67 794 61 789 q 79 808 72 800 q 97 829 88 819 q 114 839 107 839 q 118 838 117 839 l 121 838 m 242 706 q 223 651 233 685 q 213 582 213 618 q 228 517 213 546 q 288 475 243 489 l 301 475 q 351 485 329 475 q 376 519 374 496 q 378 551 378 536 q 379 578 379 565 q 370 651 379 625 q 344 690 361 678 q 301 705 326 703 q 243 707 276 707 l 242 706 m 358 578 q 358 556 358 567 q 357 532 358 544 q 356 528 357 529 q 356 526 356 528 l 356 521 q 337 502 353 508 q 301 496 321 496 l 294 496 q 283 499 288 499 q 274 503 278 500 q 271 519 271 511 q 271 540 271 529 q 278 599 271 571 q 293 649 285 628 q 347 644 324 649 q 358 578 358 618 m 415 631 q 406 689 415 657 q 375 738 397 721 l 375 732 q 374 730 375 731 q 374 726 374 729 q 388 665 374 699 q 415 610 401 632 l 415 631 m 410 318 l 410 317 q 422 338 419 329 q 424 361 424 346 l 424 374 l 421 374 q 413 354 414 360 q 410 349 411 351 q 406 340 410 346 l 372 257 l 375 257 l 410 318 m 525 194 q 538 215 536 207 q 539 236 539 224 l 539 251 l 536 251 q 526 233 529 239 q 521 215 524 226 l 504 171 l 507 169 l 525 194 m 382 854 q 353 874 371 871 q 321 876 335 876 l 317 876 l 317 864 q 343 860 331 864 q 356 856 350 857 q 371 854 363 854 l 382 854 m 108 758 l 108 761 l 106 761 l 106 758 l 108 758 z "}," ":{"ha":397,"x_min":0,"x_max":0,"o":""},"!":{"ha":422,"x_min":3,"x_max":413,"o":"m 260 604 l 261 604 l 261 601 l 260 604 m 269 617 q 267 613 267 614 l 267 617 l 269 617 m 265 606 q 265 607 265 607 q 267 608 267 607 l 267 613 q 265 610 265 611 q 261 604 264 607 l 264 604 l 265 606 m 164 188 q 172 179 172 188 q 172 167 172 176 q 169 149 171 158 q 166 131 168 139 q 161 122 164 122 q 158 139 158 122 q 157 167 157 156 l 157 179 q 164 188 157 188 m 272 682 q 276 669 274 682 q 282 642 279 657 q 286 613 285 626 q 288 597 288 599 q 283 590 288 590 q 278 593 281 590 q 276 599 276 596 l 279 599 q 278 607 279 599 q 274 628 276 615 q 271 653 272 640 q 269 674 269 667 q 272 682 269 682 m 272 747 q 258 755 264 747 q 253 769 253 763 l 253 772 q 254 785 253 776 q 258 804 256 794 q 262 823 260 814 q 265 836 264 832 q 278 847 265 847 l 274 749 l 272 747 m 221 129 q 222 122 221 125 q 222 115 222 118 l 222 94 q 222 86 222 90 q 221 79 221 82 l 221 58 q 217 33 221 49 q 211 17 214 17 l 203 17 l 203 26 l 210 147 l 221 158 l 221 129 m 125 943 q 124 933 125 940 q 122 919 124 926 q 121 907 121 913 q 121 899 121 901 q 122 895 121 897 q 122 889 122 893 q 119 840 122 874 q 112 772 115 806 q 105 713 108 738 q 101 690 101 688 l 101 931 l 124 944 l 125 943 m 79 99 l 79 82 q 80 66 79 75 q 81 46 81 57 q 80 26 81 35 q 79 10 79 17 l 79 -6 q 81 -6 79 -6 q 83 -8 82 -7 q 88 -11 85 -8 l 86 -11 q 90 -12 89 -12 q 94 -11 92 -12 l 93 -11 l 115 13 q 126 3 125 13 q 130 -14 128 0 q 133 -36 132 -28 l 147 -36 q 148 -25 147 -32 q 151 -11 149 -18 q 158 1 154 -4 q 169 6 163 6 q 189 -5 179 6 q 208 -28 199 -15 q 226 -50 217 -40 q 249 19 239 -8 q 267 65 260 46 q 278 98 274 83 q 287 128 283 113 q 292 164 290 144 q 296 213 294 183 q 208 226 260 226 l 107 226 q 84 220 94 226 q 74 197 74 214 l 74 193 l 79 99 m 181 292 q 186 292 185 292 q 197 293 189 292 q 211 314 204 297 q 218 336 218 331 l 244 335 q 246 347 244 340 q 247 356 246 351 q 247 363 247 360 q 256 429 251 401 q 263 477 260 457 q 270 513 267 497 q 276 540 274 528 q 283 569 279 554 q 290 606 286 585 q 297 658 293 628 q 306 732 301 688 q 309 765 306 738 q 317 824 313 792 q 325 888 321 857 q 332 935 329 919 q 338 955 335 946 q 343 972 340 964 q 351 993 347 983 q 354 1014 354 1003 l 354 1015 q 342 1043 354 1031 q 315 1057 331 1056 q 297 1056 311 1057 q 265 1053 282 1056 q 235 1049 249 1051 q 218 1043 221 1047 q 221 1032 221 1036 q 221 1022 221 1029 q 217 1006 219 1014 q 206 996 215 997 q 186 1044 199 1026 q 138 1064 174 1063 l 132 1064 q 118 1061 126 1064 q 107 1056 110 1058 q 86 1062 104 1058 q 49 1065 68 1065 q 31 1063 38 1065 q 24 1054 24 1061 l 24 1033 q 31 847 24 938 q 49 664 39 756 q 58 581 53 622 q 65 497 63 540 q 63 486 65 486 q 64 476 63 479 q 66 465 65 472 q 69 451 67 458 q 81 404 75 432 q 90 350 88 376 q 92 344 90 347 q 97 333 94 340 q 99 324 99 326 l 99 322 l 181 292 m 53 192 l 53 197 q 69 237 53 226 q 107 247 86 247 l 185 247 l 121 272 l 89 304 l 90 304 l 78 308 l 78 324 q 76 331 78 326 q 71 340 74 336 q 69 350 69 343 q 61 394 67 369 q 50 439 56 419 q 49 442 50 442 q 49 446 49 443 q 46 454 46 451 q 44 464 44 457 l 44 467 q 44 469 44 468 q 43 472 43 471 q 42 486 42 476 l 42 507 l 43 507 q 40 531 42 518 q 38 556 39 543 q 35 581 36 568 q 33 607 35 594 q 32 621 32 614 q 31 635 32 628 q 28 649 29 642 q 28 663 28 656 q 10 845 18 754 q 3 1033 3 936 l 3 1054 q 15 1080 3 1074 q 49 1086 28 1086 q 77 1083 61 1086 q 106 1076 93 1079 q 120 1082 113 1079 q 132 1085 128 1085 l 138 1085 q 179 1076 164 1083 q 204 1056 194 1069 q 233 1065 215 1061 q 267 1072 250 1069 q 298 1076 285 1075 q 315 1078 311 1078 q 369 1038 354 1074 l 369 1039 l 396 1014 q 413 974 413 994 l 413 972 q 409 951 413 961 q 401 931 406 942 q 401 928 401 929 q 400 925 400 926 q 390 892 396 914 q 383 845 388 876 q 374 781 378 814 q 366 722 369 749 q 363 689 363 694 q 355 621 358 649 q 348 573 351 593 q 342 538 344 553 q 336 511 339 524 q 335 503 335 507 q 333 496 335 500 q 333 493 333 494 q 332 490 332 492 q 319 428 325 464 q 306 319 313 392 q 305 315 306 317 q 304 311 304 314 l 304 303 q 303 289 303 299 q 303 276 303 279 l 271 278 q 269 272 271 274 q 261 258 265 265 q 254 244 257 251 q 315 228 289 240 l 315 221 l 353 183 q 349 124 351 147 q 344 83 347 100 q 335 50 340 65 q 322 17 329 35 l 319 17 q 301 -42 311 -6 q 278 -121 290 -79 q 264 -108 271 -114 q 250 -94 257 -101 l 240 -85 l 240 -87 q 207 -58 221 -71 q 206 -78 206 -67 q 206 -94 206 -90 l 158 -94 l 133 -69 q 131 -71 132 -71 q 131 -71 131 -71 q 126 -70 128 -71 q 118 -67 125 -69 l 115 -67 l 82 -33 q 76 -29 79 -31 l 74 -29 q 67 -23 69 -25 q 58 -11 65 -21 l 58 35 q 59 40 58 38 q 60 46 60 43 q 59 51 60 49 q 58 56 58 53 l 58 97 l 53 192 z "},"\"":{"ha":478,"x_min":-4,"x_max":467,"o":"m 347 957 q 354 949 354 957 q 353 937 354 946 q 351 917 353 928 q 348 899 350 907 q 343 890 346 890 q 342 917 342 911 q 342 936 342 924 l 342 949 q 347 957 342 957 m 97 1006 q 104 997 104 1006 q 103 985 104 994 q 102 966 103 976 q 99 947 101 956 q 94 939 97 939 q 91 956 92 939 q 90 985 90 972 l 90 997 q 97 1006 90 1006 m 304 900 q 303 892 304 896 q 303 885 303 888 l 303 864 q 301 838 303 854 q 294 822 299 822 l 286 822 l 286 832 l 301 921 l 304 921 l 304 900 m 51 986 q 52 978 51 982 q 53 969 53 974 l 53 949 q 52 940 53 944 q 51 933 51 936 l 51 913 q 50 887 51 903 q 44 871 49 871 l 36 871 l 36 881 l 43 1003 l 51 1015 l 51 986 m 22 915 l 22 863 q 24 840 22 851 q 26 819 25 829 q 28 808 28 813 q 28 803 28 806 l 31 800 q 32 799 32 799 q 35 797 33 799 l 33 797 q 38 796 36 796 l 42 800 q 45 772 42 785 q 53 746 49 758 q 58 726 56 735 q 63 710 61 717 l 86 710 q 88 726 86 714 q 92 751 89 739 q 99 774 94 764 q 110 785 103 785 q 117 767 117 785 q 117 750 117 760 q 115 731 117 742 q 114 708 114 719 q 114 688 114 697 q 114 676 114 682 q 115 669 114 672 q 144 730 129 696 q 173 803 160 764 q 195 886 186 843 q 206 975 204 929 q 181 1010 197 997 q 146 1028 165 1022 q 106 1035 126 1033 q 69 1036 86 1036 l 47 1036 q 26 1033 36 1036 q 17 1015 17 1031 l 17 1011 l 22 915 m 225 899 q 226 883 225 892 q 226 863 226 874 q 227 840 226 851 q 229 819 228 829 q 231 808 231 813 q 231 803 231 806 q 232 802 231 803 q 235 800 233 801 q 236 799 236 799 q 239 797 238 799 l 240 796 q 246 797 243 796 q 249 772 246 785 q 257 746 253 758 q 263 726 260 735 q 267 710 265 717 l 289 710 q 294 730 289 717 q 313 743 300 743 q 319 731 319 743 q 319 721 319 726 q 318 708 319 715 q 317 694 317 701 q 317 682 317 688 l 317 668 q 346 728 331 694 q 374 802 361 763 q 397 885 388 842 q 408 975 407 929 q 365 1025 396 1007 q 306 1043 335 1043 q 274 1036 283 1043 q 234 994 246 1017 q 222 947 222 972 q 222 932 222 940 q 225 915 222 924 l 225 899 m -4 1010 l -4 1015 q 13 1051 -4 1046 q 47 1056 29 1056 l 69 1056 q 103 1054 85 1056 q 142 1048 122 1053 q 181 1032 163 1043 q 213 1001 199 1021 q 260 1051 226 1028 q 306 1064 278 1064 q 369 1047 338 1064 q 421 997 401 1029 l 438 981 q 467 935 453 965 q 455 841 465 888 q 430 752 444 794 q 398 672 415 710 q 365 606 381 635 q 353 614 353 613 q 350 615 351 615 q 349 617 350 615 l 322 642 q 313 648 318 644 q 310 650 308 651 q 307 651 307 650 l 292 651 l 254 689 l 246 689 q 244 712 246 704 q 240 725 243 719 q 240 726 240 725 q 239 729 239 728 q 240 731 242 726 q 236 738 238 735 q 233 747 233 743 l 235 747 q 232 751 232 750 q 232 754 232 751 q 231 760 232 757 q 195 672 215 713 q 160 599 175 631 l 121 636 l 121 632 q 112 640 117 636 q 104 651 107 644 l 88 651 l 50 689 l 42 689 q 40 712 42 704 q 36 725 39 719 q 35 726 36 725 q 35 729 35 728 q 35 731 38 726 q 32 738 33 735 q 29 747 29 743 l 31 747 q 29 751 29 749 q 22 779 25 763 l 21 779 q 13 788 14 786 q 7 799 11 790 q 7 806 7 801 q 6 817 7 811 q 5 819 6 818 q 4 821 4 819 l 4 826 q 2 842 3 833 q 1 863 1 851 l 1 914 l -4 1010 z "},"#":{"ha":876,"x_min":-26,"x_max":897,"o":"m 340 340 q 371 338 340 340 l 376 340 l 340 340 m 431 735 q 422 782 431 757 l 422 711 l 429 711 q 431 722 431 717 q 431 735 431 728 m 426 488 l 421 488 l 421 432 l 436 432 l 432 486 l 432 485 l 426 488 m 347 621 q 363 625 358 624 l 363 619 q 351 597 363 610 l 314 594 l 346 621 l 347 621 m 388 354 q 399 353 397 353 q 403 351 400 353 q 404 343 404 344 q 406 342 404 343 q 407 338 406 339 q 399 319 407 324 q 379 313 392 315 q 371 310 376 311 q 361 308 365 310 l 379 340 l 376 340 l 381 342 l 386 353 l 388 354 m 711 300 l 701 294 l 690 301 l 714 350 l 728 356 q 735 328 735 335 l 735 300 l 711 300 m 168 879 q 180 828 176 854 q 183 774 183 801 l 183 749 q 164 800 164 772 l 164 865 q 165 873 164 869 q 165 879 165 876 l 168 879 m 622 788 q 592 574 603 653 q 582 490 582 496 l 582 467 q 575 510 575 474 q 576 567 575 535 q 578 630 576 600 q 583 682 581 660 q 589 708 586 704 l 589 707 l 596 753 q 601 763 596 756 q 611 776 606 769 l 619 788 l 622 788 m 363 550 q 378 546 367 546 q 394 544 393 546 l 393 544 l 400 542 q 411 540 403 540 l 450 540 l 458 411 l 361 411 q 363 433 363 415 l 363 550 m 690 401 l 690 424 l 690 543 l 699 543 q 718 541 710 542 q 738 540 726 540 q 758 542 757 540 l 758 540 l 778 606 l 721 611 l 676 614 l 676 617 q 703 626 688 621 q 736 635 719 631 q 767 644 753 640 q 788 649 781 647 l 760 686 l 761 686 l 692 688 l 692 765 q 692 859 692 821 q 694 907 693 897 l 446 910 l 422 824 q 445 778 439 799 q 451 735 451 757 q 450 706 451 719 q 446 681 449 693 l 439 681 l 432 690 l 433 690 l 364 692 l 364 850 l 364 881 q 219 919 333 919 q 172 918 197 919 q 119 914 147 917 l 125 810 l 125 811 q 140 765 140 788 q 137 744 140 754 q 129 722 133 733 q 123 705 126 714 q 118 685 119 696 l 82 685 q 74 675 78 678 q 69 674 71 675 q 64 674 67 674 q 36 669 51 671 q 14 668 21 668 q 18 651 14 657 q 26 640 22 646 q 32 633 29 636 q 35 624 35 629 q 30 610 35 617 q 13 592 25 603 q 25 578 25 583 q 33 564 25 572 l 33 561 q 36 558 33 558 q 42 559 39 558 q 47 560 44 560 q 57 561 51 561 q 64 556 64 561 q 63 550 64 553 l 72 546 q 83 544 75 544 l 122 544 l 131 415 l 36 415 q 31 406 31 415 q 31 401 31 403 q 32 397 32 400 q 33 393 32 394 q 33 389 33 392 q 29 383 33 383 q 54 359 31 364 q 106 354 78 354 l 125 354 q 143 353 140 354 l 144 346 l 79 339 q 69 324 78 328 q 51 317 61 319 q 40 313 46 314 q 28 307 35 311 q 37 297 35 303 q 40 285 39 290 q 42 275 42 279 q 46 268 43 271 l 46 265 q 47 264 46 264 q 63 269 51 264 q 75 275 74 275 q 79 271 79 275 q 78 265 79 268 l 88 263 q 103 261 90 261 l 154 261 l 175 90 l 189 43 q 206 35 201 43 q 210 14 210 26 q 209 5 210 10 q 208 -4 208 0 q 208 -12 208 -8 q 207 -19 207 -17 q 215 -29 207 -29 q 224 -24 219 -29 q 234 -12 229 -19 q 242 0 239 -6 q 244 8 244 6 q 249 20 246 13 q 258 38 253 28 q 273 67 265 53 q 281 90 281 82 l 283 90 l 274 39 l 276 42 l 276 40 q 282 44 276 44 q 286 40 286 44 l 303 -29 l 338 -29 q 339 -15 338 -22 q 340 2 339 -10 q 342 24 342 14 q 344 41 343 35 q 344 42 344 47 l 344 267 q 350 266 347 267 q 356 265 353 265 q 374 263 367 263 l 374 261 q 375 260 374 260 l 383 263 q 390 262 386 263 q 396 261 393 261 l 408 261 l 415 258 q 431 257 418 257 l 482 257 l 503 86 l 539 -35 q 546 -49 540 -49 q 556 -36 551 -49 q 560 -10 560 -24 q 553 10 560 3 l 554 13 l 603 -1 q 604 7 604 1 q 603 21 604 17 q 601 42 601 26 l 628 17 l 629 19 q 635 31 633 29 l 635 29 q 640 33 635 33 q 644 29 644 33 l 660 -39 l 667 -33 q 668 -19 667 -26 q 669 -3 668 -14 q 671 17 669 7 q 673 33 672 26 q 674 39 674 40 l 674 263 q 722 258 693 260 q 764 257 750 257 l 774 257 l 806 339 l 774 367 q 788 374 785 367 q 796 388 792 381 q 803 400 797 394 l 769 406 l 690 401 m 750 707 l 771 707 l 792 679 l 811 661 l 867 592 q 853 591 854 592 q 844 589 851 590 q 839 588 842 588 q 833 586 836 588 l 843 579 l 817 492 q 802 483 810 485 q 779 482 794 482 q 763 481 769 482 q 749 482 756 481 l 749 425 l 769 426 l 871 413 l 858 406 l 897 367 q 867 349 881 358 q 851 336 854 340 l 847 328 q 846 325 847 326 l 868 304 l 832 213 q 824 200 831 201 q 806 199 817 199 q 772 199 793 199 q 731 203 750 200 l 731 -6 q 728 -19 729 -7 q 726 -46 728 -32 q 726 -58 726 -53 q 725 -65 725 -62 q 724 -78 724 -72 q 724 -85 724 -83 l 692 -111 l 654 -72 l 649 -76 l 643 -60 l 618 -51 q 608 -88 618 -69 q 588 -107 599 -107 q 575 -101 581 -107 l 543 -69 q 518 -42 528 -68 l 482 78 l 467 199 q 450 201 454 199 l 451 201 l 447 203 l 431 203 q 427 203 428 203 q 425 204 426 204 q 417 201 419 203 q 403 204 406 201 l 403 -1 q 401 -15 401 -3 q 399 -42 400 -28 q 398 -53 399 -49 q 397 -61 397 -58 q 396 -76 396 -68 q 396 -87 396 -85 l 331 -87 l 294 -51 q 275 -75 288 -62 q 256 -87 263 -87 q 238 -82 243 -87 l 206 -49 q 186 -19 186 -43 l 186 -8 q 187 -6 186 -7 q 188 -4 188 -6 l 188 8 q 188 11 188 10 q 189 14 189 13 l 182 21 l 179 21 q 176 22 178 21 q 174 22 175 22 l 154 82 l 139 203 q 122 206 126 203 l 124 206 l 108 213 q 89 207 99 207 q 76 213 82 207 l 44 244 q 32 249 36 244 q 25 261 28 254 l 25 260 q 19 276 19 267 l 1 294 l 3 294 q -1 296 0 296 q -6 297 -3 296 l -17 303 q 17 326 7 322 q 36 333 28 331 l 39 333 q 43 335 42 333 l 43 333 q 46 336 43 336 l 47 336 l 39 344 l 40 344 q 8 404 8 360 l 10 404 l 10 406 q 17 426 10 417 q 36 436 24 436 l 108 436 l 104 490 l 85 501 q 78 500 82 500 q 63 504 67 500 l 29 538 q 13 554 15 539 q 8 561 11 554 l 8 560 l -11 579 l -10 579 q -16 582 -12 581 q -26 586 -19 583 q 3 610 -6 601 q 14 621 11 618 l 13 622 l 10 628 l 10 626 q -2 645 3 633 q -7 689 -7 657 q 26 690 4 689 q 61 694 49 692 l 63 694 l 63 706 l 101 706 l 106 718 q 107 725 106 724 l 107 724 l 110 729 q 110 731 110 731 q 111 732 111 731 q 113 738 111 736 l 113 736 q 119 765 119 753 q 104 803 119 782 l 97 933 q 163 939 133 938 q 219 940 193 940 q 326 926 282 940 q 393 879 369 911 l 390 876 l 408 856 l 431 931 l 718 928 q 717 925 718 926 q 717 922 717 924 l 717 919 l 756 882 q 751 824 753 867 q 750 724 750 781 l 750 707 z "},"$":{"ha":522,"x_min":-22,"x_max":518,"o":"m 421 297 q 426 285 424 294 q 429 272 429 275 l 429 249 q 425 223 429 233 q 401 197 421 213 l 401 204 q 403 231 401 219 q 408 254 406 243 q 414 273 411 264 q 418 296 417 282 l 421 297 m 49 560 q 50 578 50 574 q 50 599 50 583 q 51 620 50 610 q 51 636 51 631 l 51 639 l 54 639 q 60 612 57 631 q 65 572 63 593 q 68 531 67 550 q 69 501 69 511 q 51 512 56 501 q 47 536 47 522 q 48 544 47 540 q 49 551 49 549 l 49 560 m 46 22 q 40 22 43 22 q 32 22 36 21 q 74 5 51 8 q 121 1 97 1 l 153 1 q 224 7 200 1 l 210 -103 l 221 -136 l 249 -136 l 261 -132 l 267 -112 l 288 -112 l 278 19 q 350 60 317 32 q 408 125 383 88 q 446 207 432 163 q 460 299 460 251 l 460 324 q 459 335 460 331 q 458 343 458 339 l 458 350 q 433 401 447 378 q 396 443 419 424 q 379 455 388 450 q 363 467 371 460 q 299 519 328 490 q 269 594 269 549 q 283 629 269 621 q 318 638 297 638 q 333 637 325 638 q 349 635 340 636 q 365 633 357 633 q 382 632 374 632 q 399 631 392 632 q 413 626 406 629 q 436 622 425 622 l 442 622 q 435 628 439 628 q 421 638 429 633 q 411 642 415 640 q 407 650 407 644 l 407 653 q 406 658 406 656 q 404 664 406 661 q 401 680 403 672 q 396 692 399 688 q 376 703 392 694 q 353 715 361 713 l 353 718 q 358 719 356 718 q 364 719 361 719 l 374 719 q 390 718 383 719 q 404 714 397 717 q 432 710 418 710 q 421 722 425 719 q 414 728 417 725 q 405 735 407 731 q 403 761 403 740 q 404 760 403 761 q 408 760 406 760 q 424 758 413 758 q 432 760 428 758 q 436 769 436 763 q 428 788 436 779 q 410 803 421 797 q 385 815 399 810 q 361 821 372 819 l 361 822 q 355 828 361 824 q 342 836 349 832 q 330 844 335 840 q 331 847 325 847 q 353 845 343 847 q 375 840 364 843 q 397 836 386 838 q 419 835 407 835 l 439 844 l 443 881 q 403 908 435 900 q 342 915 372 915 l 314 915 q 297 915 306 915 q 281 913 289 914 l 276 913 l 279 957 l 276 978 l 271 990 l 307 1017 l 307 1015 l 315 1033 l 292 1035 l 272 1033 l 233 1010 l 221 1035 l 189 1039 l 204 896 q 63 793 117 865 q 10 621 10 721 q 24 526 10 564 q 61 464 39 489 q 110 424 83 439 q 163 399 138 410 q 223 367 197 383 q 249 315 249 350 q 233 265 249 289 q 196 224 218 242 q 149 196 174 207 q 106 183 124 185 q 98 175 103 176 q 89 174 93 174 q 83 174 86 174 q 78 175 81 175 l 68 175 q 47 176 57 175 q 26 182 38 176 l 26 181 q 34 164 26 169 q 51 153 42 158 q 72 139 63 146 q 81 119 81 132 l 29 119 q 41 113 33 117 q 57 104 49 108 q 85 90 72 97 q 99 82 99 82 q 101 76 100 81 q 103 65 101 71 l 104 57 l 129 50 q 132 44 132 50 q 131 39 132 40 q 106 35 115 38 q 86 29 96 32 q 46 22 65 22 m 24 44 q 36 43 31 43 q 46 43 42 43 q 65 44 57 43 q 81 49 74 46 l 82 49 l 82 50 q 60 65 72 57 q 32 92 49 74 l 26 97 q -22 140 11 107 l 31 140 q 13 156 19 147 q 6 181 6 165 l 6 215 q 46 198 35 200 q 68 196 57 196 l 82 196 q 85 194 83 194 l 86 203 q 129 214 104 204 q 176 238 154 224 q 213 273 197 253 q 228 315 228 293 q 225 328 228 319 l 225 326 q 221 328 225 326 q 215 332 217 331 q 204 338 208 335 q 197 342 200 340 l 199 342 q 145 367 172 353 q 94 404 118 381 l 82 415 q 16 488 43 442 q -11 621 -11 535 q 41 794 -11 718 q 182 908 93 871 l 169 1025 l 169 1024 l 165 1026 l 168 1038 l 167 1057 l 171 1049 l 175 1061 l 236 1054 l 240 1040 l 240 1042 l 240 1040 l 261 1054 l 292 1056 l 349 1053 l 344 1043 l 383 1007 l 361 961 l 333 942 l 335 942 l 335 936 l 342 936 q 414 924 376 936 q 464 883 451 913 l 464 885 l 490 858 q 496 851 493 856 q 501 840 499 846 l 496 792 l 465 776 l 464 776 l 479 761 q 494 728 494 746 q 485 706 494 711 q 467 700 475 700 l 476 690 q 501 660 486 681 q 505 656 503 658 q 508 651 507 653 l 475 651 l 454 651 q 457 642 456 649 q 461 629 458 635 q 462 626 461 628 q 463 622 463 624 l 485 601 l 486 600 l 490 597 q 506 564 497 590 l 478 564 q 451 568 465 564 q 437 572 444 571 q 422 574 429 574 q 405 574 413 574 q 389 576 397 575 l 385 576 q 372 578 378 578 q 360 579 365 579 q 338 574 347 579 q 328 553 328 568 q 331 531 328 540 q 338 511 333 521 l 338 513 q 354 500 346 506 q 371 488 363 494 q 374 485 372 486 q 376 483 375 485 l 393 471 q 400 465 399 465 q 406 462 403 464 q 411 458 408 460 q 432 438 422 450 q 451 413 442 426 l 463 401 q 493 360 481 383 q 517 313 506 338 l 517 294 q 517 289 517 292 q 518 283 518 286 l 518 257 q 504 162 518 208 q 466 77 490 115 q 408 10 442 39 q 336 -33 375 -19 l 347 -171 l 321 -171 l 317 -187 l 294 -194 l 253 -194 l 215 -157 l 208 -157 l 189 -104 l 194 -57 l 161 -57 q 107 -52 135 -57 q 57 -29 79 -47 l 29 -1 l 31 -1 q 18 5 24 1 q 10 11 13 8 l 24 44 z "},"%":{"ha":717,"x_min":-8,"x_max":707,"o":"m 157 842 l 157 844 l 158 844 l 158 842 l 157 842 m 476 264 l 476 267 l 478 267 l 478 264 l 476 264 m 461 -51 q 460 -51 460 -51 q 460 -53 460 -53 q 461 -56 460 -56 q 464 -53 464 -56 q 463 -52 464 -53 q 461 -51 463 -51 m 142 528 q 140 526 140 528 q 140 526 140 526 q 142 524 140 524 q 144 526 144 524 q 144 527 144 526 q 142 528 143 528 m 100 879 l 97 876 q 97 874 97 875 q 96 874 96 874 l 96 875 q 92 869 94 872 q 86 864 89 865 l 82 864 q 88 876 85 872 q 96 883 90 881 l 100 879 m 419 300 l 417 297 q 416 295 417 296 q 415 294 415 294 l 415 296 q 411 290 414 293 q 406 285 408 286 l 401 285 q 407 297 404 293 q 415 304 410 301 l 419 300 m 117 900 q 126 899 121 900 q 131 890 131 897 l 124 890 q 118 892 119 890 q 115 893 115 892 q 111 892 114 892 q 106 890 108 890 l 101 890 q 117 900 104 900 m 436 321 q 445 319 440 321 q 450 311 450 318 l 443 311 q 438 313 439 311 q 435 314 435 313 q 431 313 433 313 q 425 311 428 311 l 421 311 q 436 321 424 321 m 351 115 l 354 115 q 361 76 361 94 l 361 65 q 353 87 354 76 q 351 106 351 97 l 351 115 m 32 694 l 35 694 q 42 656 42 674 l 42 644 q 33 666 35 656 q 32 685 32 676 l 32 694 m 90 599 q 72 609 81 603 q 61 624 64 615 q 54 632 57 625 l 56 635 q 70 624 63 629 q 83 611 78 618 l 90 599 m 410 19 q 392 30 400 24 q 381 44 383 36 q 374 53 376 46 l 375 56 q 390 44 382 50 q 403 32 397 39 l 410 19 m 610 283 q 613 282 613 283 q 618 274 614 281 q 622 268 622 269 q 623 259 622 265 q 628 221 624 253 q 624 230 626 221 q 617 250 621 239 q 612 270 614 261 q 610 281 610 279 l 610 283 m 290 863 q 294 861 293 863 q 299 851 294 860 q 303 846 303 847 q 303 837 303 843 q 308 800 304 831 q 304 809 307 800 q 298 829 301 818 q 292 849 294 840 q 290 860 290 858 l 290 863 m 629 106 q 631 97 629 104 q 624 59 631 78 q 601 28 617 40 l 601 35 l 613 58 q 621 80 615 63 q 626 106 626 97 l 629 106 m 310 685 q 311 676 310 683 q 304 638 311 657 q 282 607 297 619 l 282 614 l 293 638 q 301 659 296 642 q 307 685 307 676 l 310 685 m 201 821 q 204 828 201 825 q 208 833 207 832 q 215 828 215 833 l 215 829 q 228 810 225 818 q 231 790 231 803 q 230 787 231 788 q 229 785 229 786 l 229 779 l 222 774 l 210 815 q 207 819 210 818 q 203 819 204 819 l 201 821 m 522 243 q 525 251 522 247 q 529 256 528 254 q 536 251 533 256 q 547 232 544 240 q 550 211 550 224 q 549 208 550 208 q 549 206 549 207 l 549 200 l 542 194 l 531 236 q 528 240 531 239 q 524 242 525 242 l 522 243 m 432 588 q 440 579 440 588 q 433 563 440 576 q 418 533 426 549 q 402 503 410 517 q 393 490 394 490 l 393 493 q 399 513 393 497 q 411 543 404 528 l 425 579 q 432 588 425 588 m 132 149 l 158 190 l 161 189 l 143 67 l 132 67 l 132 149 m 136 725 q 146 776 136 754 q 167 818 156 799 l 167 817 l 169 821 l 174 821 l 175 819 q 194 782 190 804 q 199 735 199 760 l 199 731 q 198 726 199 728 q 197 722 197 725 l 197 711 q 193 687 196 699 q 183 667 190 675 q 179 661 181 663 q 171 653 178 660 l 171 654 l 169 639 l 167 639 q 159 659 160 656 q 156 665 158 663 q 142 695 147 681 q 136 725 136 710 m 456 146 q 465 197 456 175 q 486 239 475 219 l 486 238 l 489 243 l 493 243 l 494 242 q 515 203 510 226 q 519 156 519 181 l 519 151 q 519 147 519 149 q 518 143 518 146 l 518 132 q 514 108 517 119 q 504 88 511 96 q 499 82 501 83 q 490 74 497 81 l 489 60 l 486 60 q 478 80 479 76 q 475 86 478 83 q 461 116 467 101 q 456 146 456 131 m 171 544 q 168 544 169 544 q 165 543 167 543 q 156 542 161 542 q 150 535 150 542 q 151 531 150 532 q 285 602 240 553 q 329 750 329 651 q 318 820 329 783 q 285 888 307 857 q 233 938 264 918 q 163 958 201 958 q 130 947 139 958 q 117 925 121 935 q 115 919 115 921 q 114 917 114 917 q 108 914 111 915 q 101 911 104 913 q 93 906 97 908 q 82 897 89 904 q 15 713 15 818 q 33 635 15 675 q 82 572 50 596 q 91 567 88 569 q 99 563 94 565 q 115 555 108 558 q 129 547 122 551 l 171 547 l 171 544 m 490 -35 q 488 -35 489 -35 q 485 -36 486 -36 q 475 -37 481 -37 q 469 -44 469 -37 q 471 -47 469 -47 q 604 24 560 -25 q 649 171 649 72 q 638 241 649 204 q 605 308 626 278 q 552 359 583 339 q 482 379 521 379 q 449 367 458 379 q 436 346 440 356 q 434 340 435 342 q 433 338 433 338 q 427 335 431 336 q 421 332 424 333 q 413 327 417 329 q 401 318 408 325 q 335 133 335 240 q 352 56 335 96 q 401 -7 369 17 q 410 -12 407 -10 q 418 -17 414 -14 q 435 -24 428 -21 q 449 -32 442 -28 l 490 -32 l 490 -35 m 200 407 q 181 358 194 383 q 147 304 167 333 q 90 209 118 260 q 63 106 63 158 q 63 94 63 100 q 64 83 63 89 q 66 69 65 75 q 68 57 67 64 q 72 40 69 50 q 78 14 74 31 l 117 6 q 119 17 117 10 q 124 28 121 25 l 129 31 q 149 13 140 29 q 161 -11 158 -4 l 161 25 q 171 31 165 31 q 175 29 174 31 l 197 6 l 203 6 q 208 13 207 10 q 211 19 210 17 l 469 517 q 488 549 481 533 q 507 583 496 564 q 535 640 522 614 q 557 674 549 665 q 572 692 561 678 q 596 724 583 707 q 619 755 608 740 q 632 775 629 769 l 632 781 q 633 783 632 782 q 633 788 633 785 q 626 822 633 804 q 606 856 618 840 q 577 881 593 871 q 543 892 561 892 l 539 892 q 536 869 539 882 q 528 845 533 857 q 515 826 522 833 q 497 818 507 818 l 489 818 q 505 847 503 839 q 507 869 507 854 l 507 875 q 501 891 507 889 q 485 893 496 893 l 479 893 q 463 894 471 893 q 449 899 456 896 q 437 901 442 900 q 426 901 432 901 q 407 892 414 901 q 400 870 403 885 q 394 838 397 856 q 388 791 392 815 q 375 744 383 767 l 353 675 l 200 407 m 215 478 q 206 476 208 478 q 199 474 200 474 q 182 465 192 465 q 171 469 175 465 l 136 503 q 131 504 132 503 l 132 504 q 122 510 126 506 q 119 511 119 510 q 117 514 117 511 q 106 522 111 518 q 97 531 101 526 l 79 549 l 81 549 q 72 553 74 550 q 35 591 51 569 q 8 639 18 613 q -1 646 4 643 l 0 646 l -8 650 l -8 653 l 3 653 q -3 682 0 667 q -6 713 -6 697 q 65 911 -6 828 q 90 929 76 924 l 93 929 l 94 929 q 96 933 94 932 l 96 932 q 99 938 96 935 l 99 936 q 115 963 103 947 q 163 979 126 979 q 244 956 208 979 q 304 897 281 933 l 317 885 q 345 847 332 868 q 368 803 358 825 l 372 825 l 372 832 q 373 835 372 835 q 374 839 374 836 l 374 842 q 374 843 374 843 q 375 844 375 843 q 378 861 378 856 q 383 886 381 876 q 390 906 385 896 q 406 919 397 917 q 426 922 414 922 q 439 922 435 922 q 447 919 443 921 l 456 919 q 469 915 463 917 q 479 914 476 914 l 485 914 q 519 907 511 914 l 519 913 l 543 913 q 595 894 571 913 q 635 849 619 875 l 649 836 q 680 794 668 818 q 692 746 692 769 q 691 744 692 744 q 690 742 690 743 l 690 731 q 676 708 688 724 q 652 673 665 692 q 627 639 639 654 q 611 619 615 624 q 596 597 604 613 q 576 560 588 581 q 569 547 574 553 q 563 535 565 542 q 542 496 551 515 q 522 461 533 476 l 524 461 l 490 400 q 567 374 533 397 q 624 318 600 350 l 636 306 q 689 223 671 272 q 707 129 707 174 q 660 -25 707 29 q 519 -106 614 -79 q 503 -114 513 -114 q 490 -110 494 -114 l 457 -76 q 450 -75 451 -76 l 451 -75 q 443 -68 449 -74 q 438 -67 439 -68 q 436 -65 438 -65 q 426 -57 431 -61 q 417 -49 421 -53 l 399 -31 q 389 -25 394 -28 q 353 12 369 -10 q 328 60 338 33 q 321 63 324 63 q 317 65 319 63 l 267 -32 l 265 -31 q 253 -53 263 -43 l 231 -53 l 218 -40 l 218 -58 l 201 -42 l 203 -42 q 185 -33 189 -35 q 175 -29 182 -32 q 174 -43 174 -35 q 175 -56 175 -51 l 106 -43 l 69 -7 l 71 -7 l 60 -6 q 53 19 56 10 q 50 35 51 28 q 47 53 49 43 q 43 78 46 63 q 42 90 42 83 q 42 106 42 99 q 69 217 42 165 q 126 313 97 268 q 128 315 128 314 q 132 319 129 317 l 132 318 q 135 324 135 324 q 164 371 151 349 q 179 414 176 393 l 215 478 z "},"&":{"ha":761,"x_min":-3,"x_max":751,"o":"m 121 596 q 123 592 122 594 q 129 578 124 590 q 126 572 126 575 q 124 564 125 569 l 121 564 q 117 578 119 569 l 113 596 l 121 596 m 143 476 q 139 457 143 467 q 135 448 138 454 q 132 438 133 442 q 128 446 129 442 q 126 453 128 450 q 125 457 126 454 q 129 467 128 464 q 133 476 131 469 l 143 476 m 333 49 l 257 88 l 257 90 l 354 53 l 350 49 l 333 49 m 293 182 l 304 140 q 293 145 297 140 q 283 157 289 150 q 272 170 278 164 q 261 179 267 176 l 261 182 l 293 182 m 235 60 q 229 56 232 56 q 219 59 226 56 q 206 65 213 63 q 203 67 204 67 q 201 67 201 67 q 182 76 192 67 q 164 97 172 85 q 150 124 156 110 q 143 150 144 139 l 146 150 q 153 131 147 142 q 166 109 158 119 q 182 91 174 99 q 199 83 190 83 q 207 86 204 83 q 213 81 207 86 q 225 71 219 76 q 235 61 229 65 l 235 60 m 536 322 q 543 345 539 338 q 553 360 547 353 l 553 358 q 556 363 554 361 q 558 367 557 364 l 561 367 l 565 361 q 555 313 565 338 q 528 283 544 288 l 536 322 m 617 403 l 607 394 l 597 403 l 619 468 l 628 476 q 636 438 636 451 q 635 430 636 433 q 635 422 635 426 l 635 403 l 617 403 m 217 844 q 210 836 217 839 l 211 836 q 197 825 208 833 q 170 806 185 817 q 143 788 156 796 q 129 781 131 781 q 138 803 129 790 q 159 827 147 815 q 183 847 171 839 q 204 854 196 854 l 206 854 q 212 853 208 854 q 217 844 215 851 m 449 835 q 454 843 450 842 q 461 844 458 844 l 463 844 q 485 837 472 844 q 509 817 497 829 q 529 793 521 806 q 538 771 538 781 q 524 778 536 771 q 497 796 511 786 q 469 815 482 806 q 454 826 457 824 l 456 826 q 449 835 449 829 m 301 256 q 301 244 301 250 q 303 232 300 239 q 313 231 306 231 l 318 232 l 325 232 q 370 236 360 232 q 381 253 381 240 l 381 308 l 326 340 q 304 297 307 322 q 301 256 301 272 m 349 365 l 356 396 q 375 383 369 389 q 374 371 374 381 l 374 368 q 373 365 374 367 q 368 351 372 363 l 376 344 q 386 343 378 343 l 399 343 q 399 339 399 340 q 400 335 400 338 q 401 319 401 329 l 401 253 q 387 218 401 225 q 325 211 372 211 l 319 211 l 311 208 q 262 242 281 215 q 243 297 243 268 q 244 322 243 308 q 248 351 244 336 q 260 379 251 365 q 283 403 268 393 l 349 365 m 486 539 l 431 519 l 301 581 l 281 618 q 275 624 279 619 q 267 636 271 629 q 254 651 260 643 q 249 668 249 660 q 263 706 249 690 q 306 726 278 722 q 313 725 307 725 l 344 725 q 403 717 369 725 q 469 676 438 708 l 610 731 q 581 808 603 776 q 526 860 558 840 q 456 890 494 881 q 381 900 418 900 q 365 895 376 896 q 339 893 353 894 q 317 890 328 892 q 301 883 307 889 q 293 899 293 889 q 288 911 293 906 q 203 891 244 911 q 128 838 161 871 q 74 765 94 806 q 54 683 54 725 q 60 621 54 644 q 74 582 65 597 q 96 558 83 567 q 121 542 108 550 q 136 531 128 536 q 154 517 144 525 q 140 510 147 514 q 125 504 132 507 q 80 481 100 493 q 46 447 60 469 q 25 385 32 424 q 18 282 18 347 l 18 274 q 35 174 18 221 q 83 90 53 126 q 154 33 114 54 q 240 13 194 13 q 253 13 247 13 q 267 14 260 13 l 260 -24 l 400 7 q 409 8 404 7 q 418 8 414 8 q 478 16 450 10 q 529 49 506 22 q 572 131 553 75 q 604 289 590 186 q 606 303 606 296 q 607 318 607 310 q 606 333 607 325 q 606 347 606 340 q 653 343 631 343 q 665 344 665 343 l 692 454 l 667 489 q 677 499 672 489 q 685 521 682 510 q 687 527 686 524 q 689 533 688 531 l 664 542 l 486 539 m 669 563 l 707 551 l 703 544 l 740 508 l 729 488 l 743 476 q 731 444 739 457 l 751 418 l 724 300 q 694 285 719 285 q 679 285 688 285 q 665 286 672 285 l 665 276 q 665 259 665 265 q 663 246 664 253 q 628 79 647 138 q 583 -8 608 21 q 526 -42 557 -36 q 460 -50 496 -49 q 456 -51 457 -50 q 451 -51 454 -51 l 444 -51 l 281 -87 l 242 -49 l 233 -51 l 235 -40 q 128 21 174 -25 l 119 29 q 31 130 64 65 q -3 274 -3 194 l -3 282 q 4 390 -3 349 q 25 455 11 431 q 60 493 39 479 q 107 519 81 507 l 97 528 q 73 547 85 536 q 52 576 61 558 q 38 619 43 593 q 33 683 33 644 q 56 774 33 729 q 117 853 79 818 q 201 910 154 889 q 297 932 249 932 q 305 920 301 925 q 311 910 308 915 q 329 913 322 913 q 333 913 332 913 q 338 914 335 914 l 346 914 q 359 917 353 915 q 371 921 365 918 q 497 897 435 921 q 596 817 560 872 l 608 804 l 610 804 q 669 679 657 757 l 507 615 l 503 618 q 439 658 469 650 q 386 667 408 667 l 343 667 q 307 626 307 657 q 311 619 307 624 q 321 607 315 614 l 322 606 q 328 596 325 600 q 335 588 332 592 l 333 588 l 431 542 l 485 560 l 669 563 z "},"'":{"ha":301,"x_min":0,"x_max":293,"o":"m 111 1006 q 119 997 119 1006 q 119 985 119 994 q 117 967 118 976 q 113 949 115 957 q 108 940 111 940 q 105 957 106 940 q 104 985 104 974 l 104 997 q 111 1006 104 1006 m 61 985 q 62 977 61 981 q 63 971 63 974 l 63 950 q 62 942 63 946 q 61 935 61 938 l 61 914 q 59 888 61 904 q 53 872 57 872 l 43 872 l 43 882 l 51 1003 l 61 1013 l 61 985 m 26 917 l 26 900 q 27 884 26 893 q 28 864 28 875 q 29 842 28 853 q 32 822 31 832 q 33 811 33 815 q 33 804 33 807 q 35 803 33 804 q 38 801 36 803 l 36 801 q 42 799 39 801 l 40 799 q 44 797 43 797 q 50 799 47 797 q 54 774 50 788 q 64 749 58 761 q 74 714 71 731 l 99 714 q 101 730 99 718 q 106 754 103 742 q 115 776 110 767 q 126 786 119 786 q 133 769 133 786 q 133 750 133 761 q 132 726 133 739 q 131 703 132 715 q 131 685 131 692 q 132 674 131 676 q 166 734 149 700 q 198 807 183 768 q 223 888 213 846 q 235 975 233 931 q 208 1009 226 997 q 167 1026 190 1021 q 121 1033 144 1032 q 79 1035 97 1035 l 57 1035 q 32 1032 43 1035 q 21 1014 21 1029 l 21 1010 l 26 917 m 0 1010 l 0 1014 q 5 1038 0 1029 q 18 1050 10 1046 q 37 1055 26 1054 q 57 1056 47 1056 l 79 1056 q 121 1054 97 1056 q 168 1047 144 1053 q 213 1028 192 1040 q 247 992 235 1015 l 247 993 l 271 971 q 293 933 285 957 q 280 842 292 888 q 251 755 268 797 q 213 674 233 713 q 175 606 193 636 l 165 614 l 136 643 l 136 639 l 131 644 q 121 656 124 651 l 97 656 l 61 693 l 53 693 q 50 723 53 713 q 44 742 47 733 q 31 781 35 760 q 29 782 29 781 l 28 782 q 22 787 24 785 q 13 799 19 789 q 13 807 13 801 q 11 819 13 813 q 10 823 11 822 q 10 825 10 824 l 10 829 q 8 844 8 836 q 7 864 7 851 q 6 869 7 867 q 6 874 6 871 l 6 915 l 0 1010 z "},"(":{"ha":485,"x_min":-11,"x_max":482,"o":"m 211 146 q 213 178 211 163 q 221 217 214 194 l 231 207 l 231 108 l 221 100 l 211 108 l 211 146 m 58 531 q 59 538 58 533 q 60 546 60 542 l 60 560 l 69 549 l 68 549 q 72 539 69 549 q 75 516 74 529 q 77 489 76 503 q 78 467 78 475 l 78 450 q 78 444 78 447 q 79 439 79 442 l 79 419 q 78 413 79 415 q 78 407 78 410 l 78 383 q 60 415 64 397 q 57 454 57 433 q 58 471 57 463 q 58 486 58 479 l 58 531 m 56 -50 q 69 -42 60 -46 q 89 -37 79 -37 l 96 -40 q 105 -47 100 -43 q 107 -49 110 -50 q 118 -51 110 -51 l 404 -51 q 415 -40 411 -51 q 419 -21 419 -28 q 418 -15 419 -17 l 407 -15 q 369 -12 392 -15 q 339 7 347 -8 l 386 7 l 386 108 q 402 128 393 115 q 411 151 411 140 l 410 153 q 399 160 407 156 q 388 164 390 164 l 260 164 l 283 857 q 293 894 283 879 q 304 896 300 896 q 314 896 310 896 q 333 894 325 896 q 349 892 342 893 q 368 889 363 889 q 385 892 375 889 q 410 907 394 896 q 397 917 400 914 q 393 924 394 921 q 386 933 390 931 q 361 939 382 936 l 369 971 l 400 971 q 415 977 410 971 q 419 1007 419 983 q 417 1022 419 1013 q 410 1042 414 1032 q 401 1059 406 1051 q 392 1068 396 1067 q 387 1060 390 1068 q 379 1046 383 1053 q 374 1038 375 1039 q 372 1035 374 1038 l 369 1035 q 372 1042 369 1038 q 378 1053 375 1046 q 391 1081 385 1064 q 397 1108 397 1097 q 394 1117 397 1111 l 306 1117 q 272 1115 282 1117 q 253 1110 261 1113 q 234 1105 244 1107 q 201 1103 224 1103 q 133 1107 167 1103 q 101 1110 118 1108 q 68 1111 85 1111 l 31 1111 l 10 1067 l 49 -46 l 49 -44 l 56 -50 m 28 -56 l -11 1071 l 18 1132 l 68 1132 q 91 1131 79 1132 q 114 1129 103 1131 q 119 1128 117 1129 q 124 1128 121 1128 l 135 1128 q 201 1124 168 1124 q 227 1125 217 1124 q 244 1129 238 1126 l 246 1129 q 269 1135 257 1133 q 306 1138 281 1138 l 408 1138 q 409 1135 408 1136 q 410 1133 410 1135 q 413 1127 411 1131 q 414 1124 414 1124 l 446 1093 q 452 1079 449 1086 q 456 1067 456 1072 q 449 1033 456 1051 q 468 999 458 1021 q 478 965 478 976 q 469 922 478 931 q 442 914 461 914 l 438 914 l 447 907 l 443 903 l 482 865 q 438 838 454 844 q 410 831 422 831 q 397 831 403 831 q 386 833 392 832 q 382 834 383 833 q 378 835 381 835 q 365 837 371 836 q 356 838 360 838 l 344 838 q 342 815 342 824 l 319 185 l 388 185 q 406 178 392 185 q 425 168 421 172 q 432 156 432 158 l 464 124 q 469 118 468 119 q 469 110 469 117 q 461 81 469 94 q 444 58 453 68 l 444 -14 l 469 -39 q 477 -54 476 -51 q 478 -62 478 -57 q 470 -92 478 -74 q 446 -110 463 -110 l 158 -110 q 133 -101 143 -110 l 132 -100 l 125 -96 q 110 -105 118 -99 q 99 -115 101 -111 l 74 -96 l 56 -78 l 28 -56 z "},")":{"ha":485,"x_min":-12,"x_max":481,"o":"m 38 856 q 81 829 65 836 q 108 822 96 822 q 119 823 115 822 q 129 825 124 824 l 131 825 l 154 208 l 49 208 q 30 202 44 208 q 11 192 15 196 q 5 184 6 186 q 4 175 4 182 q 24 128 4 151 l 10 99 l 25 60 q 19 51 22 56 q 10 38 15 46 q 8 36 8 36 q 8 35 10 36 q -3 12 -1 15 q -4 3 -4 8 q 3 -27 -4 -8 q 28 -49 11 -46 l 26 -49 l 57 -79 q 74 -86 64 -86 l 360 -86 q 385 -78 375 -86 l 392 -72 q 407 -80 399 -74 q 421 -92 415 -86 l 446 -72 l 481 1035 l 443 1072 l 443 1078 l 382 1135 l 365 1135 q 340 1134 353 1135 q 317 1132 328 1133 q 311 1131 314 1132 q 306 1131 308 1131 l 296 1131 q 231 1126 263 1126 q 205 1128 215 1126 q 188 1132 194 1129 l 186 1132 q 163 1138 175 1136 q 126 1140 151 1140 l 108 1140 q 99 1141 106 1140 q 86 1143 93 1142 q 72 1145 79 1144 q 60 1146 65 1146 q 40 1138 47 1146 q 33 1124 33 1131 q 34 1115 33 1117 q 40 1107 35 1113 l 57 1085 q 43 1089 49 1088 l 47 1093 l 46 1096 q 40 1092 43 1093 q 35 1089 36 1090 q 21 1072 25 1086 l 21 1074 q 1 1040 10 1058 q -8 1010 -8 1021 q -6 963 -8 978 q 7 942 -4 949 q 0 926 0 935 q 6 911 0 918 q -3 905 3 908 q -12 899 -8 901 q 1 888 -6 892 q 11 881 7 883 l 38 856 m 349 -14 l 342 -17 q 332 -23 338 -19 q 329 -25 326 -26 q 318 -28 326 -28 l 32 -28 q 21 -16 25 -28 q 17 3 17 -4 q 18 10 17 7 l 18 8 q 32 31 26 22 q 40 43 38 39 q 46 49 43 47 q 53 51 49 50 l 32 97 l 50 132 q 34 151 43 139 q 25 175 25 164 l 26 176 q 38 183 29 179 q 49 188 46 188 l 176 188 l 151 849 q 142 886 151 871 q 129 888 135 888 q 122 888 125 888 q 103 886 111 888 q 88 883 94 885 q 67 881 74 881 q 49 884 58 881 q 24 899 39 888 q 35 913 35 906 q 29 922 35 919 l 21 926 q 38 931 21 929 l 46 956 q 17 965 22 957 q 13 1010 13 974 q 16 1025 13 1015 q 24 1044 19 1035 q 33 1062 28 1054 q 42 1071 38 1069 q 60 1063 42 1072 q 99 1042 79 1053 q 116 1033 113 1035 q 131 1025 119 1031 l 132 1028 l 56 1122 l 54 1124 q 56 1124 54 1124 q 60 1125 57 1125 q 71 1124 64 1125 q 85 1122 78 1124 q 98 1120 92 1121 q 108 1119 104 1119 l 126 1119 q 160 1117 150 1119 q 179 1113 171 1115 q 198 1108 188 1110 q 231 1106 208 1106 q 297 1110 264 1106 q 331 1113 314 1111 q 365 1114 347 1114 l 372 1114 l 422 1068 l 388 -21 l 381 -26 q 367 -18 376 -22 q 349 -14 358 -14 m 203 675 q 202 681 203 678 q 201 689 201 685 l 201 718 l 192 707 q 188 696 189 706 q 185 673 186 686 q 184 647 185 660 q 183 625 183 633 l 183 621 q 183 614 183 617 q 182 608 182 611 l 182 565 q 183 560 182 563 q 183 554 183 557 l 183 542 q 201 574 197 556 q 204 613 204 592 q 203 629 204 621 q 203 644 203 638 l 203 675 m 349 92 l 349 129 q 347 162 349 146 q 339 200 346 178 l 329 190 l 329 92 l 339 83 l 349 92 m 82 75 q 79 82 82 82 l 76 85 l 74 82 l 82 75 z "},"*":{"ha":396,"x_min":-14,"x_max":394,"o":"m 211 831 q 228 821 217 829 q 242 811 238 811 l 244 811 q 257 814 253 814 q 274 818 267 817 q 289 826 282 819 q 293 832 293 831 q 292 833 293 832 q 290 833 292 833 q 284 842 288 836 q 281 854 281 847 q 285 867 281 860 q 290 869 288 868 q 296 869 292 869 q 299 869 299 869 q 301 868 300 868 q 303 867 303 868 q 304 867 304 867 q 312 869 307 867 q 328 883 317 872 l 269 938 q 261 943 265 938 q 256 949 258 947 q 253 953 254 951 q 250 957 250 953 l 261 968 l 289 993 q 292 1003 289 999 q 299 1011 296 1007 q 307 1029 307 1022 q 301 1056 304 1044 q 290 1076 297 1068 l 292 1076 q 283 1079 286 1079 l 282 1079 q 275 1072 279 1076 q 264 1068 271 1068 q 251 1074 257 1068 q 250 1081 250 1075 q 258 1097 250 1089 q 265 1110 265 1104 q 254 1131 265 1115 l 183 1056 l 165 1036 l 119 1085 l 90 1104 l 92 1104 q 85 1106 89 1106 q 69 1097 75 1106 q 61 1082 61 1089 q 76 1060 61 1069 l 69 1053 q 62 1059 67 1056 q 53 1063 57 1063 q 43 1058 47 1063 q 55 1040 46 1053 q 65 1028 64 1028 l 65 1025 q 64 1024 64 1025 q 63 1024 64 1024 q 51 1028 58 1024 q 39 1035 44 1032 q 32 1036 38 1036 l 31 1036 q 26 1031 28 1036 l 21 1026 l 90 956 q 69 929 79 940 q 51 911 58 918 q 46 904 47 906 q 42 900 44 903 l 24 869 q 22 865 22 868 q 24 855 22 860 q 29 847 26 850 q 43 839 38 839 q 52 842 47 839 q 63 850 57 846 q 66 853 64 851 q 69 856 68 854 l 69 847 q 67 839 67 844 q 74 819 67 826 q 74 820 74 819 q 76 821 75 821 l 85 831 l 94 840 l 94 839 l 96 842 l 99 842 q 93 825 99 839 q 89 816 90 819 q 88 810 88 813 l 89 808 q 94 801 89 803 l 97 797 l 171 875 l 186 860 l 211 831 m 318 919 l 358 883 l 356 881 l 394 842 q 363 815 374 821 q 346 808 351 808 l 343 808 q 340 810 340 808 l 338 810 q 339 807 338 807 l 340 806 l 340 807 l 344 803 q 350 790 350 797 q 342 772 350 781 q 324 760 332 763 q 306 757 317 758 q 303 756 304 757 q 301 756 303 756 q 286 753 294 756 l 283 753 q 268 756 272 753 q 258 765 264 758 l 260 765 q 258 766 258 765 q 256 767 257 767 q 250 771 253 769 q 243 772 247 772 l 210 806 l 136 731 l 99 768 l 96 765 l 81 781 q 57 794 68 781 l 31 819 q 13 833 22 821 q 5 848 8 839 q 1 865 1 857 q 4 881 1 876 l 4 879 l 22 911 q 29 918 28 917 q 35 925 31 919 l 39 929 q 41 932 40 931 q 44 936 42 933 q 48 940 47 939 q 51 944 49 942 l 61 954 l -14 1032 l 15 1051 q 25 1057 18 1054 q 22 1068 22 1061 q 30 1074 25 1071 q 40 1079 35 1076 l 40 1082 q 51 1110 40 1099 l 51 1108 q 64 1121 54 1115 q 85 1126 74 1126 q 91 1125 88 1126 q 108 1117 94 1124 l 133 1101 l 165 1068 l 168 1071 l 256 1163 q 266 1149 261 1156 q 275 1138 271 1143 l 299 1114 q 322 1069 321 1083 l 344 1047 q 358 1024 353 1038 q 365 990 363 1010 q 362 972 365 978 q 354 961 358 965 l 353 960 l 353 961 q 352 959 353 960 q 351 957 351 958 q 347 951 349 954 q 346 944 346 949 l 318 919 z "},"+":{"ha":576,"x_min":-17,"x_max":590,"o":"m 99 488 l 97 488 l 97 486 l 96 488 l 97 488 l 97 489 l 99 489 l 99 488 m 428 425 l 418 417 l 408 425 l 428 461 l 436 469 q 443 449 440 453 q 445 444 444 446 q 446 439 446 443 l 446 425 l 428 425 m 242 319 l 231 300 l 222 293 l 213 301 l 246 390 l 253 350 l 253 351 q 254 346 254 350 q 253 340 254 343 q 250 335 251 338 q 247 328 247 329 q 250 319 249 322 l 250 303 l 247 303 l 242 319 m 185 539 l 171 539 l 163 528 l 69 528 q 66 521 68 525 q 61 515 64 517 q 46 513 60 515 q 28 508 36 510 q 14 507 19 507 q 22 484 14 492 q 40 472 29 476 q 65 467 51 468 q 92 467 79 467 q 126 461 115 467 l 54 449 q 46 433 54 433 q 39 436 44 433 q 25 439 31 439 l 22 419 q 18 396 19 401 l 26 396 q 47 399 36 396 q 57 400 51 400 q 63 396 63 400 q 57 381 63 390 l 64 374 q 83 372 74 372 q 106 372 94 372 q 141 372 122 372 q 182 367 160 371 l 182 360 l 193 351 l 193 257 q 200 253 196 256 q 206 249 204 251 q 208 233 206 247 q 213 215 211 224 q 214 201 214 207 q 242 204 236 201 q 247 214 247 207 l 247 221 q 246 232 246 224 q 247 238 246 235 q 250 247 247 240 l 271 242 q 286 235 286 242 q 285 226 286 229 q 282 213 282 218 q 288 203 282 207 q 288 208 288 206 q 289 213 289 210 q 288 226 289 219 q 286 240 288 233 q 285 254 285 247 q 285 267 285 261 q 292 285 285 281 l 342 244 l 349 251 l 349 303 q 350 338 349 319 q 357 375 351 356 l 357 379 q 353 393 357 389 l 371 393 q 381 381 371 386 q 404 372 390 375 q 433 368 418 369 q 460 367 449 367 l 475 367 l 499 447 l 474 482 q 484 492 479 482 q 492 514 489 503 q 494 524 493 519 q 499 529 496 529 l 503 533 l 331 536 q 330 541 331 539 q 329 546 329 543 q 328 554 328 549 q 331 558 328 558 q 341 568 336 558 q 349 592 346 578 q 354 622 353 606 q 356 649 356 638 l 356 664 l 272 688 l 239 663 q 228 673 239 668 q 207 681 218 678 q 194 686 197 683 l 186 647 l 185 539 m 160 560 l 164 560 l 165 651 l 175 701 l 193 690 q 196 694 193 692 l 194 689 l 201 686 l 206 690 l 206 703 q 210 701 208 701 q 214 700 211 701 q 226 694 219 697 q 239 689 233 692 l 268 710 l 364 685 l 364 683 q 375 669 372 681 l 410 636 q 414 607 414 632 q 407 554 414 585 l 561 554 l 551 546 l 590 507 l 547 472 l 550 469 q 538 438 546 450 l 558 413 l 533 321 q 524 310 531 311 q 501 308 517 308 q 458 312 483 308 q 414 326 432 315 q 408 291 410 307 q 407 261 407 275 l 407 201 l 385 179 l 343 211 q 344 200 343 204 q 347 185 346 193 q 347 171 347 178 q 344 162 347 171 q 338 144 340 153 q 334 138 336 142 q 333 136 332 135 q 325 142 329 139 q 317 149 321 144 l 304 160 q 292 147 301 150 q 256 143 282 143 l 239 143 l 201 181 l 193 181 q 192 208 193 196 q 188 229 190 219 l 181 236 l 172 236 l 172 313 q 158 314 165 314 q 147 314 151 314 q 119 314 132 314 q 97 315 108 314 l 75 338 l 68 338 q 58 339 65 338 q 32 350 51 340 l 0 381 q -3 383 -3 383 q -6 385 -4 383 l -17 390 q -3 408 -6 401 q 1 421 0 414 l 1 432 q 1 434 1 433 q 0 436 0 435 l 0 440 q 15 458 0 457 q -1 476 4 465 q -7 507 -7 488 l -7 528 q 20 529 8 528 q 42 533 32 531 q 47 535 44 533 l 49 536 l 49 549 l 151 549 l 160 560 z "},",":{"ha":301,"x_min":-3,"x_max":290,"o":"m 108 183 q 117 175 117 183 q 116 163 117 172 q 114 144 115 154 q 110 126 113 135 q 106 118 108 118 q 102 135 103 118 q 101 163 101 151 l 101 175 q 108 183 101 183 m 58 163 q 59 155 58 158 q 60 149 60 151 l 60 128 q 59 119 60 124 q 58 113 58 115 l 58 93 q 56 67 58 83 q 50 51 54 51 l 40 51 l 40 61 l 49 181 l 58 192 l 58 163 m 24 96 l 24 79 q 24 63 24 72 q 25 43 25 54 q 26 22 25 32 q 29 1 28 11 q 31 -10 31 -6 q 31 -17 31 -14 q 32 -17 31 -17 q 35 -19 33 -18 l 33 -19 q 39 -22 36 -19 l 38 -22 q 42 -24 40 -24 q 47 -22 44 -24 q 51 -48 47 -35 q 61 -74 56 -61 q 67 -92 65 -83 q 71 -108 69 -101 l 96 -108 q 98 -92 96 -104 q 103 -67 100 -81 q 112 -44 107 -54 q 124 -35 117 -35 q 131 -53 131 -35 q 131 -72 131 -61 q 129 -96 131 -83 q 128 -118 129 -107 q 128 -136 128 -129 q 129 -146 128 -143 q 163 -86 146 -119 q 195 -15 181 -53 q 220 66 210 24 q 232 153 231 108 q 206 188 224 175 q 165 206 188 200 q 118 213 142 211 q 76 214 94 214 l 54 214 q 29 211 40 214 q 18 193 18 208 l 18 189 l 24 96 m -3 188 l -3 193 q 2 217 -3 208 q 15 229 7 225 q 34 234 24 233 q 54 235 44 235 l 76 235 q 118 233 94 235 q 165 226 142 232 q 210 206 189 219 q 244 169 232 193 l 244 171 l 268 149 q 290 113 281 136 q 277 22 289 67 q 248 -66 265 -24 q 210 -147 231 -108 q 172 -215 190 -185 l 133 -176 l 133 -178 l 133 -182 q 125 -173 129 -178 q 118 -165 121 -168 l 94 -165 l 58 -128 l 50 -128 q 47 -99 50 -110 q 42 -81 44 -89 q 34 -62 38 -71 q 28 -42 31 -53 l 26 -40 l 25 -40 q 19 -34 21 -36 q 10 -22 17 -32 q 10 -14 10 -19 q 8 -1 10 -8 q 8 2 8 1 q 7 4 7 3 l 7 8 q 5 23 6 15 q 4 43 4 31 q 3 48 4 46 q 3 53 3 50 l 3 94 l -3 188 z "},"-":{"ha":464,"x_min":-10,"x_max":478,"o":"m 449 564 l 169 563 l 160 551 l 58 551 l 58 539 l 57 538 l 57 536 l 54 536 l 51 536 q 30 532 42 533 q 3 531 18 531 l 3 510 q 39 457 3 468 l 38 457 l 42 453 q 39 445 40 446 q 35 443 38 444 q 16 431 25 439 q -10 406 7 424 q -4 403 -10 406 q 4 399 1 400 q 8 397 7 397 q 11 394 8 396 l 10 394 l 42 361 q 39 350 42 358 l 61 329 q 65 328 63 328 l 67 328 l 104 292 q 126 290 115 290 q 153 290 138 290 l 172 290 q 200 289 186 290 q 232 283 214 288 l 236 283 q 255 290 243 283 q 279 306 267 297 q 281 309 281 307 q 282 322 282 311 l 286 318 q 306 306 293 311 q 333 298 318 301 q 361 293 347 294 q 385 292 375 292 q 408 293 400 292 q 417 306 415 294 l 444 422 l 424 449 q 436 481 432 461 l 433 482 l 478 517 l 439 556 l 449 564 m 385 539 q 378 524 379 533 q 370 502 375 513 q 361 492 365 492 l 385 458 l 360 350 l 344 350 q 317 351 333 350 q 288 356 301 353 q 264 363 274 358 q 254 374 254 367 q 246 373 254 378 q 226 360 238 368 q 206 347 215 353 q 194 342 197 342 l 193 342 q 160 347 175 346 q 131 349 146 349 l 113 349 q 90 349 101 349 q 71 350 81 349 l 63 356 q 67 369 67 367 q 68 372 68 371 l 68 375 q 69 386 68 383 q 56 397 64 394 q 40 403 49 400 q 31 406 36 404 q 22 410 25 408 q 42 424 32 419 q 56 432 50 426 q 64 453 63 438 l 135 465 q 101 471 124 471 q 75 472 89 471 q 50 476 61 472 q 31 488 39 481 q 24 510 24 496 q 38 511 29 510 q 56 515 46 513 q 71 518 69 518 q 76 524 74 519 q 79 531 78 528 l 172 531 l 181 542 l 389 543 l 385 539 m 329 407 l 329 426 q 330 434 329 431 q 331 442 331 438 q 322 481 331 456 l 314 472 l 292 407 l 301 399 l 311 407 l 329 407 m 107 490 l 108 490 l 108 492 l 107 492 l 107 490 l 106 490 l 107 490 z "},".":{"ha":308,"x_min":-3,"x_max":297,"o":"m 108 183 q 117 175 117 183 q 116 163 117 172 q 114 144 115 154 q 110 126 113 135 q 106 118 108 118 q 102 135 103 118 q 101 163 101 151 l 101 175 q 108 183 101 183 m 165 125 q 166 117 165 121 q 167 111 167 114 l 167 90 q 166 83 167 88 q 165 76 165 79 l 165 56 q 162 30 165 46 q 156 14 158 14 l 147 14 l 147 24 l 154 143 l 165 154 l 165 125 m 24 94 l 24 79 q 24 63 24 72 q 25 43 25 54 q 24 23 25 32 q 24 7 24 14 l 24 -8 q 25 -9 24 -8 q 28 -11 26 -10 l 26 -11 q 32 -14 29 -11 l 31 -14 q 35 -15 33 -15 q 39 -14 36 -15 l 38 -14 l 61 10 q 72 0 71 10 q 75 -17 74 -3 q 78 -39 76 -31 l 92 -39 q 92 -28 92 -35 q 96 -14 93 -21 q 103 -2 99 -7 q 114 3 107 3 q 133 -8 124 3 q 153 -31 143 -18 q 171 -53 161 -43 q 194 16 183 -11 q 211 63 204 43 q 222 94 217 79 q 230 124 226 108 q 235 160 233 140 q 239 208 238 179 q 153 222 206 222 l 53 222 q 28 216 39 222 q 18 193 18 210 l 18 189 l 24 94 m -3 188 l -3 193 q 14 233 -3 222 q 53 243 31 243 l 153 243 q 260 224 211 243 l 260 217 l 297 179 q 294 121 296 144 q 288 80 292 97 q 279 47 285 63 q 267 14 274 32 l 264 14 q 244 -45 256 -8 q 222 -122 233 -82 q 208 -109 215 -115 q 194 -96 201 -103 l 185 -87 l 185 -90 q 151 -61 165 -74 q 150 -81 150 -69 q 150 -96 150 -93 l 103 -96 l 78 -72 q 75 -74 76 -74 q 75 -74 75 -74 q 72 -73 72 -74 q 64 -69 71 -72 l 61 -69 l 26 -36 q 21 -32 24 -33 l 18 -32 q 12 -26 14 -28 q 3 -14 10 -24 l 3 32 q 3 38 3 35 q 4 43 4 40 q 3 48 4 46 q 3 53 3 50 l 3 93 l -3 188 z "},"/":{"ha":708,"x_min":-10,"x_max":703,"o":"m 38 -93 q 65 -69 53 -79 q 88 -56 78 -58 l 100 -68 l 118 -68 q 119 -75 118 -74 l 161 -117 q 166 -112 163 -119 q 174 -89 169 -104 l 163 -78 l 163 -44 q 177 -44 174 -44 q 189 -39 181 -43 l 190 -37 q 192 -36 192 -36 q 194 -35 193 -36 l 201 -28 q 208 -15 201 -22 q 210 -12 210 -14 q 211 -11 210 -12 q 228 13 219 0 q 236 42 236 26 q 241 50 236 46 q 251 58 246 54 q 251 58 251 58 q 253 60 253 58 q 261 67 257 63 q 268 78 265 71 l 268 76 l 372 217 l 526 425 l 700 822 q 703 835 703 828 q 697 854 703 849 l 664 886 l 664 885 q 632 907 660 907 l 628 907 q 615 904 624 907 l 607 913 l 600 919 l 592 926 q 577 931 579 931 q 572 932 575 932 q 558 931 565 932 q 544 924 551 929 l 543 924 q 531 928 536 924 q 524 929 525 928 q 506 932 513 932 q 486 928 494 932 q 472 921 478 925 q 463 915 464 915 l 457 915 l 407 924 l 393 924 q 385 926 390 924 l 308 763 q 245 611 285 694 q 161 440 206 528 l 149 415 q 69 256 108 336 q -3 93 31 176 q -7 57 -7 72 l -7 1 q -8 -7 -7 -3 l -8 -25 q -9 -37 -8 -31 q -10 -50 -10 -43 l -10 -62 l -1 -54 l 38 -93 m 472 479 l 472 481 l 317 268 l 211 126 q 200 115 211 124 q 185 102 193 110 q 178 83 178 94 q 169 61 178 74 q 154 38 161 49 q 144 21 144 25 l 144 22 q 142 21 143 21 l 136 15 l 138 15 q 135 14 136 14 q 135 14 135 14 q 132 14 135 21 q 118 -32 129 7 q 115 -16 117 -29 q 111 11 114 -3 q 107 39 108 38 q 96 29 97 39 q 92 13 94 26 q 89 -10 89 -1 l 75 -10 q 71 0 75 -3 q 53 3 67 3 q 11 -12 31 3 q 13 -8 13 -11 q 14 1 14 -4 l 14 57 q 18 90 14 69 q 86 243 47 164 q 167 406 125 322 q 254 586 211 497 q 325 751 297 675 l 396 904 q 398 903 397 904 q 400 903 399 903 l 404 903 l 454 894 l 463 894 q 474 897 469 894 q 485 903 479 900 q 504 911 493 910 q 510 909 501 910 q 525 907 519 908 q 544 903 533 903 q 550 905 544 903 q 560 908 556 907 q 572 911 565 911 q 581 910 576 911 l 579 910 l 585 904 q 601 890 592 899 q 613 876 610 882 q 628 886 622 886 l 632 886 q 644 876 644 886 q 643 869 644 872 l 472 479 m 442 717 q 442 733 442 721 q 444 758 443 744 q 447 782 446 771 q 450 797 449 793 q 454 813 450 801 q 457 825 456 818 q 458 829 458 832 q 452 838 458 836 q 442 839 446 839 l 440 839 q 435 831 435 839 q 433 825 433 828 q 432 817 433 824 l 432 808 q 431 801 432 804 q 431 796 431 799 l 431 778 q 429 753 431 760 q 428 733 428 746 q 428 722 428 728 q 433 708 429 717 l 442 717 m 165 199 q 163 194 165 199 q 157 186 160 190 q 150 172 153 181 l 140 154 q 138 149 139 151 q 136 144 138 147 q 135 139 135 142 q 129 131 135 138 l 125 124 q 124 121 125 122 q 124 118 124 119 q 117 98 121 111 q 113 83 114 85 q 114 82 113 82 l 122 76 l 126 86 l 175 196 l 171 211 l 165 199 m 361 668 q 353 660 353 668 q 360 643 353 657 q 375 613 367 629 q 391 583 383 596 q 400 569 399 569 l 400 572 q 394 592 400 576 q 382 624 389 607 l 368 660 q 361 668 368 668 z "},":":{"ha":301,"x_min":-3,"x_max":293,"o":"m 68 503 q 75 494 75 503 l 75 478 q 71 467 75 467 q 64 478 68 467 q 60 494 60 490 q 68 503 60 503 m 108 185 q 117 176 117 185 q 116 165 117 174 q 114 146 115 156 q 110 128 113 136 q 106 119 108 119 q 102 136 103 119 q 101 164 101 153 l 101 176 q 108 185 101 185 m 154 133 q 155 126 154 129 q 156 119 156 122 l 156 99 q 155 90 156 94 q 154 83 154 86 l 154 63 q 152 37 154 53 q 146 21 150 21 l 136 21 l 136 31 l 144 151 l 154 163 l 154 133 m 53 436 l 226 436 q 234 442 233 436 q 235 456 235 449 q 229 467 235 463 q 218 475 224 471 q 208 481 213 478 q 201 486 204 483 l 219 493 l 225 542 l 225 544 q 216 560 225 553 q 196 572 207 567 q 174 581 185 578 q 161 585 164 585 l 161 593 q 172 592 169 593 q 176 590 174 592 q 193 588 188 588 q 207 604 207 588 q 208 609 207 607 q 219 624 210 611 q 215 635 215 633 q 211 636 214 636 q 207 635 208 636 q 203 635 206 635 l 196 635 l 169 639 q 153 642 161 640 q 138 644 144 643 q 113 649 125 647 q 88 651 101 651 q 53 647 71 651 l 54 647 l 22 599 l 22 556 q 23 540 22 549 q 24 525 24 532 q 24 510 24 514 q 25 499 24 507 l 53 436 m 24 96 l 24 79 q 24 63 24 72 q 25 43 25 54 q 24 23 25 32 q 24 7 24 14 l 24 -8 q 25 -9 24 -8 q 28 -11 26 -10 q 32 -14 29 -11 l 31 -14 q 35 -15 33 -15 q 39 -14 36 -15 l 38 -14 l 61 10 q 72 0 71 10 q 75 -17 74 -3 q 78 -39 76 -31 l 92 -39 q 92 -28 92 -35 q 96 -14 93 -21 q 103 -2 99 -7 q 114 3 107 3 q 133 -8 124 3 q 150 -31 142 -19 q 160 -44 154 -39 q 182 24 172 -3 q 200 71 192 50 q 212 102 207 88 q 220 133 217 117 q 226 168 224 149 q 229 215 228 188 q 194 224 211 222 q 160 226 176 226 q 135 226 147 226 q 113 224 124 225 q 92 222 101 222 q 74 222 82 222 l 53 222 q 28 216 39 222 q 18 194 18 210 l 18 190 l 24 96 m 6 489 q 3 492 3 489 l 3 532 q 2 536 3 535 q 1 540 1 538 l 1 604 l 43 667 q 88 672 65 672 q 118 670 106 672 q 143 665 131 668 q 154 663 151 663 q 163 661 157 661 q 167 660 165 661 q 172 660 169 660 l 199 656 l 207 656 q 211 657 208 657 q 225 655 222 657 q 233 638 228 653 l 233 639 l 265 608 q 278 581 267 607 q 267 565 268 567 q 264 561 265 563 q 257 539 264 549 l 272 525 q 283 503 283 514 l 283 499 l 275 443 l 283 435 q 293 414 293 425 q 290 390 293 401 q 268 378 288 378 l 83 378 l 47 415 l 40 415 l 6 489 m -3 189 l -3 194 q 14 233 -3 222 q 53 243 31 243 l 74 243 q 90 243 82 243 q 111 244 100 243 q 134 247 122 246 q 160 247 146 247 q 201 244 179 247 q 250 231 222 240 l 250 224 l 288 188 q 284 130 286 153 q 278 89 282 107 q 268 56 274 71 q 256 24 263 42 q 237 -29 247 3 q 210 -119 226 -61 l 172 -82 q 172 -87 172 -82 l 150 -65 l 150 -78 l 150 -97 l 103 -97 l 78 -72 q 75 -74 76 -74 q 75 -74 75 -74 q 72 -73 72 -74 q 64 -69 71 -72 l 61 -69 l 26 -36 q 21 -32 24 -33 l 18 -32 q 12 -26 14 -28 q 3 -14 10 -24 l 3 32 q 3 38 3 35 q 4 43 4 40 q 3 48 4 46 q 3 53 3 50 l 3 94 l -3 189 z "},";":{"ha":301,"x_min":-3,"x_max":293,"o":"m 68 503 q 75 494 75 503 l 75 478 q 71 467 75 467 q 64 478 68 467 q 60 494 60 490 q 68 503 60 503 m 108 185 q 117 176 117 185 q 116 165 117 174 q 114 146 115 156 q 110 128 113 136 q 106 119 108 119 q 102 136 103 119 q 101 164 101 153 l 101 176 q 108 185 101 185 m 58 164 q 59 156 58 160 q 60 150 60 153 l 60 129 q 59 121 60 125 q 58 114 58 117 l 58 93 q 56 67 58 83 q 50 51 54 51 l 40 51 l 40 61 l 49 182 l 58 193 l 58 164 m 53 436 l 226 436 q 234 442 233 436 q 235 456 235 449 q 229 467 235 463 q 218 475 224 471 q 208 481 213 478 q 201 486 204 483 l 219 493 l 225 542 l 225 544 q 216 560 225 553 q 196 572 207 567 q 174 581 185 578 q 161 585 164 585 l 161 594 q 172 593 169 594 q 176 590 174 592 q 193 588 188 588 q 207 606 207 588 q 208 610 207 608 q 219 625 210 613 q 215 636 215 635 q 211 638 214 638 q 207 637 208 638 q 203 636 206 636 l 196 636 l 169 640 q 153 643 161 642 q 138 646 144 644 q 113 651 125 649 q 88 653 101 653 q 53 649 71 653 l 54 649 l 22 600 l 22 556 q 23 540 22 549 q 24 525 24 532 q 24 510 24 514 q 25 499 24 507 l 53 436 m 24 96 l 24 79 q 24 63 24 72 q 25 43 25 54 q 26 22 25 32 q 29 1 28 11 q 31 -15 31 -6 q 44 -33 38 -19 q 54 -53 51 -46 q 56 -60 54 -54 q 60 -74 57 -67 q 67 -99 63 -85 q 71 -110 71 -114 l 69 -108 l 96 -108 q 98 -92 96 -104 q 103 -67 100 -81 q 112 -44 107 -54 q 124 -35 117 -35 q 131 -53 131 -35 q 131 -72 131 -61 q 129 -96 131 -83 q 128 -119 129 -107 q 128 -137 128 -131 q 129 -147 128 -144 q 163 -87 146 -121 q 195 -14 181 -53 q 220 67 210 25 q 232 154 231 110 q 206 190 225 176 q 163 210 186 203 q 115 220 139 218 q 74 222 90 222 l 53 222 q 28 217 39 222 q 18 194 18 211 l 18 190 l 24 96 m 6 489 q 3 492 3 489 l 3 532 q 2 536 3 535 q 1 540 1 538 l 1 606 l 43 667 q 88 672 65 672 q 118 670 106 672 q 143 665 131 668 q 149 665 146 665 q 154 664 151 664 q 163 663 157 663 q 167 662 165 663 q 172 661 169 661 l 199 657 l 207 657 q 211 658 208 658 q 225 656 222 658 q 233 639 228 654 l 233 640 l 265 610 q 278 581 267 607 q 267 565 268 567 q 264 561 265 563 q 257 539 264 549 l 272 525 q 283 503 283 514 l 283 499 l 275 443 l 283 435 q 293 414 293 425 q 290 390 293 401 q 268 378 288 378 l 83 378 l 47 415 l 40 415 l 6 489 m -3 189 l -3 194 q 14 233 -3 222 q 53 243 31 243 l 74 243 q 116 240 92 243 q 165 229 140 238 q 213 206 190 221 q 247 168 235 192 l 247 169 l 267 150 q 290 113 279 138 q 277 21 289 67 q 249 -67 265 -25 q 211 -148 232 -110 q 172 -217 190 -186 l 133 -178 l 133 -179 l 133 -183 q 125 -174 129 -179 q 118 -167 121 -169 l 94 -167 l 58 -129 l 50 -129 q 49 -103 50 -110 q 44 -92 47 -96 q 43 -90 44 -90 q 43 -89 43 -90 q 39 -79 40 -83 q 38 -77 39 -78 q 38 -75 38 -76 q 33 -57 33 -65 q 25 -42 31 -50 q 10 -29 19 -33 q 10 -15 10 -22 q 8 -1 10 -8 q 8 2 8 1 q 7 4 7 3 l 7 8 q 5 23 6 15 q 4 43 4 31 q 3 48 4 46 q 3 53 3 50 l 3 94 l -3 189 z "},"<":{"ha":536,"x_min":-10,"x_max":525,"o":"m 246 588 q 254 579 254 588 q 247 563 254 576 q 232 533 240 549 q 216 503 224 517 q 207 490 208 490 l 207 493 q 213 513 207 497 q 225 543 218 528 l 239 579 q 246 588 239 588 m 314 199 q 315 197 313 201 q 319 189 318 192 q 324 181 322 185 q 329 172 326 176 l 339 154 q 350 132 343 140 l 354 122 q 362 103 357 115 q 367 86 367 92 q 365 82 367 82 l 358 76 l 356 81 l 304 196 l 310 211 l 314 199 m 29 550 l 29 551 l 13 515 q 12 513 13 514 q 11 511 11 513 q 19 497 11 504 q 35 482 26 490 q 47 469 42 475 q 51 457 51 463 l 51 456 q 47 421 47 436 q 64 370 47 389 q 108 324 81 351 q 134 299 121 313 q 163 268 147 286 l 267 126 q 278 115 267 124 q 292 102 285 110 q 300 83 300 94 q 308 60 300 72 q 325 38 317 49 q 331 28 328 32 q 336 22 335 25 l 343 15 l 342 15 q 344 14 343 14 q 347 14 344 21 q 360 -29 349 7 q 362 -17 361 -25 q 365 1 363 -8 q 369 25 368 14 q 372 39 369 36 q 383 29 383 39 q 387 13 385 26 q 390 -10 389 -1 l 403 -10 q 406 0 403 -3 q 425 3 410 3 q 448 -2 439 3 q 467 -14 457 -7 q 465 -6 465 -11 q 464 6 464 1 q 464 17 464 11 l 464 57 q 460 90 464 69 q 441 201 458 146 q 398 308 424 256 q 340 412 372 361 q 278 508 308 463 q 285 519 281 514 q 292 531 289 524 q 315 574 303 551 q 338 618 326 597 q 359 654 350 639 q 372 674 368 669 q 388 692 376 678 q 410 724 399 707 q 433 755 422 740 q 446 775 443 769 l 446 781 q 447 782 446 781 q 447 786 447 783 q 440 822 447 803 q 419 856 432 840 q 391 881 407 871 q 358 892 375 892 l 354 892 q 349 867 354 882 q 338 839 344 853 q 321 815 331 825 q 301 804 311 804 l 293 804 q 315 841 308 826 q 321 875 321 856 q 315 891 321 889 q 299 893 310 893 l 293 893 q 263 897 276 893 q 244 899 256 899 q 236 901 233 900 q 221 892 226 900 q 208 869 217 885 q 190 832 200 853 q 171 789 181 811 q 154 749 161 767 l 29 550 m 138 763 l 138 761 q 156 803 146 781 q 174 845 165 825 q 191 881 183 865 q 201 901 199 896 q 239 922 215 922 l 239 918 q 244 919 240 919 q 269 917 256 919 q 293 914 283 914 l 299 914 q 333 907 325 914 l 333 913 l 358 913 q 410 894 386 913 q 449 849 433 875 l 454 843 l 454 844 l 463 836 q 494 793 482 817 q 506 746 506 769 q 505 744 506 744 q 504 742 504 743 l 504 731 q 490 708 501 724 q 466 673 479 692 q 441 639 453 654 q 425 619 429 624 q 402 583 418 613 q 369 521 386 554 q 358 500 364 510 q 347 481 353 490 l 346 481 q 344 475 346 476 l 340 467 q 401 372 369 421 q 457 269 432 322 q 499 162 482 217 q 518 51 515 107 q 522 15 522 31 l 522 -25 q 522 -33 522 -29 q 524 -44 522 -37 l 524 -68 q 524 -85 524 -76 q 525 -94 525 -93 q 492 -67 507 -78 q 467 -56 476 -56 q 461 -68 461 -56 l 415 -68 q 409 -82 413 -75 q 401 -96 406 -89 q 397 -118 401 -122 l 356 -76 q 354 -71 354 -75 q 351 -61 354 -69 q 354 -57 351 -57 l 354 -21 l 339 -6 q 334 -3 336 -4 q 329 -1 332 -3 l 315 13 l 311 19 q 310 21 310 19 q 308 24 308 21 q 288 52 297 36 q 279 83 279 68 q 272 92 279 88 q 269 94 271 93 q 267 96 268 94 q 263 99 263 96 q 247 118 256 103 l 247 117 l 147 254 l 146 256 q 93 308 118 286 l 86 315 q 42 363 58 342 q 26 421 26 385 q 27 438 26 429 q 29 456 28 447 l 28 458 l 28 457 q 19 467 22 463 l 13 474 q -3 490 3 481 q -10 511 -10 499 l -10 517 q -8 518 -10 518 q -8 519 -8 518 l 14 567 l 138 763 z "},"=":{"ha":513,"x_min":-22,"x_max":551,"o":"m 499 374 l 551 408 l 514 446 l 529 456 l 472 453 l 492 519 l 482 528 q 499 530 489 529 q 525 531 510 531 l 488 567 l 496 567 l 396 646 l 190 647 l 181 639 l 64 639 l 64 628 q 54 628 60 628 q 43 626 49 628 q 15 624 29 625 q -1 622 1 622 q 3 578 -1 590 q 15 560 8 567 l 18 557 q 10 547 18 556 q -22 519 1 539 q -4 513 -8 514 l -6 513 l 11 494 l 17 489 q 33 471 18 474 l 67 439 l 67 440 q 72 433 69 435 q 60 433 67 433 q 46 431 53 432 q 23 428 33 429 q 8 428 13 428 q 17 389 8 403 q 39 368 25 375 l 38 368 l 46 358 l 43 358 q 38 357 40 357 q 24 352 32 357 q -15 324 15 347 q -12 323 -14 324 q -8 322 -10 322 q -3 321 -6 321 q 3 318 0 321 l 38 285 q 40 284 39 283 q 42 283 40 285 l 53 278 l 51 278 l 69 267 l 96 242 l 118 228 q 144 226 131 226 q 175 226 158 226 q 215 226 194 226 q 261 221 235 225 q 271 219 264 219 q 292 225 279 219 q 315 238 304 231 l 314 238 l 331 246 q 355 238 340 242 q 385 231 369 233 q 415 228 400 229 q 442 226 431 226 q 467 228 458 226 q 476 243 476 231 l 508 332 l 489 351 q 492 356 490 354 q 494 363 493 358 q 497 367 496 365 q 499 372 497 369 l 499 374 m 449 431 q 442 419 446 428 q 433 403 438 413 q 419 394 429 394 l 447 367 l 419 285 l 401 285 q 369 286 388 285 q 335 290 351 288 q 307 296 318 292 q 296 304 296 300 q 293 307 296 307 q 281 303 289 307 q 264 294 274 300 q 243 283 253 288 q 229 278 233 278 l 228 279 q 177 284 200 283 q 135 285 154 285 q 108 285 121 285 q 83 286 96 285 l 75 290 q 80 300 79 299 q 81 304 81 301 l 81 306 q 83 314 81 311 q 68 322 78 319 q 47 326 58 324 q 36 328 42 328 q 28 331 32 328 q 39 335 35 335 q 49 339 43 336 q 67 347 58 342 q 76 363 75 351 l 151 372 l 151 375 q 135 377 144 376 q 115 378 126 378 q 85 378 100 378 q 57 382 69 379 q 37 390 44 385 q 29 407 29 396 q 55 410 36 408 q 82 414 74 413 l 85 414 q 94 424 92 417 l 161 440 l 239 425 l 453 433 l 449 431 m 407 575 q 358 556 383 565 q 326 546 333 546 l 326 543 l 428 543 l 410 479 l 390 479 q 360 481 378 479 q 326 484 342 482 q 298 490 310 486 q 286 499 286 494 q 283 501 286 501 q 272 498 279 501 q 254 489 264 494 q 233 477 243 482 q 219 472 224 472 l 218 474 q 167 478 190 478 q 125 479 144 479 q 99 479 111 479 q 74 481 86 479 l 65 485 q 67 490 67 488 q 61 494 67 494 q 56 494 58 494 q 51 493 54 493 q 47 492 49 493 q 43 492 46 492 q 38 496 38 492 l 38 499 q 33 506 33 503 q 31 511 32 508 q 27 519 29 514 q 18 526 25 524 q 39 557 39 543 q 32 574 39 564 q 24 585 28 579 q 19 601 19 592 q 45 605 26 603 q 72 608 64 607 l 75 608 q 83 618 79 611 l 192 618 l 201 626 l 388 625 l 435 586 q 424 581 431 585 q 407 575 417 578 m 383 356 q 376 383 383 363 l 364 378 l 340 329 l 351 322 l 361 328 l 383 328 l 383 356 m 143 536 l 143 551 q 144 556 143 554 q 144 561 144 558 q 139 586 144 571 l 126 579 l 126 556 l 111 535 l 113 532 l 122 536 l 143 536 z "},">":{"ha":547,"x_min":-15,"x_max":533,"o":"m 428 528 q 436 519 436 528 q 429 503 436 517 q 414 472 422 489 q 398 442 406 456 q 389 429 390 429 l 389 432 q 394 451 389 436 q 407 483 400 467 l 419 519 q 428 528 419 528 m 138 149 l 164 190 l 167 189 l 149 67 l 138 67 l 138 149 m 208 717 q 208 733 208 721 q 206 758 207 744 q 203 782 204 771 q 200 797 201 793 q 199 801 200 796 q 196 813 197 807 q 192 829 192 822 q 198 838 192 836 q 208 839 204 839 l 210 839 q 217 831 217 839 l 217 824 q 217 819 217 821 q 218 817 218 818 l 218 796 q 219 790 218 793 q 219 785 219 788 l 219 776 q 221 751 219 758 q 222 743 221 747 q 222 733 222 739 q 217 708 222 724 l 208 717 m 176 482 l 201 517 l 203 518 q 207 508 207 518 q 206 488 207 500 q 202 461 204 475 q 198 436 200 447 q 194 421 196 425 q 177 376 190 401 q 147 322 164 351 q 95 218 121 274 q 69 107 69 163 q 69 94 69 100 q 71 83 69 90 q 73 69 72 75 q 75 57 74 64 q 78 40 76 50 q 85 14 81 31 l 124 6 q 126 17 124 10 q 131 28 128 25 q 138 31 136 31 q 149 26 144 31 q 168 -7 153 21 l 168 24 q 176 31 171 31 q 181 29 179 31 l 204 6 l 210 6 q 215 13 214 10 q 218 19 217 17 l 353 267 l 468 479 q 475 510 475 493 q 462 572 475 536 q 428 647 449 607 q 382 729 407 688 q 332 811 357 771 q 301 860 317 836 q 275 906 286 885 l 274 904 q 268 903 272 903 l 196 894 l 188 894 q 174 897 179 894 q 164 903 168 900 q 146 911 153 911 q 126 907 135 911 q 117 904 122 906 q 107 903 113 903 q 90 907 96 903 l 92 907 q 85 910 89 908 q 78 911 82 911 q 69 910 74 911 l 71 910 l 65 904 q 49 891 58 899 q 38 876 40 883 q 22 886 31 886 l 19 886 q 6 876 6 886 q 7 869 6 872 l 176 482 m -12 863 q -15 876 -15 868 q -8 897 -15 888 q 19 907 0 907 l 22 907 q 32 904 24 907 l 40 913 q 45 917 43 915 q 50 921 47 918 l 51 921 l 57 926 q 72 931 69 931 q 78 932 75 932 q 88 930 82 932 q 101 925 94 928 l 103 924 l 106 924 l 118 926 l 117 926 q 146 932 126 932 q 161 929 156 932 q 172 922 167 926 l 171 922 q 172 921 172 922 q 174 921 172 921 l 176 921 q 188 915 182 915 l 194 915 l 263 922 l 261 922 q 275 926 265 926 q 290 924 286 926 q 296 914 294 922 l 296 915 l 332 879 q 333 868 333 878 q 358 825 344 847 q 388 779 372 803 q 393 769 390 774 q 399 760 396 765 q 446 681 422 721 q 489 601 469 640 q 521 528 508 563 q 533 468 533 494 q 525 431 533 444 l 410 219 l 274 -32 l 272 -31 q 260 -53 269 -43 l 238 -53 l 226 -42 l 226 -62 l 200 -68 l 181 -49 l 181 -56 l 113 -43 l 76 -7 l 78 -7 l 67 -6 q 60 19 63 10 q 57 38 58 29 q 54 55 56 46 q 50 81 53 64 q 49 93 49 88 q 49 107 49 100 q 75 224 49 168 q 128 329 101 281 q 128 331 128 329 q 132 336 129 333 l 132 335 q 134 338 133 336 q 136 343 135 340 l 135 343 q 160 392 150 371 q 174 425 171 414 q 178 443 176 429 l 176 444 l 172 440 l -12 863 z "},"?":{"ha":596,"x_min":-15,"x_max":588,"o":"m 149 185 q 156 176 156 185 q 155 165 156 174 q 153 146 154 156 q 149 128 151 136 q 146 119 147 119 q 142 136 143 119 q 142 164 142 153 l 142 176 q 149 185 142 185 m 485 636 q 481 607 485 621 q 461 593 476 593 q 468 647 461 619 q 482 693 475 674 l 485 693 l 485 636 m 204 126 q 205 119 204 122 q 206 113 206 115 l 206 92 q 205 83 206 88 q 204 76 204 79 l 204 56 q 201 30 204 46 q 194 14 197 14 l 186 14 l 186 24 l 193 144 l 204 156 l 204 126 m 429 893 q 435 857 431 876 q 447 817 440 838 q 460 770 454 793 q 465 729 465 747 l 465 721 q 441 748 450 731 q 426 785 432 765 q 419 825 421 806 q 417 860 417 844 l 417 865 q 420 881 417 869 q 426 894 424 892 l 429 893 m 63 96 l 63 79 q 63 63 63 72 q 64 43 64 54 q 63 23 64 32 q 63 7 63 14 l 63 -8 q 64 -9 63 -8 q 67 -11 65 -10 q 71 -14 68 -11 l 69 -14 q 74 -15 72 -15 q 78 -14 75 -15 l 76 -14 l 100 10 q 111 0 110 10 q 115 -17 113 -3 q 118 -39 117 -31 l 132 -39 q 133 -28 132 -35 q 136 -14 133 -21 q 142 -2 139 -7 q 153 3 146 3 q 172 -8 163 3 q 192 -31 182 -18 q 210 -53 200 -43 q 233 16 222 -11 q 250 63 243 43 q 262 95 257 81 q 270 126 267 110 q 276 161 274 142 q 279 210 278 181 q 192 224 243 224 l 92 224 q 67 217 78 224 q 57 194 57 211 l 57 190 l 63 96 m 190 296 q 299 315 240 296 q 336 413 306 378 q 403 476 367 447 q 448 515 425 494 q 489 565 471 536 q 518 634 507 594 q 529 731 529 674 q 501 869 529 806 q 426 978 474 932 q 313 1049 378 1024 q 171 1075 247 1075 l 139 1075 q 103 1073 122 1075 q 66 1067 83 1071 q 35 1055 49 1063 q 18 1036 22 1047 l 47 1036 l 47 981 q 75 983 63 981 q 100 988 88 985 q 125 992 113 990 q 151 994 138 994 q 158 994 154 994 q 168 993 163 993 l 185 993 l 185 990 q 148 981 174 990 q 95 959 122 972 q 47 931 68 946 q 26 906 26 917 q 31 894 26 897 q 42 892 36 892 q 57 893 53 892 q 63 894 60 893 q 68 894 65 894 q 65 865 68 871 q 53 856 61 860 l 54 856 q 44 849 50 853 q 29 835 38 844 l 31 835 q 49 836 40 835 q 65 840 57 838 q 82 844 74 843 q 101 846 90 846 q 107 845 103 846 q 115 844 111 844 l 129 844 l 129 842 q 100 831 119 842 q 75 814 81 819 q 72 803 75 814 q 65 785 68 793 q 60 768 63 776 q 56 757 57 760 l 47 753 q 34 746 40 750 q 26 739 28 742 q 18 732 21 739 l 26 732 q 42 733 35 732 q 56 738 49 735 q 72 742 64 740 q 92 743 81 743 q 136 738 113 743 q 179 720 160 732 q 211 689 199 708 q 224 643 224 669 q 214 595 224 617 q 188 556 204 574 q 153 524 172 539 q 114 494 133 508 q 94 481 103 488 q 75 467 85 474 q 60 447 64 457 q 56 425 56 436 q 56 417 56 421 q 57 408 57 413 q 58 399 57 403 q 58 389 58 394 q 51 356 58 371 l 51 349 q 51 338 51 344 q 50 325 50 332 q 190 296 117 296 m 36 189 l 36 194 q 53 234 36 224 q 92 244 69 244 l 169 244 q 123 257 147 249 q 74 276 99 265 l 40 307 q 35 310 38 307 q 32 311 33 311 q 29 313 31 311 l 29 324 q 30 330 29 326 q 31 336 31 333 l 31 360 q 38 389 38 375 q 37 391 38 390 q 36 393 36 392 l 36 408 q 35 410 36 410 q 35 413 35 411 l 35 425 q 40 456 35 442 q 61 483 46 469 l 90 504 q 92 506 92 506 q 94 507 93 506 q 97 509 96 508 q 100 511 99 510 q 170 569 138 539 q 203 643 203 600 q 196 671 203 657 q 133 685 161 685 q 117 683 125 685 q 101 679 108 682 l 99 679 q 85 675 92 676 q 68 674 79 674 l 40 674 l 3 711 l -7 711 q -6 714 -7 713 q -6 717 -6 715 q 0 734 -3 726 q 7 747 3 742 l 7 746 q 18 759 10 751 q 38 771 26 767 q 38 774 38 772 q 39 776 39 775 l 38 776 l 0 814 l -15 814 q 10 843 0 832 q 26 861 21 854 q 32 868 29 867 l 28 872 q 6 906 6 878 q 16 926 6 915 q 44 950 26 938 l 35 960 l 26 960 l 26 989 l 0 1015 l -10 1015 q 16 1055 -1 1039 q 54 1080 33 1071 q 97 1092 75 1089 q 139 1096 119 1096 l 171 1096 q 352 1056 271 1096 q 482 944 433 1015 l 486 942 q 561 831 535 894 q 588 689 588 767 q 576 587 588 629 q 545 515 564 544 q 502 463 526 485 q 454 421 478 440 q 392 361 421 393 q 357 272 364 329 l 349 263 q 256 238 299 242 q 300 225 279 233 l 300 218 l 338 181 q 334 121 336 144 q 328 80 332 97 q 319 47 325 63 q 307 14 314 32 l 304 14 q 285 -45 296 -8 q 261 -124 274 -82 q 247 -110 254 -117 q 233 -97 240 -104 l 224 -87 l 224 -90 q 190 -61 204 -74 q 189 -81 189 -69 q 189 -97 189 -93 l 143 -97 l 118 -72 q 115 -74 117 -74 q 115 -74 115 -74 q 111 -73 113 -74 q 103 -69 110 -72 l 100 -69 l 65 -36 q 60 -32 63 -33 l 57 -32 q 51 -26 53 -28 q 42 -14 49 -24 l 42 32 q 42 38 42 35 q 43 43 43 40 q 42 48 43 46 q 42 53 42 50 l 42 94 l 36 189 z "},"@":{"ha":961,"x_min":-11,"x_max":949,"o":"m 431 574 l 431 576 l 432 576 l 432 574 l 431 574 m 585 407 l 581 407 l 581 411 l 582 413 l 585 413 l 585 407 m 374 611 l 371 608 q 370 606 371 607 q 369 606 369 606 l 369 607 q 365 601 368 604 q 360 596 363 597 l 356 596 q 361 608 358 604 q 369 615 364 613 l 374 611 m 390 632 q 399 631 394 632 q 404 622 404 629 l 397 622 q 392 624 393 622 q 389 625 389 624 q 385 624 388 624 q 379 622 382 622 l 375 622 q 390 632 378 632 m 306 425 l 308 425 q 315 386 315 404 l 315 375 q 307 397 308 386 q 306 415 306 407 l 306 425 m 364 329 q 346 340 354 333 q 335 354 338 346 q 328 363 331 356 l 329 365 q 344 354 336 360 q 357 342 351 349 l 364 329 m 565 594 q 569 593 568 594 q 574 583 569 592 q 578 578 578 579 q 578 569 578 575 q 583 531 579 563 q 579 540 582 531 q 573 560 576 549 q 567 581 569 571 q 565 592 565 590 l 565 594 m 476 553 q 479 560 476 557 q 483 565 482 564 q 490 561 488 565 q 503 542 500 550 q 506 521 506 533 q 505 517 506 518 q 504 515 504 517 l 504 510 l 497 504 l 485 546 q 482 550 485 549 q 478 551 479 551 l 476 553 m 572 369 l 574 368 q 576 365 574 365 l 575 364 l 588 353 l 571 321 l 558 321 q 544 319 549 321 l 543 322 q 551 331 547 326 q 558 339 554 335 l 557 339 l 557 344 l 565 364 q 567 365 567 364 q 567 367 567 365 q 569 369 568 368 l 572 369 m 108 94 q 109 103 108 99 q 110 111 110 108 q 109 117 110 114 q 108 124 108 121 q 108 131 108 128 q 107 139 107 135 q 113 163 107 147 l 122 153 l 122 54 l 113 46 l 103 54 l 108 94 m 814 356 l 804 364 l 804 463 l 814 472 q 822 434 821 450 q 824 401 824 418 l 824 364 l 814 356 m 58 531 q 59 538 58 533 q 60 546 60 542 l 60 560 l 69 549 l 68 549 q 72 539 69 549 q 75 516 74 529 q 77 489 76 503 q 78 467 78 475 l 78 450 q 78 444 78 447 q 79 439 79 442 l 79 419 q 78 413 79 415 q 78 407 78 410 l 78 383 q 60 415 64 397 q 57 454 57 433 q 58 471 57 463 q 58 486 58 479 l 58 531 m 696 636 q 697 621 696 629 q 697 604 697 613 q 694 565 697 583 q 676 533 690 547 l 676 546 q 676 551 676 549 q 675 557 675 554 l 675 600 q 676 606 675 603 q 676 613 676 608 l 676 617 q 677 638 676 625 q 678 665 678 651 q 681 688 679 678 q 685 699 682 697 l 694 710 l 694 681 q 695 673 694 676 q 696 667 696 669 l 696 636 m 306 594 q 322 620 313 608 q 339 643 331 632 q 364 661 350 656 l 367 661 l 368 661 q 369 665 368 664 q 372 669 369 667 l 372 668 q 383 689 375 678 q 410 707 390 700 l 408 708 q 390 707 400 707 q 372 707 382 707 l 347 707 q 340 708 344 707 q 332 708 336 708 q 326 708 329 708 q 321 707 324 707 l 311 707 q 308 685 308 693 l 306 594 m 478 706 q 540 675 514 696 q 586 626 567 654 l 599 615 q 619 588 610 603 q 638 557 629 574 l 621 710 q 594 710 608 710 q 568 708 582 710 q 526 706 547 707 q 485 706 506 706 l 478 706 m 410 456 q 419 507 410 485 q 440 549 429 529 l 440 547 l 443 553 l 447 553 l 449 551 q 469 513 464 536 q 474 465 474 490 l 474 461 q 473 457 474 458 q 472 453 472 456 l 472 442 q 468 417 471 429 q 458 397 465 406 q 453 392 456 393 q 444 383 451 390 l 443 364 q 438 371 439 369 q 436 379 438 372 q 432 390 433 385 q 428 399 431 396 q 415 427 419 414 q 410 456 410 440 m 890 929 l 840 975 l 832 975 q 797 974 814 975 q 764 971 781 972 q 699 967 731 967 q 640 969 676 967 q 563 976 603 972 q 484 984 522 981 q 422 988 446 988 l 393 988 q 388 989 397 988 q 371 992 378 990 q 353 994 357 994 q 349 994 350 994 q 349 993 349 993 q 351 989 349 992 l 292 942 q 264 929 275 929 q 244 946 251 929 q 233 965 240 956 q 203 974 225 974 q 135 978 168 974 q 101 981 118 979 q 68 982 85 982 l 31 982 l 10 938 l 49 -46 l 49 -44 l 56 -50 q 69 -42 60 -46 q 89 -37 79 -37 l 96 -40 q 105 -47 100 -43 q 107 -49 110 -50 q 118 -51 110 -51 l 135 -51 l 647 -53 q 658 -41 654 -53 q 663 -22 663 -29 q 661 -17 663 -18 l 650 -17 q 612 -13 635 -17 q 581 6 589 -10 l 629 6 l 629 107 q 645 126 636 114 q 654 150 654 139 l 653 151 q 642 158 650 154 q 631 163 633 163 l 235 165 l 250 726 q 260 764 250 749 q 276 766 268 765 q 290 767 283 767 q 304 766 297 767 q 318 765 311 765 q 342 765 331 765 q 367 768 354 765 q 443 764 400 764 q 485 765 464 764 q 526 767 506 765 q 563 768 546 768 q 594 768 579 768 q 614 768 606 768 q 631 767 624 768 q 640 729 640 751 l 675 411 l 593 408 q 604 497 604 450 q 593 565 604 531 q 560 628 582 600 q 508 673 539 656 q 436 690 476 690 q 403 678 413 690 q 390 657 394 667 q 388 651 389 653 q 388 649 388 649 q 381 646 385 647 q 375 643 378 644 q 367 638 371 640 q 356 629 363 636 q 289 443 289 550 q 306 366 289 406 q 356 303 324 326 q 365 298 361 300 q 372 293 368 296 q 389 285 382 289 q 403 279 396 282 l 408 279 q 413 260 408 271 q 424 249 417 249 l 778 246 l 793 246 q 804 247 801 246 q 807 250 801 246 q 817 257 813 254 l 824 260 q 843 255 833 260 q 857 247 853 250 l 864 253 l 890 929 m 911 933 l 949 896 l 922 201 l 897 182 q 893 185 894 185 q 881 193 888 188 q 868 201 874 199 l 861 196 q 850 189 854 190 q 835 188 846 188 l 819 188 l 465 190 q 447 197 454 190 l 415 228 l 417 228 q 407 234 411 231 q 400 240 403 238 l 399 242 q 393 244 396 243 q 390 246 390 246 q 380 254 385 250 q 371 263 375 258 l 353 281 l 354 281 q 346 283 347 282 q 299 338 318 303 l 293 186 l 631 183 q 649 177 635 183 q 668 167 664 171 q 675 154 675 157 l 707 122 q 712 117 711 118 q 713 108 713 115 q 704 80 713 93 q 688 57 696 67 l 688 -15 l 713 -40 q 719 -56 718 -53 q 719 -64 719 -58 q 713 -93 719 -75 q 689 -111 706 -111 l 176 -110 l 160 -110 q 135 -101 144 -110 l 133 -100 l 126 -96 q 110 -105 119 -99 q 99 -115 101 -111 l 74 -96 l 56 -78 l 28 -56 l -11 942 l 18 1003 l 68 1003 q 91 1002 79 1003 q 114 1000 103 1001 q 119 999 117 1000 q 125 999 122 999 l 136 999 q 203 994 169 994 q 245 980 233 994 q 264 953 257 965 l 264 954 l 265 950 q 267 951 267 951 q 271 954 268 951 q 274 955 271 954 q 279 958 276 956 l 278 958 l 328 997 q 353 1015 331 1015 q 365 1015 360 1015 q 375 1013 369 1014 l 375 1011 l 378 1011 l 382 1011 q 385 1010 385 1011 q 388 1010 386 1010 q 393 1008 389 1008 l 422 1008 q 485 1005 446 1008 q 564 997 524 1001 q 641 990 604 993 q 699 988 678 988 q 763 992 729 988 l 772 992 q 778 992 775 992 q 783 993 781 993 q 807 995 794 994 q 832 996 819 996 l 850 996 l 911 939 l 911 933 z "},"A":{"ha":867,"x_min":-3,"x_max":860,"o":"m 119 353 q 120 343 119 347 q 121 335 121 339 l 121 310 q 120 301 121 306 q 119 292 119 296 l 119 269 q 115 240 119 258 q 108 221 111 221 l 99 221 l 99 232 l 107 372 l 119 385 l 119 353 m 590 957 q 592 957 592 957 q 593 958 592 958 q 611 930 603 958 q 625 866 619 901 q 633 799 631 831 q 636 761 636 767 q 629 754 636 757 l 631 754 l 628 751 q 621 749 622 749 q 618 751 618 749 q 617 753 618 753 q 617 757 617 754 q 610 799 614 771 q 603 858 607 828 q 594 917 599 889 q 586 957 590 944 l 590 957 m 364 421 q 403 423 383 421 q 446 428 422 425 l 410 590 q 384 507 396 550 q 364 421 372 464 m 297 411 q 337 581 311 494 q 390 744 363 667 l 401 733 l 467 432 l 468 410 q 399 402 428 404 q 333 400 371 400 l 329 400 q 324 399 326 400 q 319 399 322 399 q 297 411 301 399 m 74 75 q 78 43 74 64 q 86 3 82 22 q 90 -18 89 -8 q 93 -35 92 -28 q 97 -49 93 -40 q 101 -60 100 -57 q 107 -47 104 -56 q 110 -35 110 -37 q 113 -12 110 -33 q 118 31 115 8 q 123 72 121 53 q 128 96 125 92 q 130 110 129 104 q 133 122 131 115 q 138 138 135 128 q 147 164 140 147 l 157 164 q 158 157 157 161 q 158 149 158 153 q 160 138 160 143 q 160 129 160 132 l 160 125 q 158 115 160 122 q 154 99 157 107 q 150 78 150 83 q 153 65 150 75 q 160 50 157 56 l 196 -22 q 222 24 214 -8 q 236 93 229 57 q 242 133 239 114 q 251 168 246 153 q 266 192 257 183 q 288 201 275 201 l 486 201 l 514 69 q 538 55 524 67 q 569 31 553 43 q 602 5 588 17 q 622 -7 617 -7 l 624 -7 l 643 31 l 643 186 q 663 144 657 163 q 671 111 668 126 q 676 89 674 100 q 686 67 679 78 q 705 46 693 57 q 738 22 717 35 l 746 17 q 760 6 753 13 q 772 -3 767 0 q 773 0 772 -1 q 774 3 774 1 q 767 21 774 14 q 753 33 760 28 q 740 44 746 39 q 735 58 735 49 q 738 72 735 65 q 749 81 740 79 q 751 80 750 81 q 757 78 753 79 l 776 68 l 793 60 q 801 71 801 61 l 801 89 q 801 93 801 92 q 800 106 801 96 l 735 349 l 735 442 l 633 1013 q 626 1036 632 1024 q 613 1060 621 1049 q 593 1078 604 1071 q 569 1086 582 1086 q 554 1083 561 1086 q 540 1076 547 1079 q 513 1067 524 1067 q 500 1068 504 1067 q 493 1072 496 1069 l 494 1072 q 486 1076 490 1075 q 471 1078 482 1078 q 448 1076 461 1078 q 420 1074 435 1075 q 393 1070 406 1072 q 372 1067 381 1068 q 340 1049 357 1064 q 308 1021 322 1035 q 294 1007 300 1013 q 283 1001 288 1001 l 276 1001 q 276 1017 276 1006 q 272 1040 275 1028 q 265 1060 269 1051 q 250 1069 260 1069 q 247 1069 249 1069 q 244 1068 246 1068 q 240 1067 242 1067 q 231 1038 238 1058 q 217 996 224 1018 q 204 955 210 974 q 197 928 199 936 q 188 888 194 914 q 174 830 182 863 q 156 758 165 797 q 136 681 146 719 q 117 602 126 640 q 99 531 107 564 q 84 472 90 497 q 75 432 78 446 q 65 354 74 392 q 47 279 57 317 q 27 194 36 238 q 18 106 18 151 l 18 79 l 53 96 q 58 97 57 97 l 64 94 q 69 85 67 92 q 74 75 72 78 m 64 3 q 61 10 64 4 q 60 15 60 13 q 58 21 60 18 l 43 14 l 4 51 l -3 49 l -3 106 q 4 188 -3 149 q 21 264 11 226 q 22 268 22 267 q 24 274 22 271 q 24 276 24 275 q 25 278 25 276 q 26 285 25 283 l 26 283 q 28 292 26 289 q 31 301 28 296 q 31 306 31 304 q 32 308 32 307 q 47 372 40 340 q 54 436 53 403 q 63 476 57 450 q 78 535 69 501 q 96 606 86 568 q 115 685 106 644 q 122 711 117 696 q 126 724 125 718 q 129 738 126 731 q 140 780 135 760 q 149 819 144 800 q 166 888 158 858 q 176 932 174 917 q 185 962 178 940 q 200 1008 192 983 q 216 1056 208 1033 q 228 1088 224 1078 q 236 1088 235 1088 q 240 1089 238 1088 l 246 1089 q 250 1090 247 1090 q 271 1083 263 1090 q 285 1064 279 1075 l 285 1065 l 303 1046 q 333 1071 317 1058 q 368 1088 349 1083 q 390 1091 376 1089 q 417 1094 403 1093 q 446 1097 432 1096 q 471 1099 460 1099 q 491 1097 483 1099 q 504 1092 499 1094 l 507 1089 q 513 1088 507 1088 q 520 1090 515 1088 q 532 1096 525 1093 l 532 1094 q 535 1097 532 1094 q 550 1103 542 1100 q 569 1107 558 1107 q 609 1092 592 1107 q 638 1057 626 1076 l 638 1058 l 657 1039 q 690 974 683 1008 l 793 403 l 793 311 l 858 69 q 860 57 860 60 q 860 47 860 54 l 860 29 q 833 0 860 6 l 808 13 l 807 14 l 808 14 q 799 18 803 17 q 793 21 796 19 l 819 -6 q 828 -19 825 -11 q 832 -39 832 -26 q 831 -41 832 -40 q 831 -43 831 -42 l 831 -86 l 817 -72 q 803 -60 810 -65 q 793 -50 797 -54 l 793 -54 l 786 -47 l 779 -40 q 776 -39 778 -40 q 772 -35 774 -36 q 769 -33 771 -35 l 769 -35 q 747 -19 757 -26 q 729 -4 736 -11 l 714 10 q 711 12 713 11 q 708 14 710 13 q 700 19 703 17 l 700 -15 l 681 -53 q 674 -64 679 -62 q 663 -65 668 -65 q 640 -56 651 -65 q 614 -36 629 -47 q 607 -31 611 -33 q 600 -25 603 -28 q 594 -20 597 -22 q 588 -15 590 -18 q 563 3 574 -4 q 540 14 551 11 l 506 49 q 503 49 504 49 q 501 50 501 50 q 494 51 496 50 l 475 143 l 329 143 q 306 114 313 143 q 294 49 300 85 q 276 -29 288 8 q 231 -90 265 -67 l 192 -50 l 189 -54 l 174 -25 q 169 -56 171 -42 q 168 -76 168 -71 l 168 -79 q 158 -103 165 -86 q 143 -126 150 -119 l 104 -87 l 103 -87 l 103 -90 q 88 -74 94 -83 q 78 -57 81 -64 q 72 -40 72 -46 l 72 -36 q 69 -21 69 -25 q 67 -12 68 -17 q 65 -3 67 -7 q 64 0 64 -3 l 64 3 z "},"B":{"ha":825,"x_min":-10,"x_max":814,"o":"m 33 747 l 33 743 q 33 739 33 740 q 32 735 32 738 l 32 715 q 31 668 31 690 q 31 624 31 646 l 31 572 q 31 546 31 558 q 29 518 31 533 l 29 517 q 33 498 29 501 q 43 493 36 494 q 41 445 42 469 q 40 403 40 421 l 40 400 l 39 399 l 39 396 l 51 -8 l 60 -8 l 97 -46 l 201 -53 l 532 -56 q 617 -26 572 -54 q 700 49 661 3 q 768 153 739 94 q 808 278 797 213 q 813 310 811 293 q 814 346 814 328 q 799 446 814 399 q 749 529 783 493 l 733 543 l 721 560 q 789 650 764 599 q 814 758 814 701 q 790 858 814 810 q 728 944 767 906 l 722 947 l 724 947 q 610 1050 679 1010 q 463 1090 542 1090 l -10 1078 l -1 918 q 26 892 19 906 q 32 871 32 879 l 32 861 l 14 825 l 33 747 m 36 824 l 54 860 q 53 871 53 861 q 47 901 53 882 q 19 932 40 919 l 19 931 l 13 1057 l 463 1069 q 571 1046 518 1069 q 665 985 624 1022 q 731 899 706 947 q 756 800 756 850 q 726 688 756 742 q 643 596 696 633 q 730 508 704 564 q 756 388 756 451 q 754 354 756 371 q 750 321 753 338 q 713 203 740 260 q 649 102 685 146 q 571 31 613 58 q 490 3 529 4 l 161 6 l 72 11 l 60 396 q 60 399 60 399 q 61 401 61 400 l 61 403 q 63 454 63 429 q 64 506 64 479 l 64 507 l 58 510 l 60 510 q 53 515 57 513 q 50 517 50 517 l 50 518 q 51 546 51 533 q 51 572 51 558 l 51 624 q 51 668 51 646 q 53 715 51 690 l 53 728 q 53 742 53 735 q 54 753 54 749 l 36 824 m 507 353 q 504 382 507 365 q 494 415 501 399 q 472 447 486 432 q 435 468 457 461 q 378 472 414 469 q 314 478 342 475 q 313 463 313 471 q 313 443 313 454 q 314 397 313 421 q 317 354 315 374 q 318 333 318 343 q 318 319 318 325 q 319 304 318 315 q 324 282 321 293 q 327 265 326 272 q 328 254 328 257 q 338 250 329 253 q 356 244 346 247 q 375 240 367 242 q 385 238 383 238 l 390 238 q 432 249 411 238 q 469 277 453 260 q 497 315 486 294 q 507 353 507 335 m 318 625 q 324 638 322 633 q 328 647 326 642 q 333 658 331 651 q 342 676 336 665 q 390 685 367 685 q 436 678 401 685 q 451 726 446 696 q 457 769 457 756 q 440 827 457 797 q 392 865 424 857 q 400 868 400 865 q 364 876 400 872 q 332 881 350 879 q 294 888 314 883 l 294 875 q 296 864 294 867 l 310 756 q 314 754 311 754 l 317 754 l 324 757 l 328 761 l 315 625 l 318 625 m 486 353 q 478 321 486 338 q 456 290 469 304 q 425 267 442 276 q 390 258 408 258 l 378 258 q 376 271 376 265 q 376 279 376 276 q 376 293 376 285 q 375 314 376 303 q 374 324 375 319 q 374 335 374 329 q 372 367 372 350 q 371 401 371 385 l 371 418 q 423 413 394 415 q 471 410 451 411 l 471 408 l 472 408 q 483 378 481 393 q 486 353 486 364 m 392 764 l 358 797 l 358 796 l 356 815 l 354 826 q 363 825 357 825 q 384 822 374 822 q 403 819 394 821 l 401 819 q 406 818 403 818 l 407 818 l 414 811 l 425 808 q 436 769 436 786 q 433 740 436 760 q 422 701 429 721 q 390 706 399 706 l 385 706 l 392 764 m 104 178 l 107 178 l 117 215 l 101 468 l 89 456 l 104 178 m 574 993 q 582 985 576 988 q 586 982 582 985 q 599 974 590 979 q 622 957 608 967 q 649 939 636 947 q 673 925 663 931 q 686 919 683 919 q 675 946 686 931 q 649 974 664 961 q 617 997 633 988 q 590 1006 601 1006 q 581 1004 586 1006 q 572 994 575 1003 l 574 993 m 586 125 q 594 119 588 119 q 610 124 601 119 q 625 132 619 129 q 628 133 626 132 q 649 153 638 139 q 669 183 660 167 q 686 217 679 200 q 696 250 693 235 q 684 235 689 243 q 672 218 679 228 q 645 178 660 199 q 619 157 631 157 l 618 157 q 608 150 614 157 q 594 136 601 143 q 586 126 590 131 l 586 125 m 231 792 q 242 800 240 794 q 243 813 243 806 l 243 815 q 239 859 243 838 q 229 903 235 881 l 210 907 l 210 896 l 213 896 q 213 881 213 892 q 215 864 214 871 q 224 817 219 842 q 231 792 229 792 m 393 39 l 421 39 q 447 40 436 39 q 476 47 457 40 l 476 50 l 289 50 l 289 47 q 309 44 294 46 q 340 42 324 43 q 372 40 357 40 q 393 39 386 39 m 679 707 q 663 681 668 690 q 653 666 657 672 q 647 656 650 660 q 639 644 643 651 q 629 626 633 639 l 635 626 q 655 635 646 626 q 672 658 664 644 q 684 685 679 671 q 690 707 689 699 l 679 707 m 276 26 l 276 29 l 267 29 l 167 71 l 165 53 q 175 47 161 51 q 199 41 186 44 q 213 35 213 38 q 231 28 213 29 q 261 26 249 26 l 276 26 m 225 1042 q 198 1040 219 1042 q 151 1037 176 1039 q 105 1033 126 1035 q 78 1031 83 1032 l 78 1028 l 250 1032 l 258 1042 l 225 1042 m 303 201 q 315 213 315 201 l 322 219 q 312 233 318 219 q 300 260 306 247 q 293 281 296 272 q 290 276 290 290 l 303 201 m 263 1039 q 265 1035 265 1036 q 267 1033 265 1035 l 268 1032 l 299 1032 l 299 1035 q 279 1039 288 1038 q 264 1042 271 1040 l 263 1039 z "},"C":{"ha":782,"x_min":-7,"x_max":765,"o":"m 725 847 l 725 849 l 726 847 l 725 847 m 589 176 l 590 175 l 590 176 l 589 176 m 526 224 l 528 222 l 528 224 l 526 224 m 703 85 l 704 85 l 704 83 l 703 85 m 382 1011 l 383 1011 l 382 1013 l 382 1011 m 382 1001 l 383 1003 l 382 1003 l 382 1001 m 603 304 l 603 306 l 604 304 l 603 304 m 764 168 l 765 169 l 765 167 l 764 168 m 742 203 l 743 204 l 743 201 l 742 203 m 540 1057 l 543 1057 q 542 1058 542 1057 l 540 1057 m 710 243 q 707 244 708 243 q 711 246 710 244 l 710 243 m 310 989 q 310 989 310 989 q 311 992 310 990 l 308 992 l 310 989 m 729 874 l 733 875 l 732 872 l 729 874 m 338 744 q 340 747 338 744 l 338 749 l 338 746 l 338 744 m 703 914 l 707 915 l 707 913 l 703 914 m 86 356 q 83 358 83 358 l 83 354 l 86 356 m 592 1025 l 590 1026 l 589 1024 l 592 1022 l 592 1025 m 61 515 q 64 510 61 513 l 64 515 l 61 515 m 293 614 q 290 610 290 611 l 293 608 l 293 614 m 464 101 q 460 104 463 101 l 458 101 l 464 101 m 607 875 q 613 872 601 869 l 607 875 m 311 992 q 342 1009 322 1007 q 379 1011 363 1011 l 382 1011 l 382 1003 q 366 1001 374 1003 q 351 997 358 1000 q 335 993 343 994 q 318 992 328 992 l 311 992 m 83 358 q 70 382 72 372 q 68 406 68 392 q 67 424 68 407 q 65 460 67 440 q 64 490 64 476 q 64 510 64 504 q 72 477 68 499 q 78 433 75 456 q 82 390 81 410 q 83 364 83 371 l 83 358 m 293 626 q 303 690 293 654 q 338 744 314 725 q 338 742 338 743 q 339 739 339 740 q 324 675 339 711 q 293 614 308 639 l 293 626 m 561 1067 q 551 1064 558 1067 q 542 1058 544 1061 q 494 1074 525 1074 q 469 1072 482 1074 q 443 1067 457 1069 q 413 1061 428 1064 q 383 1058 399 1058 q 267 1035 319 1058 q 174 972 215 1011 q 101 879 132 932 q 49 769 69 826 q 19 653 29 713 q 8 542 8 594 q 36 340 8 439 q 119 163 64 240 q 259 39 175 86 q 456 -8 343 -8 q 479 -5 469 -8 q 500 4 489 -1 q 522 14 511 10 q 546 18 532 18 l 563 18 q 569 14 565 18 q 574 10 572 11 q 581 8 576 8 l 582 8 q 603 18 586 8 q 639 40 619 28 q 674 63 658 51 q 689 79 689 75 l 688 81 l 688 85 q 662 98 676 94 q 629 101 647 101 q 601 100 615 101 q 572 96 586 99 q 543 92 557 93 q 514 90 529 90 q 464 101 485 90 l 474 101 q 597 124 533 101 q 700 197 661 147 l 686 197 l 639 189 q 632 187 642 189 q 614 182 622 185 q 600 178 607 179 q 590 176 593 176 q 604 201 590 192 q 638 219 618 210 q 663 234 649 226 q 681 243 678 242 q 651 250 669 250 q 619 246 636 250 q 585 236 601 242 q 555 227 569 231 q 528 224 540 224 q 538 245 528 239 q 561 257 549 251 q 581 266 572 261 q 589 283 589 271 l 588 285 l 588 289 q 560 287 574 288 q 533 286 546 286 q 374 347 418 286 q 329 540 329 407 q 338 624 329 581 q 365 705 346 668 q 416 765 385 742 q 494 789 447 789 q 550 804 522 804 q 595 799 574 804 q 636 789 617 794 q 662 782 650 785 q 682 779 674 779 q 704 787 697 779 q 711 818 711 794 q 710 827 711 822 q 710 838 710 832 l 613 872 l 647 886 q 672 898 660 892 q 685 904 685 904 l 686 904 l 596 940 q 611 948 599 942 q 636 963 624 954 q 663 980 651 972 q 675 990 675 988 q 674 1006 675 993 q 668 1032 672 1018 q 658 1057 664 1046 q 642 1068 651 1068 q 640 1067 640 1068 q 639 1067 640 1067 l 561 1067 m 638 1082 q 642 1083 638 1083 q 659 1075 651 1083 q 674 1054 667 1067 l 699 1029 q 713 1008 707 1021 q 722 983 718 996 q 726 961 725 971 q 728 949 728 951 q 717 935 728 943 q 692 918 707 928 l 703 914 l 692 911 l 729 874 l 717 872 q 708 865 710 867 q 703 857 707 864 l 725 847 l 725 839 l 763 803 q 763 796 763 800 q 764 789 764 792 l 764 776 q 753 737 764 747 q 724 726 743 726 q 700 729 713 726 q 674 736 688 732 q 633 747 654 742 q 590 751 611 751 q 540 736 568 751 q 465 713 494 736 q 416 656 435 690 q 390 579 397 621 q 382 499 382 538 q 388 403 382 444 q 411 331 394 361 q 533 300 451 300 q 558 301 543 300 q 586 303 574 301 q 591 303 589 303 q 596 304 593 304 l 603 304 l 603 296 l 635 264 q 651 265 640 265 q 707 244 669 265 q 704 242 704 243 q 703 240 704 242 l 742 203 q 733 197 733 197 l 764 168 q 728 131 749 147 q 688 101 708 114 q 697 94 694 97 q 703 89 700 92 l 703 85 l 700 85 l 740 46 l 740 42 l 742 40 q 722 19 739 33 q 685 -8 706 6 q 645 -33 664 -22 q 622 -44 626 -44 l 621 -44 q 607 -39 613 -44 l 603 -35 l 586 -35 q 550 -46 569 -35 q 548 -47 549 -47 q 546 -47 547 -46 l 547 -47 q 524 -58 536 -54 q 497 -61 513 -61 q 328 -28 403 -61 q 199 58 254 4 q 108 151 147 97 q 44 269 69 206 q 6 401 18 332 q -7 542 -7 471 q 3 657 -7 596 q 35 777 14 718 q 90 890 57 836 q 165 984 122 943 q 263 1049 208 1025 q 383 1074 318 1074 q 409 1076 394 1074 q 439 1082 424 1079 q 442 1083 442 1082 q 446 1083 443 1083 q 453 1085 450 1083 q 494 1089 469 1089 q 517 1085 506 1089 q 543 1072 529 1082 q 555 1078 550 1075 q 561 1082 560 1082 l 638 1082 z "},"D":{"ha":875,"x_min":-14,"x_max":861,"o":"m 508 76 q 474 54 496 57 q 435 51 451 51 l 429 51 l 429 65 q 447 67 439 65 q 463 71 454 68 q 478 75 471 74 q 496 76 486 76 l 508 76 m 203 328 l 203 332 q 205 356 203 339 q 210 385 207 374 l 211 392 q 212 394 211 393 q 213 399 213 396 q 216 413 214 403 q 217 418 218 422 l 222 440 q 226 452 224 444 q 231 467 228 460 l 232 476 l 235 476 l 218 344 l 218 333 q 217 328 218 331 q 217 325 217 326 l 203 328 m 728 717 q 745 688 742 699 q 749 660 749 678 q 749 640 749 658 q 750 604 749 624 q 752 568 751 585 q 753 550 753 551 l 750 550 q 742 579 746 557 q 735 626 738 601 q 730 672 732 650 q 728 701 728 694 l 728 717 m 72 699 q 73 688 72 693 q 74 681 74 683 l 74 619 q 51 560 74 589 l 51 588 q 69 714 51 661 l 72 714 l 72 699 m 343 972 l 360 1013 q 372 1013 365 1013 q 386 1014 379 1014 q 397 1015 392 1014 q 408 1015 403 1015 q 438 1007 428 1015 q 417 1001 431 1007 q 390 986 404 994 q 363 970 376 978 q 342 963 350 963 l 343 972 m 532 426 q 529 394 532 411 q 520 359 526 376 q 504 326 514 342 q 482 301 494 311 l 482 307 q 481 310 482 308 q 481 314 481 311 q 497 385 481 346 q 532 450 514 424 l 532 426 m 467 525 q 461 635 467 590 q 436 710 456 681 l 438 710 q 410 718 425 715 q 378 724 394 721 l 328 285 q 336 288 332 288 q 346 292 340 289 l 349 294 q 415 317 390 294 q 450 372 439 339 q 464 447 461 406 q 467 525 467 488 m 321 782 q 411 765 378 781 q 461 719 444 750 q 483 640 478 688 q 488 525 488 592 q 485 440 488 485 q 469 359 482 396 q 428 298 456 322 q 354 274 401 274 q 290 258 324 258 q 276 258 283 258 q 264 260 271 258 l 321 782 m 314 1075 l 15 1061 q 18 1025 17 1054 q 20 953 19 996 q 21 857 21 910 q 21 750 21 804 l 21 639 q 22 565 21 600 q 23 502 22 529 q 24 458 24 475 q 26 436 25 440 q 29 414 26 432 q 36 375 32 396 q 42 333 39 356 q 46 313 44 311 l 46 43 q 48 8 46 31 q 53 -29 50 -14 q 54 -40 54 -35 l 61 -46 l 81 33 q 86 38 81 38 q 92 33 88 38 l 92 35 q 96 28 94 32 q 100 21 97 24 l 118 100 l 121 100 q 122 78 121 93 q 124 47 122 64 q 126 16 125 31 q 129 -4 128 1 q 135 -25 129 -10 q 151 -40 140 -40 q 169 -27 161 -40 q 186 1 178 -14 q 188 7 189 4 q 190 13 188 10 q 207 -1 200 -1 l 210 -1 q 211 0 211 -1 q 213 0 211 0 l 288 0 q 297 4 290 0 q 307 11 304 8 q 326 -3 318 0 q 343 -7 335 -7 q 360 -5 351 -7 q 379 0 369 -3 q 403 6 390 3 q 431 10 415 10 q 573 60 506 10 q 691 188 640 111 q 772 356 742 265 q 803 524 803 446 q 781 725 803 626 q 711 901 760 824 q 585 1026 663 979 q 394 1074 507 1074 q 369 1069 379 1074 q 349 1060 358 1065 q 321 1049 338 1054 l 314 1075 m 333 1083 l 333 1085 l 339 1078 l 342 1081 l 342 1079 q 342 1079 342 1079 q 343 1081 342 1081 q 365 1090 354 1086 q 394 1094 376 1094 q 579 1053 503 1094 q 707 943 656 1013 l 708 942 q 778 849 749 901 q 826 738 807 797 q 853 613 844 678 q 861 482 861 549 q 847 369 861 429 q 806 250 832 308 q 744 138 781 192 q 665 42 708 83 q 573 -24 622 0 q 472 -49 524 -49 q 451 -51 461 -49 q 429 -57 440 -54 q 426 -58 428 -57 q 424 -58 425 -58 q 418 -60 421 -60 q 414 -61 417 -60 q 385 -65 401 -65 q 346 -53 363 -65 q 329 -58 335 -58 l 253 -58 l 253 -60 l 247 -60 q 235 -57 243 -60 q 233 -61 235 -60 l 233 -60 q 216 -87 225 -75 q 193 -99 207 -99 q 174 -90 182 -99 l 143 -60 l 144 -60 q 128 -50 133 -56 l 114 -121 l 79 -92 l 72 -85 l 33 -51 q 33 -43 33 -49 q 32 -33 33 -39 q 27 5 29 -18 q 25 43 25 28 l 25 314 q 22 333 22 329 q 19 349 22 338 q 19 351 19 350 q 18 356 18 353 q 17 363 17 357 q 16 365 17 364 q 15 369 15 367 q 9 403 11 386 q 6 431 7 421 q 3 453 4 435 q 2 499 3 471 q 1 563 1 526 q 0 639 0 599 l 0 750 q -1 859 0 804 q -3 960 -1 914 q -8 1038 -6 1006 q -14 1081 -10 1071 l 331 1096 l 333 1083 z "},"E":{"ha":661,"x_min":-17,"x_max":657,"o":"m 93 115 q 94 160 93 139 q 104 210 96 182 l 115 199 l 115 83 l 104 74 l 93 83 l 93 115 m 36 854 q 37 863 36 858 q 38 871 38 867 l 38 903 l 49 890 l 47 890 q 50 879 49 890 q 53 853 51 868 q 57 822 56 838 q 58 796 58 806 l 58 776 q 59 769 58 774 q 60 763 60 765 l 60 740 q 59 733 60 736 q 58 726 58 729 l 58 699 q 39 738 43 715 q 35 785 35 761 q 35 803 35 794 q 36 819 36 811 l 36 854 m 67 4 l 69 7 q 81 28 74 15 q 100 42 89 42 l 107 39 l 122 24 q 137 9 129 15 q 160 3 144 3 l 524 3 q 537 17 532 3 q 542 39 542 32 q 540 46 542 43 l 526 46 q 507 47 518 46 q 484 50 496 47 q 462 58 472 53 q 447 72 451 64 l 504 72 l 504 190 q 522 214 511 197 q 532 242 532 231 l 531 243 q 518 252 528 247 q 506 257 508 257 l 308 257 q 304 268 306 257 q 301 295 303 279 q 299 328 300 311 q 299 356 299 344 q 301 376 299 361 q 307 394 304 390 q 383 406 339 403 q 465 411 428 408 q 493 413 481 413 q 514 414 506 413 l 513 414 l 521 421 q 511 435 518 432 q 496 438 504 438 l 486 438 q 480 437 483 438 q 474 436 476 436 q 457 451 460 436 q 472 464 463 460 q 493 471 482 468 q 511 478 500 472 q 501 488 507 483 q 492 494 496 492 q 474 510 481 501 q 467 538 467 518 l 365 538 l 365 540 q 383 544 372 543 q 404 546 393 544 q 441 551 422 547 q 476 560 460 554 q 502 577 492 567 q 513 606 513 588 l 513 607 q 486 611 500 607 q 469 615 476 614 q 458 617 461 617 q 451 623 454 618 q 449 631 449 628 l 336 631 l 326 644 l 326 725 q 336 769 326 751 q 375 775 354 774 q 417 778 396 776 q 494 787 456 781 q 565 815 532 793 q 511 846 533 836 q 449 861 489 856 l 449 871 q 485 876 463 872 q 528 889 507 881 q 564 911 549 897 q 579 946 579 925 q 565 962 579 957 q 536 969 550 967 q 528 971 532 971 q 521 974 524 971 l 521 979 q 531 995 521 990 q 556 1004 542 1000 q 585 1016 571 1010 q 599 1042 599 1022 q 588 1067 599 1063 q 561 1074 578 1071 q 556 1074 558 1074 q 551 1075 554 1075 l 499 1075 q 482 1076 490 1075 q 467 1076 474 1076 l 444 1076 q 390 1075 417 1076 q 336 1071 364 1074 q 283 1067 310 1068 q 231 1065 257 1065 q 191 1067 210 1065 q 153 1071 172 1068 q 113 1075 133 1074 q 74 1076 93 1076 l 61 1076 q 53 1076 57 1076 q 47 1075 50 1075 l 29 1075 l 4 1024 l 58 10 l 58 11 l 67 4 m 38 -1 l -17 1028 l 17 1096 l 57 1096 q 59 1097 58 1096 q 61 1097 60 1097 l 74 1097 q 115 1096 94 1097 q 154 1092 135 1094 q 192 1088 174 1089 q 231 1086 211 1086 q 283 1088 257 1086 q 335 1092 308 1089 q 390 1096 363 1094 q 444 1097 417 1097 l 482 1097 q 486 1097 485 1097 q 490 1096 488 1096 l 553 1096 q 555 1095 554 1096 q 557 1094 556 1094 l 563 1094 q 597 1087 583 1092 q 617 1064 611 1082 l 617 1065 l 646 1036 q 654 1023 651 1031 q 657 1000 657 1015 q 641 965 657 974 q 606 949 625 956 l 629 926 q 638 904 638 918 q 619 860 638 876 q 578 832 601 843 q 590 825 586 826 l 604 815 l 600 811 l 639 774 q 544 731 588 739 q 460 719 500 722 q 423 717 440 718 q 389 713 406 715 q 385 683 385 697 l 385 651 l 469 651 l 469 643 l 476 635 l 475 635 q 477 634 476 635 q 479 633 478 633 l 483 633 l 483 632 l 486 632 l 490 632 q 511 628 499 629 q 533 628 524 628 l 533 619 l 571 582 l 571 564 q 557 524 571 539 q 524 501 543 510 l 524 494 l 532 486 q 539 478 535 483 q 546 471 543 474 l 543 469 l 560 453 q 569 443 564 449 q 581 431 575 438 q 568 424 576 428 q 553 418 560 421 l 569 401 q 583 372 579 392 l 564 356 q 535 354 557 354 q 521 353 528 354 q 507 353 514 353 l 497 353 q 428 347 464 350 q 360 338 392 344 q 357 314 357 324 q 357 296 357 307 q 356 278 357 286 l 506 278 q 524 271 508 278 q 546 258 539 264 q 553 246 553 249 l 585 214 q 590 208 589 210 q 590 200 590 207 q 580 167 590 185 q 561 140 569 150 l 561 54 l 593 22 q 599 3 599 7 q 600 -3 600 0 q 598 -17 600 -8 q 591 -35 596 -26 q 580 -49 586 -43 q 565 -56 574 -56 l 200 -56 q 174 -51 182 -56 q 158 -40 165 -47 l 138 -19 q 131 -30 133 -24 q 126 -40 128 -36 q 122 -49 124 -47 q 108 -62 119 -51 l 83 -42 l 68 -26 l 68 -28 l 38 -1 z "},"F":{"ha":653,"x_min":-8,"x_max":651,"o":"m 210 -14 l 210 -1 l 206 -1 l 210 -14 m 153 40 q 150 41 151 40 q 146 42 149 42 q 126 44 135 44 q 119 42 119 44 q 124 28 119 38 q 135 8 129 18 q 147 -9 142 -1 q 154 -15 153 -17 q 160 -1 160 -10 q 158 22 160 4 q 153 40 156 39 m 193 854 l 190 854 q 192 848 190 854 q 195 832 193 842 q 199 813 197 822 q 201 797 201 803 q 202 792 201 796 q 203 785 203 789 q 204 768 204 778 q 204 751 204 760 l 204 740 l 193 740 q 190 755 193 740 q 185 788 188 769 q 183 803 183 796 q 181 817 182 811 q 180 843 181 819 q 178 896 179 867 q 175 957 176 928 q 174 989 174 986 l 176 989 l 193 854 m 110 503 q 127 478 124 497 q 131 439 131 458 l 131 417 l 117 417 q 109 474 114 449 q 101 522 104 500 q 94 573 97 550 q 90 617 90 596 l 113 664 l 115 664 l 110 503 m 231 15 q 231 -10 231 4 q 233 -33 231 -24 l 233 -3 q 244 3 242 3 q 253 4 246 4 q 258 3 257 4 l 257 3 q 264 -5 261 1 q 268 -15 267 -11 l 268 -17 l 274 -22 q 294 5 285 -4 q 322 14 303 14 q 329 14 325 14 q 340 13 335 14 q 344 56 342 25 q 351 120 347 86 q 356 184 354 154 q 358 226 358 214 l 358 264 q 360 300 360 286 q 363 332 361 314 q 368 378 365 350 q 378 457 371 407 l 574 457 q 582 465 581 457 q 583 481 583 474 q 577 492 583 488 q 563 501 571 496 q 552 508 557 504 q 543 517 547 511 l 564 525 l 572 582 l 572 583 q 558 601 572 593 q 524 615 543 608 q 490 624 506 621 q 471 628 474 628 l 471 639 q 478 638 474 639 q 485 638 482 638 q 525 647 504 638 q 546 681 546 657 q 544 685 546 682 q 536 693 544 693 l 504 693 q 448 691 471 693 q 386 683 425 689 l 386 754 q 394 784 386 774 q 425 799 401 794 q 451 803 433 800 q 488 808 468 806 q 511 812 497 810 q 536 815 525 814 q 553 817 547 817 q 556 818 560 818 q 572 830 569 822 q 574 847 574 838 l 574 853 q 565 876 574 867 q 542 890 556 885 q 511 896 528 894 q 478 897 494 897 l 458 897 q 442 899 447 897 q 459 908 447 906 q 486 911 471 911 q 499 910 493 911 q 513 910 506 910 q 526 909 519 910 q 540 908 533 908 q 577 913 561 908 q 593 936 593 918 q 585 952 593 949 q 568 958 578 956 q 551 964 558 961 q 544 978 544 967 q 552 1017 544 1003 q 568 1040 560 1031 q 578 1053 575 1047 q 582 1068 582 1060 q 574 1076 582 1076 l 13 1076 q 27 844 13 958 q 61 614 42 731 q 95 381 81 496 q 110 150 110 267 l 110 114 q 204 49 138 49 l 204 182 l 221 192 q 222 181 221 190 q 226 159 224 172 q 229 139 228 146 q 235 103 232 121 q 239 68 239 85 l 239 58 q 238 55 239 61 q 235 44 236 49 q 231 31 231 36 l 231 15 m 154 -24 q 138 -9 147 -18 q 119 10 128 0 q 105 28 111 19 q 99 42 99 36 q 117 64 99 61 q 102 84 110 72 q 89 110 94 96 l 89 150 q 74 378 89 264 q 40 611 60 493 q 6 847 21 729 q -8 1097 -8 964 l 574 1097 q 601 1078 597 1097 l 635 1046 q 640 1026 640 1040 q 635 1003 640 1011 q 622 986 631 996 q 606 963 613 976 q 610 958 608 960 q 613 949 611 956 l 613 950 l 643 921 q 651 896 651 913 q 640 865 651 875 q 611 853 629 856 l 618 847 q 632 811 632 833 l 632 806 q 628 778 632 790 q 601 760 625 767 l 599 760 l 596 763 q 586 760 592 761 q 575 758 581 760 q 551 753 564 756 q 531 750 539 751 q 494 744 511 747 q 468 740 476 742 q 444 713 444 735 l 444 711 l 446 711 q 474 713 460 713 q 504 714 488 714 l 536 714 q 564 694 560 714 l 597 663 q 601 656 600 660 q 603 646 603 653 q 604 639 604 643 q 599 615 604 625 q 586 599 593 606 q 589 592 588 596 q 593 586 590 589 l 593 588 l 622 560 q 631 542 631 551 l 631 539 l 621 472 l 619 472 l 633 460 q 642 439 642 451 q 638 413 642 428 q 615 399 635 399 l 433 399 q 425 336 428 360 q 421 297 422 313 q 419 269 419 281 q 418 242 418 257 q 417 233 418 238 q 417 222 417 228 l 417 185 q 414 138 417 171 q 408 67 411 104 q 402 -2 406 31 q 397 -49 399 -35 q 375 -45 382 -46 q 364 -44 368 -44 q 344 -56 353 -44 q 319 -93 335 -68 l 292 -65 l 292 -93 l 265 -99 l 228 -61 l 222 -62 q 219 -56 219 -60 q 217 -49 218 -51 q 207 -69 214 -62 q 179 -50 203 -74 l 154 -24 z "},"G":{"ha":831,"x_min":-10,"x_max":825,"o":"m 318 78 q 335 76 328 78 q 351 72 343 75 q 367 68 360 69 q 385 67 375 67 l 385 53 l 379 53 q 340 56 363 53 q 306 78 318 58 l 318 78 m 86 703 q 85 672 86 694 q 84 625 85 650 q 81 578 83 600 q 74 549 78 557 l 71 549 l 65 661 l 65 668 q 70 692 65 682 q 86 718 75 703 l 86 703 m 307 464 q 342 399 325 438 q 358 328 358 360 q 358 324 358 325 q 357 321 357 322 l 357 314 q 319 372 331 335 q 307 440 307 410 l 307 464 m 592 115 q 610 94 601 108 q 624 65 618 81 q 633 32 629 49 q 638 3 636 15 l 639 1 l 642 1 q 656 12 650 1 q 665 36 661 22 q 671 63 669 50 q 672 78 672 75 l 676 78 q 678 78 678 78 q 679 79 678 79 l 682 78 q 690 74 689 75 q 694 71 692 72 q 703 65 699 68 q 711 60 708 63 l 718 76 q 726 189 719 133 q 742 299 733 244 q 759 422 751 361 q 767 544 767 482 q 751 583 767 578 q 696 589 736 589 q 673 572 679 589 q 663 535 667 554 q 654 500 660 517 q 635 475 649 483 l 635 563 q 623 578 635 572 q 596 588 611 585 q 566 591 581 590 q 547 592 551 592 q 530 591 542 592 q 515 589 518 590 l 517 589 l 507 579 l 507 514 l 492 514 l 492 579 l 475 579 q 478 505 475 542 q 485 432 481 468 q 492 356 489 394 q 496 276 496 317 q 415 300 447 276 q 363 360 382 324 q 335 442 343 397 q 326 526 326 486 q 394 726 326 661 q 599 797 463 792 l 599 799 q 599 800 599 800 q 600 801 600 800 q 590 814 600 811 q 568 818 579 817 q 539 824 553 821 q 525 847 525 828 q 544 847 535 847 q 563 846 554 847 q 579 844 571 844 q 594 844 588 844 q 617 846 606 844 q 640 853 629 847 q 626 863 632 857 q 606 880 611 874 q 601 908 601 886 l 608 908 l 654 900 l 660 900 q 586 952 631 940 q 497 964 542 964 q 476 964 486 964 q 458 963 468 964 l 457 965 q 504 983 479 981 q 556 986 529 985 q 608 990 583 988 q 653 1013 633 993 l 653 1014 q 653 1015 653 1015 q 654 1017 654 1015 q 647 1030 654 1021 q 628 1048 639 1039 q 608 1064 618 1057 q 594 1071 599 1071 l 593 1071 l 585 1065 q 575 1061 581 1061 l 558 1061 q 531 1063 543 1061 q 507 1067 519 1064 q 482 1071 494 1069 q 456 1072 469 1072 q 261 1025 344 1072 q 122 901 178 978 q 39 726 67 824 q 11 525 11 628 q 34 356 11 446 q 103 189 57 265 q 219 62 150 113 q 383 11 289 11 q 533 69 471 11 q 543 63 536 67 q 553 58 550 58 q 567 69 564 61 q 574 88 571 78 q 579 103 576 96 q 590 115 582 110 l 592 115 m 618 -6 q 617 4 617 -3 q 616 6 617 6 q 615 8 615 7 q 599 0 608 1 q 576 6 588 0 q 425 -47 513 -47 q 299 -21 354 -47 q 200 50 243 6 q 108 144 147 88 q 42 266 68 201 q 3 398 15 331 q -10 525 -10 465 q 19 733 -10 631 q 106 915 47 835 q 251 1044 164 996 q 456 1093 339 1093 q 484 1092 471 1093 q 510 1088 497 1090 l 515 1088 q 517 1087 517 1088 q 519 1086 518 1086 q 558 1082 540 1082 l 571 1082 l 574 1085 q 581 1090 576 1088 q 593 1092 585 1092 l 594 1092 q 612 1083 600 1092 q 636 1063 624 1075 q 660 1040 649 1051 q 674 1021 671 1028 l 674 1022 l 690 1006 q 706 988 700 996 q 713 975 713 981 q 711 972 713 972 l 711 963 q 656 931 688 939 q 701 882 676 913 l 704 878 l 708 875 q 713 870 711 872 q 717 865 714 868 q 727 855 721 861 q 738 843 733 849 l 693 843 l 683 843 l 719 810 q 674 791 692 796 q 644 786 656 786 l 650 781 q 657 760 657 774 q 656 757 657 757 l 656 739 q 453 673 521 735 q 385 485 385 611 q 392 402 385 444 q 418 325 399 360 l 418 326 q 475 299 442 304 q 467 404 474 354 q 465 417 465 411 q 464 431 465 424 q 457 509 460 468 q 454 600 454 550 l 497 600 l 503 606 q 526 610 510 608 q 547 613 542 613 q 565 612 551 613 q 596 608 579 611 q 628 597 613 604 q 650 576 643 589 q 666 601 656 592 q 696 610 676 610 q 756 606 736 610 q 783 578 776 601 l 783 579 l 813 551 q 825 503 825 539 q 817 378 825 439 q 800 256 810 317 q 785 144 792 200 q 776 32 778 89 l 757 -11 l 753 -7 l 736 6 q 731 8 733 7 q 726 11 729 10 q 720 -10 724 1 q 712 -33 717 -22 q 699 -50 707 -43 q 683 -57 692 -57 l 681 -57 q 672 -56 674 -57 q 663 -47 669 -54 l 635 -19 q 627 -16 629 -18 q 618 -7 625 -14 l 618 -6 z "},"H":{"ha":906,"x_min":-12,"x_max":896,"o":"m 411 617 q 397 604 408 604 l 382 604 q 350 606 363 604 q 315 614 338 607 l 315 617 l 411 617 m 660 315 q 663 308 663 315 q 660 286 663 300 q 656 260 658 272 q 653 247 654 253 q 653 242 653 240 q 643 231 653 231 q 635 242 635 231 q 638 255 635 243 q 646 281 642 267 q 654 305 650 294 q 660 315 658 315 m 542 463 q 538 457 549 461 q 517 447 528 453 q 498 438 507 442 q 489 433 489 433 l 486 435 l 511 457 l 511 456 q 521 467 514 464 l 561 538 l 564 538 l 542 463 m 690 194 q 691 185 690 189 q 692 176 692 181 l 692 151 q 691 141 692 146 q 690 132 690 136 l 690 110 q 687 80 690 99 q 681 61 683 61 l 671 61 l 671 72 l 679 214 l 690 226 l 690 194 m 126 56 q 126 73 126 61 q 124 98 125 85 q 121 122 122 111 q 118 139 119 133 q 117 147 118 142 q 117 158 117 151 q 115 171 115 165 q 115 183 115 178 q 118 192 115 192 q 129 190 124 192 q 138 179 135 189 l 138 156 q 138 149 138 153 q 139 142 139 144 l 139 132 q 140 115 139 122 q 142 101 140 108 q 142 92 142 96 q 143 82 143 88 q 142 66 143 75 q 136 46 140 57 l 126 56 m 147 699 q 147 718 147 704 q 144 747 146 732 q 141 774 143 761 q 138 793 139 788 q 136 799 138 794 q 132 811 135 804 q 128 831 128 824 q 135 842 128 840 q 149 843 143 843 q 160 842 154 843 q 168 831 165 840 l 168 807 q 169 800 168 804 q 169 793 169 796 l 169 783 q 168 737 169 758 q 157 688 167 715 l 147 697 l 147 699 m 103 -19 q 120 -8 103 -19 q 156 14 138 3 q 167 20 161 17 q 176 26 172 24 l 175 26 q 193 54 188 39 q 197 70 194 58 q 203 94 200 82 q 208 122 206 108 q 214 140 210 136 l 224 150 l 232 139 l 232 135 q 235 115 235 126 l 235 108 q 231 77 235 92 q 225 49 228 63 q 218 23 221 35 q 215 -3 215 11 q 242 2 228 -3 q 258 25 256 7 q 260 56 260 40 q 260 86 260 71 q 267 238 263 161 q 296 381 272 314 q 306 392 297 392 l 514 392 l 524 382 q 526 364 525 371 q 526 350 526 357 q 527 335 526 344 q 529 313 528 326 q 536 224 532 272 q 542 147 540 176 l 542 131 q 542 109 542 121 q 543 85 543 97 q 542 61 543 72 q 542 42 542 50 l 542 26 l 550 18 q 554 17 553 17 q 560 18 556 17 l 558 18 l 586 46 q 599 35 597 46 q 603 14 600 31 q 607 -11 606 -3 l 624 -11 q 624 1 624 -7 q 628 17 625 10 q 635 31 631 25 q 649 38 640 38 q 665 28 658 38 q 679 7 672 19 l 679 8 q 687 -7 682 1 q 696 -18 692 -15 l 696 0 q 700 39 696 21 q 711 75 704 57 q 722 110 718 93 q 726 147 726 128 q 725 167 726 160 q 792 600 768 388 q 838 1035 817 813 l 838 1044 q 833 1053 836 1047 q 828 1063 831 1060 l 826 1063 q 789 1054 803 1063 q 769 1033 775 1046 q 760 1001 763 1019 q 757 965 758 983 q 756 958 757 963 q 756 950 756 953 l 739 950 l 739 1071 l 579 1071 q 551 1065 569 1065 l 526 1065 q 499 1058 511 1065 q 486 1032 486 1051 l 486 1026 q 490 967 489 994 q 494 911 492 939 q 502 821 499 865 q 506 728 506 776 q 505 717 506 724 q 504 703 504 710 l 504 689 l 494 679 l 324 669 l 324 1064 q 321 1063 321 1064 q 319 1063 321 1063 l 315 1063 l 231 1053 l 222 1053 q 207 1056 213 1053 q 196 1063 201 1058 q 185 1069 190 1065 q 172 1072 179 1072 q 147 1067 161 1072 q 125 1063 136 1063 q 108 1067 117 1063 q 92 1072 97 1072 q 82 1071 88 1072 l 83 1071 q 64 1053 79 1068 q 44 1032 49 1039 q 35 1039 42 1035 q 26 1043 29 1043 l 22 1043 q 10 1037 11 1043 q 8 1024 8 1031 l 8 1007 l 65 288 q 68 277 67 285 q 71 260 69 269 q 74 243 72 251 q 75 232 75 235 q 78 183 76 217 q 83 110 81 149 q 88 36 86 71 q 93 -12 90 1 l 93 -11 l 103 -19 m 74 -24 q 68 32 71 -6 q 63 108 65 69 q 58 161 60 136 q 56 206 57 186 q 55 215 56 211 q 54 222 54 219 l 54 231 q 53 241 54 233 q 50 258 51 249 q 47 274 49 267 q 44 283 46 281 l -12 1006 l -12 1024 q -8 1051 -12 1038 q 22 1064 -4 1064 l 26 1064 q 39 1058 28 1064 q 60 1079 50 1069 q 72 1092 69 1089 q 78 1093 76 1093 q 92 1093 81 1093 q 103 1091 99 1093 q 114 1086 108 1089 l 115 1086 l 115 1085 l 118 1085 q 125 1083 121 1083 q 140 1086 132 1083 q 141 1087 140 1086 q 143 1088 142 1088 q 157 1092 150 1090 q 172 1093 164 1093 q 192 1091 186 1093 q 203 1086 197 1089 l 207 1082 q 222 1074 215 1074 l 229 1074 l 314 1083 l 326 1083 q 333 1084 329 1083 q 339 1085 336 1085 l 344 1085 l 344 1076 l 382 1039 l 382 693 l 483 699 l 483 710 q 484 714 483 713 q 485 718 485 715 l 485 728 q 482 813 485 772 q 475 896 479 854 q 474 899 475 897 q 474 903 474 900 l 474 910 q 469 965 471 938 q 465 1025 468 993 l 465 1032 q 484 1075 465 1064 q 526 1086 503 1086 l 551 1086 q 569 1092 560 1086 l 760 1092 l 760 1083 l 771 1071 q 826 1083 789 1083 l 838 1083 q 845 1074 842 1079 q 851 1061 849 1068 l 851 1063 l 878 1038 q 890 1018 886 1029 q 896 1003 894 1007 l 896 992 q 851 557 875 771 q 783 125 826 343 q 785 106 785 119 q 780 67 785 86 q 768 29 775 49 q 758 -3 763 14 q 754 -42 754 -21 q 755 -56 754 -47 q 761 -90 756 -64 q 734 -76 743 -82 q 719 -64 725 -69 l 700 -44 q 697 -43 699 -43 q 694 -42 696 -43 q 688 -37 692 -39 q 682 -32 685 -35 q 681 -53 681 -43 q 681 -69 681 -64 l 632 -69 l 601 -39 q 596 -42 597 -42 q 586 -39 592 -42 q 575 -32 579 -36 q 567 -24 571 -28 l 546 -4 q 543 -3 543 -4 q 542 0 542 -3 q 530 7 535 3 q 521 17 525 11 l 521 71 q 522 77 521 74 q 522 85 522 81 q 522 91 522 88 q 521 97 521 94 l 521 147 q 517 197 519 167 q 513 258 515 226 q 508 311 510 290 q 507 322 507 318 q 507 333 507 328 l 351 333 q 326 190 331 265 q 318 44 321 115 q 318 11 318 29 q 317 -21 318 -6 q 306 -42 314 -35 q 287 -54 299 -50 q 263 -60 275 -58 q 239 -61 250 -61 l 215 -37 q 211 -40 211 -37 q 208 -42 210 -42 q 206 -44 207 -43 l 204 -43 q 168 -65 186 -54 q 139 -75 150 -75 l 135 -75 l 135 -78 l 119 -64 l 97 -42 l 97 -44 l 74 -24 z "},"I":{"ha":408,"x_min":-14,"x_max":397,"o":"m 76 686 q 79 682 79 686 q 77 663 79 676 q 72 636 75 650 q 67 613 69 622 q 65 603 65 603 l 68 603 q 61 596 68 596 q 57 603 57 596 q 60 618 57 604 q 65 647 63 632 q 72 674 68 661 q 76 686 75 686 m 126 281 q 138 269 138 281 q 140 256 139 265 q 143 237 142 247 q 146 217 144 226 q 147 204 147 208 q 141 189 147 197 q 125 181 135 181 l 125 279 l 126 281 m 138 893 l 144 649 l 142 649 q 126 769 132 726 q 119 831 121 811 q 116 855 117 851 q 115 860 115 858 q 115 869 115 863 q 114 882 114 875 q 113 896 113 889 q 113 907 113 904 l 138 893 m 175 10 q 198 0 190 10 q 206 -24 206 -10 q 204 -36 206 -33 q 228 -22 217 -32 q 239 4 239 -11 l 238 7 q 229 13 236 10 q 219 15 222 15 l 210 25 q 212 35 210 29 q 217 46 214 40 l 219 54 q 228 106 222 72 q 240 176 233 140 q 251 242 246 213 q 257 279 256 271 q 261 319 258 288 q 267 388 264 351 q 273 454 271 424 q 275 493 275 485 q 288 583 281 539 q 301 672 294 628 q 327 847 315 760 q 339 1026 339 935 l 339 1074 q 332 1082 339 1079 l 324 1082 q 306 1072 321 1079 q 275 1060 290 1065 q 257 1053 258 1054 q 244 1059 254 1056 q 229 1063 233 1063 l 226 1063 q 177 1045 190 1063 q 156 997 164 1028 q 144 1007 146 999 q 142 1024 142 1015 q 141 1034 142 1031 q 143 1044 140 1038 q 126 1051 140 1049 q 97 1057 113 1054 q 67 1061 81 1060 q 49 1063 53 1063 q 20 1050 33 1063 q 7 1022 7 1038 q 10 1001 7 1011 q 17 981 14 992 q 22 962 19 971 q 26 942 25 953 q 31 895 28 926 q 37 831 33 864 q 42 770 40 797 q 44 738 44 743 q 49 594 47 665 q 51 451 50 522 q 55 263 53 356 q 64 74 57 169 l 64 58 q 65 46 64 47 l 92 46 q 98 22 92 40 q 110 0 104 4 l 108 0 q 118 -1 117 -1 q 125 -1 121 -1 q 150 4 136 -1 q 161 8 156 7 q 175 10 167 10 m 53 25 l 44 25 l 44 36 q 44 43 44 39 q 43 50 43 47 l 43 72 q 34 262 36 168 q 31 451 32 356 q 28 594 29 522 q 24 738 26 665 q 22 769 24 743 q 16 829 19 796 q 10 894 13 863 q 6 940 7 925 l 3 949 q 1 956 1 951 q -1 965 0 961 l -1 964 q -3 969 -3 965 q -3 971 -3 969 q -4 974 -3 972 q -6 979 -6 975 q -6 981 -6 981 q -7 983 -7 982 q -12 1001 -10 992 q -14 1022 -14 1010 q 6 1064 -14 1044 q 49 1083 26 1083 q 67 1081 53 1083 q 97 1076 81 1079 q 131 1067 114 1072 q 157 1057 147 1063 q 183 1076 168 1069 q 226 1083 199 1083 l 229 1083 q 256 1074 236 1083 q 260 1076 258 1075 q 265 1078 261 1076 l 265 1079 q 295 1092 279 1085 q 314 1103 311 1100 l 336 1103 q 360 1079 356 1096 l 360 1081 l 392 1049 q 397 1032 397 1043 l 397 985 q 385 803 397 892 q 358 628 374 715 q 356 617 357 622 q 354 606 356 611 q 342 529 347 567 q 332 451 336 492 l 332 450 q 329 409 332 440 q 324 342 326 378 q 318 274 321 306 q 314 235 315 243 q 308 198 313 226 q 297 134 303 169 q 286 65 292 99 q 278 14 281 32 l 274 -3 l 272 -4 l 272 -6 l 293 -26 l 297 -35 q 269 -78 297 -58 q 208 -107 240 -97 l 169 -68 l 156 -74 q 163 -60 160 -62 q 153 -60 156 -60 q 143 -58 150 -60 l 107 -22 l 104 -22 q 103 -21 103 -22 q 101 -21 103 -21 l 97 -17 q 96 -14 96 -15 q 94 -12 96 -14 l 90 -12 l 53 25 z "},"J":{"ha":688,"x_min":-7,"x_max":683,"o":"m 28 21 q 27 22 28 21 q 25 22 26 22 q 22 19 22 22 q 25 17 22 17 q 28 19 28 17 l 28 21 m 339 892 q 340 938 339 918 q 350 989 342 957 l 361 957 l 361 815 q 342 841 346 824 q 339 874 339 858 l 339 892 m 499 426 q 508 405 506 418 q 511 375 511 392 q 507 320 511 350 q 497 264 503 290 q 483 218 490 238 q 471 194 476 199 q 461 214 461 197 q 467 257 461 231 q 481 307 474 283 q 488 338 485 325 q 492 358 492 351 l 492 361 l 499 426 m 42 10 l 57 1 l 74 1 q 125 -3 101 1 q 172 -12 149 -7 q 219 -23 196 -18 q 271 -28 243 -28 q 312 -17 296 -28 q 343 7 328 -7 q 363 23 351 15 q 389 39 374 31 q 385 25 389 31 q 379 13 382 19 q 372 0 375 6 q 368 -12 368 -6 q 391 0 378 -11 q 417 27 404 11 q 438 59 429 43 q 450 86 447 75 q 464 97 460 92 q 472 107 468 101 q 477 113 475 110 q 485 122 479 117 q 521 192 497 132 q 558 346 544 251 q 559 421 558 386 q 563 496 560 456 q 565 577 564 532 q 568 686 567 622 q 571 758 569 733 q 573 795 572 783 q 574 810 574 807 q 574 813 574 813 q 572 817 574 814 l 585 939 l 625 1058 q 619 1067 625 1064 q 614 1065 619 1065 q 606 1063 608 1064 q 594 1060 601 1061 q 589 1058 588 1058 q 581 1069 581 1058 l 293 1076 q 288 1075 292 1075 q 261 1069 278 1072 q 244 1065 244 1065 q 254 1040 244 1063 q 265 1012 260 1026 q 271 997 271 997 l 274 942 q 285 823 276 875 q 306 715 294 771 q 318 656 313 688 q 329 589 324 625 l 325 526 q 319 438 322 481 q 311 358 317 394 q 271 265 300 300 q 188 229 242 229 q 154 233 172 229 q 119 249 135 233 q 88 285 103 265 q 57 317 72 301 q 26 335 42 333 l 21 246 l 89 178 l 76 178 l 39 186 l 32 186 q 61 159 46 167 q 89 146 76 151 q 113 132 108 139 l 113 133 q 114 128 114 132 q 111 118 114 122 l 64 94 q 87 88 71 93 q 106 75 103 82 l 106 76 l 124 58 q 114 46 124 47 l 108 46 q 73 56 93 46 q 40 72 53 65 q 38 61 39 63 q 49 42 38 47 q 75 33 61 36 l 88 29 q 65 18 76 22 q 43 10 54 14 l 42 10 m 117 285 q 125 275 119 281 q 129 270 128 272 q 133 265 131 268 q 158 254 147 254 q 188 250 176 250 q 256 281 232 250 q 290 364 281 313 q 297 424 294 392 q 301 492 299 457 q 302 501 301 496 q 303 510 303 506 q 304 528 303 521 l 308 588 q 297 653 303 624 q 285 711 292 683 q 265 817 274 764 q 253 942 256 869 l 250 996 q 242 1016 243 1011 q 235 1033 240 1021 q 226 1053 229 1044 q 224 1065 224 1063 q 239 1088 224 1085 q 269 1093 254 1092 q 283 1096 275 1093 l 282 1096 l 283 1097 l 601 1090 l 601 1083 l 618 1088 q 644 1068 639 1088 l 644 1069 l 678 1036 q 683 1017 683 1031 l 643 896 l 631 778 q 632 771 632 776 q 632 768 632 771 q 631 753 632 765 q 629 717 631 742 q 626 644 628 692 q 624 564 625 600 q 622 499 624 528 q 622 475 622 486 q 621 453 621 464 q 617 378 618 413 q 617 303 617 343 q 576 140 603 203 q 536 67 550 78 q 528 57 529 60 q 526 56 526 56 q 526 54 528 56 l 522 50 q 515 40 518 44 q 506 32 513 36 l 506 33 q 488 3 500 21 q 458 -32 475 -15 q 424 -60 442 -49 q 393 -71 407 -71 l 383 -61 q 353 -78 369 -71 q 313 -86 338 -86 q 265 -83 286 -86 q 222 -74 243 -79 q 215 -72 219 -72 q 210 -71 213 -72 q 163 -61 186 -65 q 115 -57 140 -57 l 94 -57 l 65 -42 q 51 -37 56 -42 l 18 -4 l 19 -4 q 1 19 1 0 q 6 32 1 24 q 21 43 10 40 q 17 61 17 49 l 24 107 q 33 100 28 103 q 43 94 39 97 l 42 108 l 71 121 l 56 138 l 57 138 q 26 161 42 146 q -7 207 11 176 l 29 207 l 0 236 l 7 356 q 62 341 43 356 q 96 307 81 326 q 98 304 97 306 q 100 301 99 303 l 104 297 l 104 294 l 106 294 l 117 285 z "},"K":{"ha":811,"x_min":-4,"x_max":813,"o":"m 531 13 q 525 4 525 13 q 531 -4 525 -4 q 536 4 536 -4 q 531 13 536 13 m 547 690 q 550 689 550 690 q 551 682 551 688 q 544 675 551 675 q 538 676 539 675 q 536 681 536 678 q 540 687 536 683 q 547 690 544 690 m 154 953 q 155 959 154 956 q 156 967 156 963 l 156 982 q 168 942 168 963 l 168 899 q 167 892 168 896 q 167 886 167 889 l 167 861 q 156 881 160 868 q 153 904 153 893 q 153 913 153 908 q 154 921 154 917 l 154 953 m 425 340 l 428 340 q 453 290 439 319 q 468 235 468 260 q 446 244 454 235 q 433 268 438 254 q 426 297 428 282 q 425 321 425 311 l 425 340 m 194 224 l 197 222 l 176 78 l 164 78 l 164 174 l 194 224 m 607 42 q 623 12 613 29 q 646 -22 633 -6 q 672 -51 658 -39 q 699 -62 686 -62 q 695 -3 699 -31 q 688 51 692 24 q 683 83 685 67 q 678 117 681 99 l 538 631 l 538 633 q 549 659 538 642 q 576 697 560 676 q 612 740 593 718 q 646 778 631 761 q 658 791 653 785 q 668 801 664 797 q 686 823 674 807 q 712 856 699 839 q 737 890 725 874 q 753 913 749 906 l 753 918 q 753 922 753 921 q 754 925 754 922 q 745 966 754 944 q 721 1006 736 988 q 687 1038 706 1025 q 647 1050 668 1050 l 643 1050 q 638 1022 643 1039 q 624 988 632 1004 q 605 958 615 971 q 582 946 594 946 l 579 946 q 574 949 576 946 q 598 990 590 974 q 606 1029 606 1006 q 599 1049 606 1046 q 578 1051 592 1051 l 572 1051 q 538 1040 549 1051 q 515 1008 526 1028 q 514 1006 514 1007 q 513 1003 514 1004 q 479 951 503 989 q 431 869 456 913 q 383 788 406 826 q 353 733 361 749 q 343 722 349 722 q 340 724 342 724 q 335 725 339 725 q 338 813 335 769 q 343 900 340 856 q 349 985 346 942 q 353 1072 353 1028 q 330 1070 342 1072 q 307 1060 318 1068 q 306 1056 307 1058 q 306 1053 306 1054 q 301 1030 304 1044 q 294 1001 299 1015 q 284 974 290 986 q 268 954 278 961 q 264 971 265 965 q 261 983 263 976 q 245 1036 256 1011 q 207 1061 235 1061 q 189 1054 196 1061 q 178 1037 182 1047 q 171 1014 174 1026 q 167 992 168 1001 q 156 1004 160 996 q 150 1021 153 1013 q 143 1041 147 1032 q 128 1050 139 1050 l 53 1050 q 35 1034 42 1050 q 24 999 28 1018 q 18 962 19 979 q 17 940 17 944 q 24 799 17 864 q 38 667 31 733 q 47 585 43 626 q 54 500 51 544 q 59 424 57 460 q 63 356 61 389 q 69 233 65 293 q 83 97 72 172 q 88 74 85 88 q 93 47 90 60 q 99 25 96 35 q 101 15 101 15 l 100 15 l 146 6 q 149 19 146 10 q 154 32 151 29 q 161 35 160 35 q 174 26 167 35 q 186 9 181 18 q 195 -8 192 0 q 199 -17 199 -17 l 199 29 q 204 34 203 33 q 208 35 206 35 q 213 33 211 35 l 240 6 l 247 6 q 253 14 250 8 q 257 22 257 19 l 304 415 q 313 426 306 425 q 325 428 319 428 q 340 417 332 428 q 353 393 347 407 q 364 365 360 379 q 371 344 368 351 q 372 342 371 343 q 372 340 372 342 q 377 324 374 336 q 385 296 381 311 q 396 259 390 278 q 399 243 401 240 q 413 210 401 236 q 440 153 425 185 q 471 90 456 121 q 494 42 486 58 q 495 40 494 42 q 499 35 496 38 q 506 20 501 28 q 519 11 511 13 l 519 46 q 531 33 526 39 q 542 19 536 26 q 556 0 549 8 q 578 -10 564 -8 q 573 24 578 7 q 563 58 568 40 q 551 94 556 76 q 547 132 547 113 l 547 154 l 550 154 l 607 42 m 411 1046 q 408 958 411 1004 q 403 871 406 911 q 402 867 403 868 q 401 864 401 867 q 456 953 429 910 q 494 1014 482 996 q 496 1018 494 1017 l 496 1019 q 526 1058 511 1043 q 572 1072 540 1072 l 578 1072 q 606 1070 596 1072 q 621 1056 615 1068 q 622 1071 622 1061 l 647 1071 q 705 1050 678 1071 q 750 1001 732 1029 l 763 989 q 799 938 785 967 q 813 885 813 910 q 812 883 813 883 q 811 881 811 882 l 811 865 q 794 841 807 858 q 768 805 782 824 q 741 769 754 786 q 722 747 728 753 l 714 739 q 708 732 711 736 q 700 724 704 728 q 667 688 685 708 q 634 649 650 668 q 608 615 618 631 q 596 593 597 600 l 736 81 q 739 60 738 69 q 742 39 740 50 q 744 26 743 32 q 746 13 744 19 q 753 -45 750 -15 q 757 -121 757 -75 q 721 -112 738 -121 q 689 -87 704 -103 l 671 -69 q 633 -37 651 -58 q 635 -51 635 -44 q 635 -68 635 -58 q 607 -65 618 -68 q 589 -56 596 -61 q 572 -62 582 -62 q 556 -57 561 -62 l 524 -25 q 504 -1 506 -21 q 489 8 493 1 q 482 22 485 15 q 479 26 479 28 q 476 32 476 28 q 453 80 468 49 q 422 143 438 111 q 395 201 407 175 q 381 233 383 226 l 382 233 q 379 242 381 238 q 375 253 378 246 q 372 262 374 257 q 369 271 371 267 q 368 275 368 274 q 367 281 368 278 q 364 290 364 286 q 360 302 361 297 q 358 313 360 307 l 356 318 l 315 -21 q 308 -37 314 -28 q 297 -53 303 -46 l 274 -53 l 256 -35 l 256 -61 l 238 -43 q 236 -42 238 -42 q 222 -32 231 -37 q 206 -24 213 -26 q 204 -40 204 -31 q 204 -56 204 -51 l 133 -42 l 97 -6 l 99 -6 l 90 -4 q 85 9 89 -3 q 76 37 81 21 q 68 69 72 53 q 63 96 64 86 q 51 206 54 156 q 44 306 47 257 q 44 319 44 313 q 43 332 43 325 q 42 338 43 335 q 42 343 42 340 l 42 356 q 38 424 40 389 q 33 499 36 458 q 26 584 31 543 q 17 665 22 625 q 15 679 15 669 q 15 686 15 682 q 14 694 14 690 q 13 707 13 701 q 11 719 13 713 q 1 826 6 772 q -4 940 -4 879 q -1 965 -4 944 q 8 1010 1 986 q 25 1052 14 1033 q 53 1071 36 1071 l 128 1071 q 160 1051 151 1071 q 178 1074 167 1065 q 207 1082 190 1082 q 244 1070 231 1082 q 264 1043 257 1058 l 264 1044 l 278 1031 q 280 1042 279 1036 q 283 1051 281 1047 l 283 1054 q 285 1057 285 1056 q 286 1063 286 1058 l 286 1071 q 331 1090 307 1086 q 374 1093 354 1093 l 374 1085 l 411 1047 l 411 1046 z "},"L":{"ha":572,"x_min":-4,"x_max":567,"o":"m 182 68 q 159 64 181 67 q 122 58 138 61 l 100 58 q 128 82 108 76 q 164 88 149 88 l 182 88 l 182 68 m 403 75 l 268 71 l 268 74 l 381 100 l 403 75 m 111 1003 q 114 1020 111 1014 q 133 1035 117 1026 l 135 1011 l 135 968 q 134 915 135 944 q 132 860 133 886 q 128 813 131 833 q 124 785 126 792 q 118 826 121 793 q 114 894 115 858 q 112 962 113 931 q 111 1000 111 993 l 111 1003 m 44 14 l 372 -8 l 401 -8 q 429 -6 414 -8 q 458 1 444 -4 q 480 14 471 6 q 489 36 489 22 l 488 39 l 488 38 q 472 54 485 42 q 456 69 460 67 l 494 88 l 446 128 q 455 140 447 129 q 472 165 463 151 q 488 190 481 179 q 494 204 494 201 q 488 213 494 210 q 471 217 481 215 q 451 220 461 219 q 433 221 440 221 l 268 221 q 278 352 272 297 q 291 447 285 407 q 304 515 297 486 q 318 572 311 544 q 324 597 321 585 q 331 624 328 610 l 329 692 q 333 742 329 717 q 349 790 336 767 q 356 861 351 826 q 365 929 361 896 q 375 1010 371 974 q 379 1065 379 1046 q 376 1081 379 1081 l 342 1071 l 56 1071 q 24 1051 39 1071 l 24 1001 l 33 539 q 38 533 33 536 q 46 526 42 529 q 58 508 58 517 q 54 499 58 503 q 35 488 50 494 l 44 479 l 53 79 l 44 14 m 32 79 l 32 81 l 24 468 l 24 467 l -4 492 q 10 497 4 494 q 23 502 18 500 q 33 508 28 504 l 32 510 q 19 521 25 514 q 13 539 13 528 l 3 1001 l 3 1060 q 56 1092 28 1092 l 335 1092 l 371 1101 q 399 1081 392 1101 l 399 1082 l 429 1050 q 436 1024 436 1040 q 433 981 436 1007 q 426 924 431 956 l 424 886 q 422 878 422 882 q 421 868 422 874 q 413 806 417 838 q 407 743 410 774 q 391 697 394 719 q 388 650 388 674 l 389 579 q 383 553 386 565 q 376 528 379 540 q 363 477 369 503 q 351 418 357 451 q 339 342 344 385 q 329 242 333 300 l 433 242 q 455 240 442 242 q 481 235 468 239 q 502 224 493 231 q 514 208 511 218 l 514 210 l 547 178 q 553 163 553 172 q 540 135 553 157 q 515 96 526 114 l 532 83 l 528 81 l 567 43 l 526 24 l 542 8 l 547 -3 q 537 -35 547 -22 q 510 -54 526 -47 q 476 -64 494 -61 q 442 -67 457 -67 l 413 -67 l 68 -43 l 31 -6 l 22 -6 l 32 79 z "},"M":{"ha":975,"x_min":-7,"x_max":961,"o":"m 869 1060 l 769 1106 q 742 1091 756 1094 q 714 1085 728 1088 q 712 1084 713 1085 q 710 1083 711 1083 l 706 1083 q 655 1072 678 1079 q 625 1039 632 1065 q 602 999 618 1021 q 567 954 586 976 q 556 940 561 949 q 528 906 540 924 q 508 868 517 888 l 511 865 q 504 835 507 851 q 500 807 501 818 l 500 808 l 478 789 l 433 885 l 403 915 l 403 914 l 394 929 l 372 924 q 367 930 369 926 q 363 936 365 933 l 354 949 q 328 980 340 964 q 311 1011 317 996 q 305 1026 308 1021 q 299 1033 301 1031 l 272 1060 l 272 1058 q 241 1090 260 1085 q 201 1094 222 1094 q 181 1096 190 1094 q 161 1106 171 1097 l 64 1099 q 18 1088 43 1097 q -7 1061 -7 1078 l -7 1047 l 50 1 l 58 1 l 96 -36 l 99 -36 q 100 -40 99 -39 q 103 -43 100 -43 q 123 -70 113 -58 q 146 -86 133 -82 l 172 -112 q 196 -125 185 -125 q 219 -92 219 -125 l 219 -65 q 221 -43 219 -53 q 228 -28 222 -33 q 236 -31 231 -28 q 246 -37 242 -35 q 263 -42 251 -42 q 290 -21 279 -42 q 313 60 301 0 l 342 308 q 356 278 347 294 q 378 261 365 263 l 410 229 q 421 224 415 224 q 438 232 431 224 l 439 231 l 439 232 q 456 184 446 206 q 485 151 467 163 l 485 154 l 514 125 q 517 122 515 124 q 525 118 518 121 q 543 159 536 136 q 554 206 550 182 q 557 218 556 213 q 560 231 558 224 q 562 243 561 238 q 564 253 563 249 l 564 251 q 578 269 572 257 q 588 293 583 281 q 606 319 597 308 q 626 336 615 329 l 628 336 l 653 96 q 657 76 657 88 q 653 44 657 61 q 644 14 649 28 q 633 -32 633 -17 q 650 -60 633 -56 l 649 -60 l 683 -93 q 700 -97 688 -97 q 742 -69 717 -97 q 790 -11 767 -40 q 799 -1 794 -6 q 806 7 803 3 q 817 22 814 18 l 821 18 q 831 10 826 13 l 832 10 q 846 -3 840 1 q 874 -27 858 -15 q 914 -42 889 -39 l 961 983 l 924 1021 l 924 1028 l 869 1060 m 817 51 q 793 74 804 64 q 774 83 782 83 q 759 71 769 83 q 735 42 749 58 q 713 14 724 28 q 691 -12 701 0 q 672 -31 681 -24 q 658 -39 663 -39 q 654 -32 654 -39 q 657 -15 654 -25 q 664 8 660 -4 q 674 42 669 24 q 678 76 678 61 q 674 100 678 89 l 644 393 l 628 471 q 600 419 613 435 q 574 392 588 403 q 553 373 563 385 q 529 338 543 361 q 522 317 526 326 q 513 307 517 307 l 510 307 q 503 287 507 304 q 496 250 500 269 q 487 210 492 231 q 476 182 482 190 q 467 201 471 188 q 460 231 464 214 q 455 267 457 249 q 451 301 453 286 q 449 313 450 306 q 447 324 447 321 l 446 324 q 436 301 443 311 q 414 281 429 290 q 410 288 411 285 q 406 297 408 292 l 396 315 q 389 299 392 310 q 384 287 386 292 q 379 282 382 282 q 372 288 375 282 q 365 303 368 294 q 360 318 361 311 q 358 326 358 325 l 368 356 q 341 396 353 381 q 318 424 329 411 q 290 460 303 440 q 261 515 276 479 l 258 515 l 292 400 l 254 104 q 238 35 244 53 q 222 17 232 17 q 214 19 219 17 l 215 19 q 202 26 210 22 q 186 31 194 31 q 172 25 176 31 q 163 6 165 18 q 161 -24 161 -7 l 161 -50 q 154 -67 161 -67 q 138 -53 147 -67 q 117 -25 128 -40 q 94 7 106 -8 q 71 22 82 22 l 14 1049 l 14 1061 q 32 1072 14 1068 q 65 1078 50 1076 l 153 1085 q 174 1075 163 1076 q 201 1074 186 1074 q 233 1070 218 1074 q 254 1049 247 1067 q 273 1009 261 1025 q 299 978 285 993 q 324 945 313 961 q 343 913 336 929 q 344 907 343 908 l 344 908 q 354 885 349 899 q 361 864 360 872 q 376 882 371 865 q 382 907 381 899 l 458 746 l 521 797 q 522 809 521 800 q 523 828 522 818 q 524 846 524 838 q 526 857 525 854 q 550 899 535 878 q 583 940 565 919 q 620 987 603 964 q 644 1033 638 1010 q 671 1056 650 1051 q 715 1064 692 1061 q 747 1069 731 1067 q 774 1079 764 1072 l 843 1049 l 903 1014 l 857 18 q 839 31 850 21 q 817 51 828 40 m 842 789 q 822 750 822 774 q 821 738 822 753 q 817 707 819 724 q 807 633 813 675 q 801 567 801 592 q 810 543 801 543 q 814 576 810 553 q 824 629 818 599 q 831 672 828 650 q 838 715 835 694 q 844 753 842 736 q 846 779 846 769 q 845 784 846 782 q 844 788 844 786 l 842 789 m 318 567 q 325 548 318 556 q 342 533 332 540 q 356 522 349 528 q 365 510 363 517 l 368 510 l 368 517 q 369 521 368 519 q 369 525 369 522 q 358 561 369 540 q 332 603 346 582 q 319 623 325 614 q 311 635 314 632 l 308 635 q 311 624 311 626 q 313 610 311 621 q 317 582 315 596 q 318 567 318 568 m 254 724 q 253 718 253 722 q 257 713 253 713 q 265 722 260 713 q 271 733 271 732 q 263 761 271 735 q 244 819 254 788 q 225 878 233 851 q 215 904 217 904 l 256 725 l 254 724 m 533 525 q 533 531 533 528 q 532 538 532 535 l 532 543 l 529 543 q 514 508 518 522 q 510 474 510 493 l 510 465 q 510 461 510 463 q 511 458 511 460 l 514 458 q 533 525 533 494 m 103 260 l 103 258 q 104 255 103 260 q 107 242 106 250 q 110 224 108 233 q 114 207 113 214 q 121 179 121 183 l 121 172 q 124 167 121 169 l 126 169 l 125 169 q 132 179 132 172 q 128 194 132 181 q 120 222 125 207 q 110 249 115 238 q 104 261 106 261 l 103 260 m 803 186 q 796 175 796 186 q 803 165 796 168 l 801 165 l 804 163 q 807 168 807 165 l 807 175 q 801 186 807 192 l 803 186 m 540 564 q 535 557 535 561 q 542 550 535 550 q 546 557 546 550 q 542 564 546 564 l 540 564 m 449 324 l 447 324 q 447 325 447 325 q 449 324 449 325 z "},"N":{"ha":840,"x_min":-12,"x_max":833,"o":"m 335 658 q 343 647 343 658 q 335 636 343 636 q 326 647 326 636 q 335 658 326 658 m 232 226 q 233 221 232 224 q 233 217 233 218 q 232 194 233 203 q 224 171 231 185 l 221 171 q 220 176 221 172 q 219 185 219 181 l 219 201 q 219 207 219 204 q 218 213 218 210 q 222 227 218 219 q 232 238 225 235 l 232 226 m 561 758 l 549 746 l 549 788 q 550 835 549 815 q 558 882 551 854 l 561 882 l 561 758 m 343 639 q 354 629 354 639 q 364 614 357 626 q 378 590 371 601 l 378 592 q 381 586 381 589 q 381 585 382 583 q 389 568 383 578 q 400 547 394 558 q 420 508 411 526 q 429 488 429 489 l 482 394 l 479 393 q 465 408 475 396 q 444 435 456 419 q 421 467 432 451 q 401 496 410 483 l 390 513 q 376 542 385 524 q 360 577 368 560 q 347 607 353 594 q 342 619 342 619 l 342 638 l 343 639 m 551 114 q 555 97 553 108 q 560 71 557 85 q 565 45 563 57 q 569 29 567 33 q 575 14 569 25 q 588 -24 579 -1 q 604 -51 597 -46 q 609 -40 607 -46 q 614 -26 611 -35 q 617 -17 615 -21 q 619 -8 618 -12 q 626 6 622 -1 q 635 13 629 13 q 639 14 638 14 q 653 3 649 14 q 660 -17 657 -7 q 660 -19 660 -18 q 661 -22 661 -19 l 669 -8 l 735 638 l 735 647 q 740 681 736 654 q 749 740 744 708 q 756 800 753 772 q 763 835 760 828 q 767 891 765 860 q 772 955 769 922 q 774 1020 774 988 q 775 1079 775 1053 q 759 1078 769 1079 q 738 1076 749 1078 q 714 1075 725 1075 q 699 1075 703 1075 q 693 1073 699 1074 q 685 1071 688 1072 q 671 1067 676 1067 q 644 1071 661 1067 q 631 1073 638 1072 q 624 1075 625 1074 l 611 1075 q 543 1058 565 1075 q 514 1031 521 1040 q 510 1027 511 1028 q 508 1026 508 1026 q 503 1029 507 1026 l 483 1067 q 481 1068 482 1068 q 468 1058 469 1068 q 467 1040 467 1049 l 467 1038 q 467 917 467 975 q 469 801 468 860 q 472 684 471 743 q 472 564 472 625 q 469 561 472 561 q 462 563 467 561 q 454 571 457 565 q 395 693 424 633 q 342 814 367 753 q 296 938 317 875 q 258 1068 275 1000 l 258 1067 l 249 1075 l 167 1075 q 163 1065 165 1075 q 158 1049 160 1056 q 158 1033 158 1044 q 160 1011 158 1024 q 162 988 161 999 q 163 972 163 976 l 147 972 q 131 1019 139 1000 q 110 1051 122 1039 q 77 1069 97 1064 q 26 1075 57 1075 l 24 1075 q 8 1068 11 1075 l 8 1036 q 10 933 8 983 q 14 831 11 882 q 19 728 17 779 q 21 626 21 678 q 38 619 29 625 q 46 603 46 614 l 46 600 q 49 576 47 593 q 53 540 51 560 q 55 503 54 521 q 56 478 56 486 l 56 394 q 59 366 56 383 q 64 349 63 349 l 78 349 l 78 481 l 93 471 l 93 356 q 83 336 83 346 l 83 315 q 88 220 83 271 q 100 121 93 169 q 113 15 108 67 l 136 39 q 140 41 139 40 q 142 42 142 42 q 144 41 143 42 q 150 39 146 40 q 158 28 153 36 q 167 14 164 19 l 185 67 q 194 72 185 72 q 210 59 200 72 q 231 28 221 46 q 249 -6 242 11 q 260 -32 257 -24 q 274 -1 271 -17 q 278 31 278 15 q 274 42 278 38 q 267 53 271 47 q 257 76 257 65 q 257 78 257 78 q 258 86 257 79 l 267 104 q 272 131 268 113 q 281 169 276 150 q 290 206 286 189 q 296 226 294 222 l 314 376 l 318 376 q 319 376 319 376 q 321 378 319 378 l 326 375 l 336 367 q 356 340 342 360 q 384 299 369 321 q 412 256 399 276 q 429 226 425 235 l 439 208 l 514 21 l 514 22 l 522 14 q 530 42 526 25 q 535 75 533 58 q 538 106 538 92 q 539 128 539 119 l 551 115 l 551 114 m 625 1089 q 633 1088 626 1089 q 643 1088 640 1088 q 647 1088 646 1088 q 650 1089 649 1089 l 653 1092 l 654 1090 l 654 1089 q 667 1088 658 1088 l 669 1088 q 681 1092 675 1089 l 697 1096 q 713 1096 701 1096 q 736 1097 724 1096 q 763 1099 749 1099 q 796 1100 776 1100 l 796 1092 l 833 1054 q 833 986 833 1022 q 830 915 832 950 q 826 846 828 879 q 821 788 824 813 q 814 751 818 776 q 807 697 810 725 q 802 665 804 681 q 797 636 800 649 q 793 606 793 615 l 793 594 l 728 -56 l 703 -101 l 669 -68 l 669 -75 q 665 -90 668 -83 q 650 -117 661 -97 q 647 -115 649 -115 q 644 -112 646 -114 q 640 -109 642 -110 q 635 -106 638 -108 l 607 -76 q 590 -60 597 -71 q 575 -39 582 -50 q 572 -46 572 -42 q 570 -51 571 -49 q 568 -57 569 -54 l 529 -18 l 529 -19 l 529 -24 l 497 8 l 421 199 l 419 201 l 419 200 l 410 217 q 393 243 406 224 q 365 285 381 263 l 354 183 q 349 163 353 179 q 340 126 344 146 q 331 87 335 106 q 325 60 326 68 l 317 42 q 315 35 315 36 q 321 24 315 29 q 322 22 321 22 q 323 20 322 21 q 324 18 324 19 l 324 19 q 333 6 329 13 q 336 -11 336 0 q 326 -58 336 -31 q 288 -124 317 -85 l 249 -85 q 248 -87 249 -86 q 247 -89 247 -87 l 240 -96 q 236 -67 240 -87 q 225 -24 232 -46 l 208 -74 l 169 -35 l 167 -46 q 164 -40 164 -43 l 164 -39 l 142 -64 l 103 -25 l 96 -32 q 92 0 94 -19 q 88 42 90 19 q 83 84 86 64 q 79 119 81 104 q 67 219 72 168 q 63 315 63 271 l 63 328 q 56 338 60 329 q 47 356 51 346 q 38 377 42 367 q 35 394 35 388 l 35 478 q 34 499 35 485 q 32 529 33 513 q 29 561 31 546 q 26 588 28 576 l 26 586 l 8 606 l 0 606 q -1 699 0 649 q -6 793 -3 749 q -6 801 -6 797 q -7 811 -7 806 l -7 831 q -11 933 -10 882 q -12 1036 -12 983 l -12 1072 q 3 1093 -4 1090 q 24 1096 11 1096 l 26 1096 q 97 1085 71 1096 q 138 1051 122 1075 q 151 1080 140 1064 q 167 1096 163 1096 l 260 1096 l 278 1079 q 279 1072 278 1074 l 315 1036 q 374 841 339 932 q 450 660 408 750 q 450 731 450 696 q 449 801 450 765 q 447 917 447 860 q 446 1038 446 975 l 446 1040 q 447 1056 446 1047 q 450 1072 447 1064 q 460 1084 453 1079 q 481 1089 468 1089 q 485 1088 483 1089 q 499 1082 488 1088 l 504 1068 l 504 1069 l 513 1061 q 549 1084 525 1072 q 611 1096 572 1096 l 626 1096 l 626 1090 l 625 1089 z "},"O":{"ha":906,"x_min":-14,"x_max":894,"o":"m 143 211 l 142 213 l 143 215 l 146 213 l 143 211 m 342 -56 q 336 -62 336 -56 q 342 -71 336 -71 q 349 -62 349 -71 q 342 -56 349 -56 m 225 879 q 224 874 225 878 q 217 861 218 863 q 210 851 214 856 q 204 843 207 846 l 190 843 q 205 865 196 851 q 222 885 214 879 l 225 879 m 276 931 q 298 928 288 931 q 308 907 308 925 q 301 908 307 907 q 294 910 296 908 q 283 915 292 910 q 276 918 278 918 l 268 915 q 249 910 254 910 l 238 910 q 253 928 244 925 q 274 931 263 931 l 276 931 m 61 386 l 64 386 q 77 334 72 360 q 82 281 82 308 l 82 260 q 64 309 67 283 q 61 357 61 335 l 61 386 m 131 199 q 126 206 129 199 l 126 204 q 119 215 124 210 q 113 222 115 219 l 115 225 q 196 151 161 197 l 210 136 q 165 162 182 146 q 133 194 147 178 q 132 196 132 196 q 131 199 132 197 m 732 800 l 732 799 l 733 800 q 729 817 731 811 q 728 825 728 824 q 733 826 728 831 q 743 813 738 821 q 750 803 747 807 q 753 800 753 800 q 763 789 763 800 q 763 782 763 790 q 765 763 764 774 q 768 738 767 753 q 771 708 769 722 q 774 683 772 693 q 775 674 775 672 q 772 669 775 669 q 766 683 771 669 q 756 718 761 697 q 744 761 750 739 q 733 800 738 783 l 732 799 l 733 799 l 732 799 l 732 800 m 783 346 q 784 340 783 343 q 785 335 785 336 q 768 240 785 289 q 714 158 751 190 l 714 171 l 733 218 q 743 244 736 225 q 757 288 750 264 q 771 328 764 308 q 781 357 778 349 l 783 357 l 783 346 m 500 724 q 507 739 500 728 q 519 753 514 750 q 525 754 521 754 q 535 750 529 754 q 540 742 540 746 l 540 743 q 566 693 560 715 q 572 639 572 671 q 570 623 572 633 q 567 608 568 613 l 558 597 l 528 704 q 515 717 525 711 q 501 722 506 722 l 500 724 m 415 242 q 417 236 415 238 l 431 250 q 435 254 433 253 q 440 258 438 256 l 458 276 q 496 338 482 301 q 519 410 510 374 l 519 461 q 520 464 519 463 q 521 468 521 465 l 521 485 q 510 592 521 536 q 468 696 500 649 q 388 560 422 629 q 353 410 353 490 q 367 324 353 365 q 411 246 381 282 l 415 243 l 415 242 m 294 451 q 331 612 294 539 q 415 753 368 685 l 424 761 l 432 764 l 439 761 q 490 704 469 736 q 522 636 510 672 q 538 561 533 600 q 542 485 542 522 l 542 468 q 541 456 542 461 q 540 444 540 451 l 540 404 q 515 329 531 367 q 475 264 499 292 q 458 246 469 257 q 438 226 447 235 l 428 217 l 428 218 l 417 171 l 414 171 q 408 185 414 171 q 392 216 401 199 q 374 250 383 233 q 360 274 365 267 q 310 356 326 310 q 294 451 294 401 m 418 -8 q 405 -14 413 -12 q 390 -17 397 -15 q 369 -23 379 -19 q 360 -39 360 -26 q 361 -47 360 -44 q 363 -53 361 -51 q 571 24 482 -22 q 719 138 660 69 q 807 303 778 207 q 836 531 836 399 q 807 720 836 622 q 722 899 778 818 q 585 1033 667 981 q 399 1086 504 1086 q 346 1077 367 1086 q 313 1054 325 1068 q 292 1025 300 1040 q 281 997 285 1010 q 267 974 274 978 q 242 964 251 967 q 214 951 226 957 q 186 926 201 946 q 53 697 99 822 q 7 433 7 572 q 19 329 7 382 q 55 226 32 276 q 111 133 78 176 q 186 60 144 90 q 219 40 206 47 q 247 25 232 32 q 306 -6 278 13 l 417 -6 l 418 -8 m 167 47 q 90 124 124 79 q 34 219 57 168 q -1 324 11 269 q -14 433 -14 379 q 33 706 -14 578 q 169 940 79 835 q 199 966 185 958 q 228 981 213 974 l 228 979 l 235 983 q 249 988 246 986 q 254 990 251 989 q 257 994 256 992 q 261 1003 258 996 q 275 1035 267 1017 q 299 1069 283 1054 q 338 1096 314 1085 q 399 1107 361 1107 q 581 1060 501 1107 q 718 938 661 1013 q 794 840 761 894 q 850 728 828 786 q 883 608 872 669 q 894 489 894 547 q 865 258 894 356 q 774 90 835 160 q 621 -28 713 19 q 407 -108 529 -75 q 383 -129 406 -129 q 367 -124 372 -129 l 335 -92 q 315 -62 315 -87 q 317 -47 315 -50 q 300 -38 308 -42 q 283 -32 292 -35 q 217 4 243 -17 q 172 42 192 22 l 167 47 z "},"P":{"ha":860,"x_min":-3,"x_max":847,"o":"m 144 -125 l 167 -100 l 167 -101 q 169 -107 167 -104 l 172 -96 l 211 -135 l 228 -85 q 239 -128 235 -107 q 243 -157 243 -149 l 250 -150 q 251 -148 250 -149 q 251 -146 251 -147 l 290 -185 q 329 -119 319 -146 q 339 -72 339 -92 q 335 -55 339 -61 q 326 -42 332 -49 l 326 -43 q 326 -41 326 -42 q 325 -39 325 -40 l 322 -36 q 350 51 342 -3 q 361 164 358 106 l 371 249 l 399 222 l 389 306 q 443 300 413 300 q 536 324 494 300 q 622 381 578 349 q 634 390 629 385 q 644 399 639 394 q 653 406 649 401 q 664 413 658 410 q 741 461 707 431 q 798 530 775 492 q 833 613 821 568 q 847 704 846 657 l 847 713 q 821 853 847 789 q 749 961 794 917 l 744 965 q 638 1060 701 1025 q 494 1096 574 1096 l 121 1093 l 57 1063 q 43 1053 51 1058 q 26 1039 35 1047 q 13 1021 18 1031 q 7 1000 7 1011 l 7 972 q 7 946 7 963 q 6 906 7 929 l 6 893 q 5 886 6 890 q 4 878 4 882 q 4 856 4 867 q 3 833 4 844 q -1 759 0 796 q -3 697 -3 722 q -2 693 -3 694 q -1 689 -1 692 l -1 671 q 0 668 -1 668 l 0 667 q 2 606 1 640 q 3 544 3 571 l 11 544 l 21 533 l 21 535 q 24 485 24 510 q 24 436 24 460 q 24 386 24 411 q 26 336 25 361 l 26 318 q 27 313 26 315 q 28 308 28 311 l 28 293 l 65 244 q 70 153 65 200 q 82 63 75 107 l 82 57 q 83 54 82 56 q 83 51 83 53 q 85 36 85 44 q 86 21 85 29 q 92 -41 89 -7 q 99 -93 96 -75 l 106 -86 l 144 -125 m 329 315 l 324 318 q 322 317 322 318 q 321 317 322 317 l 317 317 l 303 207 q 292 91 300 146 q 269 13 285 36 l 260 24 l 260 15 q 269 -8 260 4 q 277 -19 274 -14 q 281 -31 281 -24 q 277 -62 281 -46 q 263 -93 274 -78 q 252 -67 260 -85 q 234 -33 244 -50 q 213 -2 224 -15 q 197 11 203 11 q 188 6 188 11 l 169 -46 q 161 -33 167 -40 q 153 -22 156 -25 q 147 -20 149 -21 q 144 -19 146 -19 q 143 -19 144 -19 q 139 -22 142 -19 l 115 -46 q 110 1 113 -24 q 104 53 107 25 q 92 153 97 101 q 86 253 86 206 l 49 301 q 48 312 49 306 q 47 324 47 318 l 47 336 q 45 386 46 361 q 44 436 44 411 q 44 496 44 465 q 42 557 44 526 q 24 565 33 565 q 23 615 24 590 q 21 667 22 640 l 21 668 q 20 670 21 669 q 19 674 19 671 q 19 684 19 678 q 18 697 18 690 q 20 780 18 729 q 25 878 22 831 q 27 935 26 910 q 28 972 28 961 l 28 1000 q 34 1013 28 1006 q 49 1027 40 1019 q 67 1041 57 1035 q 83 1051 76 1047 l 82 1051 l 125 1072 l 494 1075 q 610 1050 557 1075 q 703 982 664 1025 q 766 880 743 939 q 789 754 789 821 l 789 746 q 741 582 786 658 q 613 468 696 506 q 590 452 600 460 q 569 436 581 444 q 488 381 528 404 q 401 357 447 357 q 376 358 389 357 q 350 364 363 360 q 342 383 344 376 q 337 394 339 389 q 333 404 335 400 q 326 417 331 408 l 324 417 l 335 310 l 329 315 m 336 617 q 324 607 332 617 q 315 592 315 597 q 307 585 315 592 q 292 572 299 579 q 279 558 279 565 l 282 558 l 293 561 q 320 566 301 563 q 342 571 339 569 l 343 571 q 344 565 343 567 l 344 557 q 360 535 356 540 q 367 531 364 531 l 369 531 l 369 533 l 400 539 l 400 542 l 399 542 q 382 547 393 543 q 363 560 371 550 l 364 560 q 415 576 392 560 q 454 616 438 592 q 480 667 471 640 q 489 717 489 694 q 483 756 489 735 q 465 794 476 776 q 436 824 453 813 q 397 835 419 835 l 392 835 q 382 833 390 835 q 363 828 374 831 q 344 822 353 825 q 335 818 336 819 q 334 808 335 815 q 331 790 333 800 q 326 767 328 779 q 325 751 325 756 q 326 733 325 744 q 331 706 328 721 q 335 667 333 686 q 338 633 338 647 q 335 617 338 619 l 336 617 m 396 592 q 394 627 396 607 q 389 667 392 647 q 385 692 386 681 q 383 710 383 704 q 385 724 383 713 q 389 746 386 735 q 391 757 390 753 q 393 765 392 761 q 416 772 401 768 q 433 776 431 776 l 439 776 q 451 775 447 776 q 451 775 451 775 q 453 774 453 775 q 468 717 468 746 q 463 681 468 700 q 447 644 457 661 q 424 611 438 626 q 396 588 411 596 l 396 592 m 81 618 l 93 606 l 93 863 l 83 900 l 81 900 l 81 618 m 236 261 q 233 254 235 261 q 228 237 231 247 q 224 215 226 226 q 221 193 222 203 q 219 175 219 189 l 217 175 l 217 142 q 217 131 217 136 q 218 122 218 126 l 218 106 l 229 118 q 233 149 231 135 q 239 178 236 163 q 247 217 243 197 q 250 257 250 238 l 250 263 l 246 263 q 242 260 243 260 q 236 261 239 260 m 185 133 q 166 105 172 115 q 156 88 160 94 q 148 74 151 81 q 139 57 144 67 l 139 58 q 133 49 136 56 q 129 38 131 42 l 135 38 q 158 49 147 38 q 176 76 168 60 q 190 108 185 92 q 197 133 196 124 l 185 133 m 638 946 q 643 941 638 946 q 656 931 649 936 q 668 921 663 925 q 675 917 674 917 l 682 917 q 709 906 696 917 q 733 881 722 894 q 749 853 743 867 q 756 833 756 839 l 756 832 l 758 832 q 751 864 758 846 q 732 899 743 882 q 706 926 721 915 q 679 938 692 938 q 667 943 678 938 l 668 943 q 656 948 663 946 q 644 950 649 950 q 638 946 639 950 m 400 1032 q 378 1031 393 1032 q 347 1029 364 1031 q 316 1026 331 1028 q 296 1024 301 1025 l 296 1021 l 483 1021 l 483 1024 q 453 1031 464 1031 q 428 1032 443 1032 l 400 1032 m 439 457 l 468 457 q 459 469 464 468 q 449 471 454 471 q 444 470 446 471 q 442 469 443 469 l 439 469 l 367 439 l 367 436 l 439 457 m 764 872 l 763 874 l 761 871 l 764 872 z "},"Q":{"ha":933,"x_min":-10,"x_max":928,"o":"m 363 328 q 371 318 368 322 q 363 328 368 322 m 65 515 q 69 556 65 536 q 86 596 72 576 l 86 571 q 85 555 86 567 q 82 529 83 543 q 78 503 79 515 q 78 486 78 490 q 65 499 65 488 l 65 515 m 508 311 q 537 280 525 300 q 556 237 549 260 q 567 190 564 214 q 569 147 569 165 l 556 147 l 508 299 l 508 311 m 364 31 q 406 36 385 33 q 447 43 428 39 q 474 48 461 46 q 501 53 488 50 q 510 32 507 40 q 457 14 483 19 q 403 8 431 8 q 378 10 389 8 q 353 19 368 11 l 364 31 m 528 835 q 529 835 529 835 q 531 836 529 836 q 554 817 542 836 q 578 772 567 797 q 596 723 589 747 q 603 689 603 699 l 603 672 q 600 653 603 656 q 576 701 585 676 q 557 753 567 726 q 542 792 550 772 q 522 835 533 813 l 528 835 m 318 444 q 333 375 318 408 l 578 489 q 582 539 582 511 q 576 574 582 549 q 561 631 571 600 q 538 693 551 661 q 510 749 525 725 l 511 749 q 506 750 508 750 q 461 732 483 750 q 418 685 439 714 q 378 622 397 657 q 347 552 360 586 q 326 489 333 518 q 318 444 318 460 m 568 447 q 563 460 565 451 l 361 367 q 403 315 385 347 q 440 240 422 282 q 436 237 438 238 q 435 236 435 236 l 436 236 q 433 234 435 235 q 431 232 432 233 q 372 286 403 257 q 317 347 342 315 q 276 415 292 379 q 260 486 260 450 q 268 533 260 503 q 291 599 276 564 q 326 672 306 635 q 369 740 346 710 q 416 789 392 769 q 464 808 440 808 q 516 772 490 808 q 560 689 542 736 q 591 598 579 642 q 603 539 603 554 q 579 422 603 471 q 574 435 576 429 q 568 447 571 442 m 196 108 q 254 60 226 85 q 283 15 282 35 l 297 15 q 324 13 308 15 q 347 3 340 10 l 361 3 q 374 2 368 3 q 386 1 379 1 l 421 1 q 518 11 485 1 q 529 -16 524 -3 q 542 -42 535 -29 q 547 -53 544 -47 q 553 -65 550 -58 q 565 -84 558 -76 q 593 -92 572 -92 q 610 -106 599 -97 q 633 -124 621 -115 q 655 -140 644 -133 q 669 -146 665 -146 q 669 -146 669 -146 q 671 -144 671 -146 q 658 -124 671 -140 q 650 -112 657 -122 q 635 -89 643 -101 q 622 -65 628 -76 q 614 -51 615 -54 q 614 -44 614 -49 q 615 -39 614 -42 q 617 -32 615 -35 l 635 -32 l 682 -79 l 728 -129 l 743 -71 l 743 -43 l 704 117 q 828 311 788 200 q 869 549 869 422 q 846 745 869 649 q 771 917 822 842 q 639 1040 719 993 q 444 1086 558 1086 l 432 1086 q 423 1085 428 1086 q 414 1085 418 1085 l 389 1085 q 406 1078 397 1082 q 424 1072 414 1075 q 463 1058 443 1065 q 501 1038 482 1050 l 482 1038 q 435 1042 458 1038 q 388 1053 411 1046 q 340 1063 364 1058 q 294 1068 317 1068 q 282 1038 293 1047 q 256 1019 271 1028 q 243 1013 249 1017 q 228 1000 238 1010 q 207 981 221 994 q 178 953 193 968 q 150 926 163 939 q 133 907 138 913 q 80 826 103 871 q 42 734 57 782 q 19 637 26 686 q 11 540 11 588 q 39 340 11 436 q 133 161 67 244 q 159 137 142 150 q 196 108 176 124 m 564 -108 l 565 -108 q 544 -94 551 -104 q 533 -72 538 -83 l 533 -74 l 532 -72 q 531 -69 532 -71 q 522 -56 529 -67 l 521 -54 q 493 -56 508 -56 q 463 -57 478 -57 l 415 -57 q 409 -56 413 -57 q 403 -56 406 -56 l 381 -56 q 361 -46 374 -49 q 339 -43 349 -43 l 308 -43 l 271 -6 l 263 -6 q 256 18 263 6 q 239 42 250 31 l 240 42 q 226 53 229 49 q 168 100 189 79 l 163 106 q 135 127 147 117 q 117 147 124 138 q 19 333 47 233 q -10 540 -10 432 q 22 743 -10 640 q 117 921 53 846 q 132 937 121 925 q 156 963 143 949 q 183 990 169 976 q 207 1011 197 1003 q 227 1027 217 1021 q 246 1038 238 1033 l 246 1039 q 247 1039 247 1039 q 249 1040 247 1040 l 247 1040 q 266 1056 258 1047 q 274 1089 274 1065 q 328 1085 307 1089 q 365 1078 349 1082 l 372 1106 l 426 1106 q 429 1106 428 1106 q 432 1107 431 1107 l 444 1107 q 638 1065 557 1107 q 772 951 719 1022 l 771 951 l 776 949 q 844 858 815 908 q 892 751 874 808 q 919 632 910 694 q 928 507 928 569 q 888 266 928 379 q 764 68 847 153 l 801 -82 l 801 -115 l 779 -206 l 742 -168 l 740 -172 l 685 -112 q 700 -137 692 -125 q 711 -153 708 -150 l 713 -154 q 728 -186 728 -176 q 722 -199 728 -193 q 710 -204 717 -204 q 693 -198 704 -204 q 669 -183 682 -192 q 645 -166 657 -175 q 626 -150 633 -157 q 606 -146 613 -149 q 594 -139 599 -143 l 596 -139 q 589 -132 592 -136 l 589 -133 l 564 -108 z "},"R":{"ha":868,"x_min":-11,"x_max":861,"o":"m 643 -10 q 643 -7 646 -12 l 643 -10 m 246 11 q 239 26 244 19 l 236 24 l 246 11 m 236 413 l 222 399 l 222 413 l 236 413 m 442 469 q 444 470 443 469 q 449 471 446 471 q 459 469 454 471 q 468 457 464 468 l 438 457 l 438 469 l 442 469 m 189 488 q 194 472 194 482 q 189 457 194 463 l 186 457 q 181 472 181 457 q 188 489 181 489 l 189 488 m 74 118 l 74 135 q 73 144 74 139 q 72 154 72 149 l 72 188 l 75 188 l 85 131 l 74 118 m 251 1049 q 277 1048 267 1049 q 307 1040 288 1047 l 307 1038 l 121 1038 l 121 1040 q 141 1043 126 1042 q 172 1046 156 1044 q 203 1048 189 1047 q 224 1049 218 1049 l 251 1049 m 729 636 q 723 610 728 626 q 710 579 718 594 q 690 553 701 564 q 667 542 679 542 l 661 542 q 665 553 663 546 q 671 563 668 560 l 671 561 q 680 578 676 571 q 688 592 683 585 q 698 609 692 599 q 717 638 704 619 l 728 638 l 729 636 m 176 824 l 179 824 l 189 786 l 189 529 l 176 542 l 176 824 m 625 349 q 653 317 642 338 q 672 274 664 297 q 682 228 679 251 q 685 186 685 204 l 671 186 l 625 336 l 625 349 m 597 982 q 605 993 600 992 q 617 994 610 994 q 648 984 629 994 q 683 958 667 974 q 712 926 700 943 q 724 894 724 908 q 698 908 718 894 q 658 938 678 922 q 642 951 650 944 q 632 960 635 957 q 613 972 628 963 q 597 982 597 981 m 407 619 q 405 606 406 613 q 404 593 404 600 q 451 649 433 613 q 468 717 468 685 q 453 774 468 746 q 451 775 453 775 q 451 775 451 775 q 439 776 447 776 l 433 776 q 421 772 426 776 l 421 774 q 417 753 418 765 q 413 731 414 742 q 411 717 411 719 q 410 681 411 707 q 407 624 410 654 l 407 619 m 343 571 q 344 608 343 582 q 349 667 346 635 q 352 723 351 697 q 353 758 353 749 q 354 774 353 763 q 358 797 356 786 q 362 815 361 807 q 363 825 363 822 q 377 831 365 828 q 392 835 389 835 l 397 835 q 436 824 419 835 q 465 794 453 813 q 483 756 476 776 q 489 717 489 735 q 480 667 489 694 q 454 616 471 640 q 415 576 438 592 q 364 560 392 560 q 351 561 356 560 q 343 571 346 563 m 39 163 q 38 136 39 149 q 38 110 38 124 q 41 31 38 69 q 56 -44 44 -8 q 65 -28 65 -42 l 65 -10 q 65 -2 65 -7 q 64 8 64 3 l 64 19 q 63 26 64 21 q 58 38 61 31 q 54 57 54 50 q 65 68 54 68 q 81 49 74 63 q 92 25 89 35 l 119 218 l 125 219 q 138 211 135 219 q 142 190 142 203 q 141 176 142 183 q 140 164 140 168 l 140 151 l 142 122 l 142 113 q 148 78 142 103 q 163 29 154 54 q 183 -16 172 4 q 204 -37 194 -36 l 204 29 q 190 44 204 35 q 174 57 182 50 q 167 78 167 64 q 169 81 167 81 q 174 80 172 81 q 182 76 175 79 l 222 114 l 225 114 q 240 90 231 114 q 257 43 249 67 q 269 13 261 21 q 284 50 278 25 q 294 106 290 75 q 301 172 299 138 q 306 240 303 207 q 310 306 308 276 q 315 356 313 336 q 326 367 318 364 q 331 368 329 368 l 339 365 q 392 313 367 344 q 439 247 417 282 q 481 174 461 211 q 518 103 500 138 q 536 69 528 85 q 553 38 544 53 l 553 39 q 554 36 554 38 q 556 35 554 36 q 580 3 568 15 q 617 -10 592 -10 q 630 -9 621 -10 q 643 -7 639 -8 q 639 1 642 -4 q 633 13 636 7 l 625 29 q 625 35 625 32 q 626 42 625 39 q 628 49 626 46 l 646 49 l 692 1 l 700 1 l 754 11 l 754 38 l 699 263 l 699 261 q 672 317 683 286 q 649 381 660 347 q 634 426 642 404 q 615 468 626 447 q 691 515 657 486 q 750 581 725 544 q 789 661 775 618 q 803 749 803 704 q 778 867 803 808 q 711 972 753 925 q 613 1047 669 1018 q 494 1075 557 1075 l 82 1075 l 82 1021 q 68 1018 75 1018 l 65 1018 q 54 1026 57 1021 q 49 1039 51 1032 q 42 1051 46 1046 q 28 1057 38 1057 q 13 1046 17 1057 q 10 1024 10 1035 l 10 982 q 10 922 10 965 q 13 828 11 878 q 16 735 14 779 q 19 674 18 692 q 42 558 39 617 q 46 439 46 499 l 46 388 q 46 361 46 375 q 47 336 46 349 l 47 324 q 48 310 47 317 q 49 300 49 303 q 47 277 49 288 q 43 256 46 267 q 39 214 39 235 l 39 163 m 18 214 q 22 260 18 239 q 26 281 25 271 q 28 300 28 290 l 28 308 q 27 313 28 311 q 26 317 26 314 l 26 335 q 25 361 25 347 q 25 388 25 375 l 25 439 q 22 557 25 499 q -1 672 18 615 q -5 734 -3 690 q -8 827 -7 778 q -10 921 -10 876 q -11 982 -11 965 l -11 1024 q -5 1059 -11 1040 q 28 1078 1 1078 q 50 1072 43 1078 q 61 1058 57 1065 l 61 1096 l 494 1096 q 640 1056 574 1096 q 753 953 707 1015 q 831 840 801 904 q 861 707 861 775 q 848 618 861 661 q 810 538 835 575 q 752 469 786 500 q 676 418 718 439 q 690 388 685 403 q 700 360 696 374 q 703 351 701 356 q 706 342 704 346 l 704 342 q 725 286 714 314 q 756 229 736 258 l 813 -1 l 813 -46 l 744 -57 l 725 -57 l 688 -19 l 686 -19 l 689 -24 l 689 -22 q 690 -28 690 -24 q 694 -35 692 -31 q 707 -50 696 -39 l 713 -56 q 679 -65 697 -61 q 657 -68 661 -68 q 607 -50 625 -68 l 582 -25 l 583 -25 q 557 -6 565 -18 q 538 22 549 6 l 539 22 q 533 29 533 24 q 526 42 531 36 q 518 56 522 49 l 513 67 q 504 81 507 72 q 500 90 501 86 q 489 111 499 99 q 483 121 486 117 q 478 131 481 125 q 427 219 453 175 q 371 300 401 264 q 367 269 368 288 q 365 231 367 250 q 365 214 365 222 q 364 197 365 206 q 358 126 361 163 q 350 55 356 89 q 335 -8 344 21 q 310 -58 325 -37 l 271 -19 l 271 -21 l 268 -24 l 261 -14 l 261 -96 q 238 -85 249 -96 l 207 -53 q 181 -26 194 -46 q 154 17 168 -7 l 149 -31 l 122 -32 l 122 -33 q 123 -39 122 -36 q 124 -44 124 -42 l 124 -69 q 113 -94 124 -85 q 86 -106 103 -103 l 49 -68 q 43 -71 44 -68 q 22 24 28 -21 q 17 110 17 69 l 17 149 q 17 155 17 151 q 18 163 18 158 l 18 214 z "},"S":{"ha":606,"x_min":-10,"x_max":600,"o":"m 57 158 q 51 151 51 158 q 57 143 51 143 q 64 151 64 143 q 57 158 64 158 m 58 693 q 72 647 65 674 q 79 593 79 619 q 60 607 64 593 q 56 636 56 621 l 56 693 l 58 693 m 496 292 q 502 278 499 289 q 506 264 506 268 l 506 258 q 503 224 506 243 q 496 184 501 204 q 481 147 490 164 q 457 119 471 129 l 457 128 q 463 169 457 146 q 475 215 468 192 q 487 256 482 236 q 493 290 492 275 l 496 292 m 50 26 q 42 26 46 26 q 35 26 39 25 q 86 6 57 11 q 142 1 115 1 l 179 1 q 313 19 247 1 q 428 72 378 36 q 510 163 479 108 q 542 294 542 218 l 542 325 q 541 338 542 332 q 540 349 540 344 l 540 356 q 510 417 526 388 q 465 467 494 446 q 448 481 457 474 q 428 494 439 488 q 388 524 407 508 q 352 556 368 539 q 326 595 336 574 q 317 643 317 617 q 328 690 317 669 q 357 724 339 711 q 397 744 375 738 q 440 751 419 751 q 460 749 451 751 q 479 742 469 746 q 497 735 489 739 q 514 732 506 732 l 521 732 q 513 739 518 739 q 505 746 511 742 q 493 753 499 750 l 485 757 q 481 768 483 760 q 475 785 478 776 q 469 803 472 793 q 465 814 465 814 q 441 831 460 819 q 413 842 422 842 l 413 844 l 426 844 q 434 845 431 844 q 440 846 438 846 q 458 844 450 846 q 474 840 465 843 q 490 836 482 838 q 510 835 499 835 q 495 849 501 844 q 486 856 489 853 l 488 856 q 476 865 479 860 q 472 893 472 869 q 478 892 475 893 q 483 892 481 892 q 499 890 488 890 q 509 893 504 890 q 514 904 514 896 q 493 931 514 917 q 445 959 472 946 q 392 981 418 972 q 356 990 365 990 l 356 993 l 372 993 q 382 994 378 993 q 389 994 386 994 q 417 992 404 994 q 442 988 429 990 q 465 983 453 985 q 493 981 478 981 l 493 1036 l 521 1036 q 503 1055 517 1047 q 474 1067 490 1063 q 438 1073 457 1071 q 403 1075 419 1075 l 369 1075 q 228 1049 293 1075 q 115 978 163 1024 q 39 869 67 932 q 11 731 11 806 q 28 615 11 663 q 73 533 46 568 q 132 475 100 499 q 194 432 164 451 q 264 381 235 406 q 293 315 293 356 q 275 265 293 283 q 231 235 257 246 q 174 221 204 225 q 122 215 144 217 q 113 206 119 208 q 101 204 107 204 q 96 205 99 204 q 90 206 93 206 l 81 206 q 55 206 67 206 q 31 214 43 207 l 31 213 q 41 194 31 201 q 63 179 51 186 q 85 164 75 172 q 94 140 94 156 l 71 140 q 88 125 78 135 q 104 107 97 115 l 114 96 q 115 89 113 96 q 121 75 118 82 l 122 67 l 151 58 q 153 53 153 58 l 153 46 q 123 41 135 44 q 100 35 111 38 q 77 29 89 32 q 50 26 65 26 m 28 49 q 39 47 35 47 q 50 47 43 47 q 72 50 61 47 q 94 56 83 53 q 96 56 96 56 q 97 57 96 57 q 97 57 97 57 q 100 58 99 57 l 101 60 l 101 68 q 97 82 97 74 l 94 85 q 82 90 86 85 l 50 122 q 31 151 31 124 q 31 160 31 156 q 33 168 31 165 q 16 183 22 175 q 10 213 10 192 l 10 250 q 56 229 43 232 q 81 226 69 226 l 97 226 q 99 226 99 226 q 101 225 100 225 q 108 236 104 225 q 159 241 131 238 q 213 253 188 244 q 255 276 238 261 q 272 315 272 292 q 254 357 272 336 q 244 364 249 360 q 235 371 240 368 l 236 371 q 231 374 233 372 q 226 376 229 375 q 176 410 201 392 q 128 451 150 428 q 76 495 101 471 q 33 553 51 519 q 2 630 14 586 q -10 731 -10 674 q 19 877 -10 810 q 99 993 47 944 q 219 1069 150 1042 q 369 1096 288 1096 l 403 1096 q 440 1093 419 1096 q 478 1083 460 1090 q 514 1065 497 1076 q 542 1035 531 1053 l 569 1008 l 571 1007 q 578 994 574 1001 q 586 978 582 988 l 551 978 l 551 922 l 526 922 q 530 916 529 919 q 533 910 531 913 l 560 886 q 572 864 572 874 q 561 839 572 844 q 540 833 550 833 l 538 833 l 551 821 q 575 793 558 814 q 581 785 578 790 q 588 776 585 781 l 551 776 q 533 776 540 776 q 519 779 526 776 q 523 767 519 776 q 531 750 526 757 l 531 751 l 532 750 l 532 749 l 536 744 l 533 744 l 569 708 q 583 674 579 699 l 556 674 q 540 676 549 674 q 524 682 532 679 l 511 686 q 481 693 497 693 q 444 687 463 693 q 410 669 425 681 q 385 641 394 658 q 375 601 375 624 q 388 550 375 572 l 388 551 q 413 531 400 540 q 442 511 426 521 l 446 507 q 449 506 447 506 q 451 504 450 506 l 479 483 q 524 435 506 464 l 536 424 q 572 375 558 403 q 599 317 586 347 l 599 299 q 599 292 599 296 q 600 285 600 288 l 600 254 q 567 114 600 172 q 482 17 535 56 q 361 -39 429 -21 q 221 -57 293 -57 l 182 -57 q 118 -50 151 -57 q 61 -25 85 -43 l 33 3 l 35 3 q 22 9 28 6 q 14 15 17 13 l 28 49 z "},"T":{"ha":678,"x_min":-10,"x_max":665,"o":"m 169 796 q 169 796 169 796 q 169 797 171 796 l 169 796 m 260 -17 q 258 -19 258 -17 q 261 -24 258 -24 q 267 -18 267 -24 q 266 -17 267 -18 q 263 -17 265 -17 l 260 -17 m 414 835 l 414 826 q 390 818 399 826 q 375 797 381 810 q 367 769 369 785 q 363 739 364 754 q 360 719 361 728 q 357 703 360 710 l 354 703 l 354 835 l 414 835 m 272 15 q 278 6 274 13 q 289 -6 283 0 q 300 -17 294 -12 q 308 -22 306 -22 l 307 -22 q 314 -12 308 -21 q 320 -2 317 -7 q 325 4 324 3 l 331 7 q 338 6 335 7 q 346 3 340 6 q 354 -3 351 0 l 374 51 q 389 174 383 131 q 398 244 394 218 q 404 290 401 271 q 411 338 407 308 q 419 436 418 390 q 425 516 422 476 q 439 600 428 556 q 451 658 443 622 q 466 726 458 693 q 480 783 474 760 q 488 807 486 807 l 486 807 l 494 817 l 606 817 l 606 879 q 596 883 603 879 q 581 890 589 886 q 567 899 574 894 q 558 907 560 903 l 606 965 l 606 981 l 504 981 l 504 992 q 521 997 508 994 q 554 1003 536 1000 q 576 1011 572 1007 q 597 1021 588 1015 q 607 1040 607 1026 q 592 1068 607 1056 q 561 1085 576 1081 l 515 1085 q 501 1085 508 1085 q 488 1086 494 1086 l 468 1086 q 419 1085 443 1086 q 372 1081 396 1083 q 325 1076 349 1078 q 278 1075 301 1075 q 235 1076 256 1075 q 193 1081 214 1078 q 153 1085 174 1083 q 111 1086 132 1086 q 83 1085 100 1086 q 51 1081 67 1085 q 23 1068 35 1076 q 11 1043 11 1060 l 11 1039 q 18 1032 14 1035 q 21 1031 21 1032 q 35 1025 26 1028 q 53 1019 43 1022 q 67 1015 60 1017 q 78 1011 74 1014 q 64 999 72 1001 q 46 994 56 997 q 28 990 36 992 q 21 979 21 988 q 31 963 21 969 q 38 955 35 958 q 42 944 42 951 q 38 933 42 938 q 31 926 35 929 q 21 913 21 919 q 43 897 21 897 q 54 897 49 897 q 68 899 61 897 q 79 900 75 900 q 92 900 85 900 q 117 897 106 900 q 133 879 128 893 q 126 880 131 879 q 115 881 121 881 q 86 878 103 881 q 55 870 69 876 q 31 854 40 864 q 21 831 21 844 q 33 818 21 824 q 65 809 46 813 q 104 803 83 806 q 142 800 125 801 q 159 797 150 799 q 169 796 168 794 q 174 749 171 782 q 181 678 178 715 q 186 608 183 640 q 189 563 189 575 l 189 519 q 190 472 189 499 q 190 414 190 444 l 190 363 q 191 330 190 347 q 192 297 192 313 q 192 263 192 281 q 193 231 193 246 l 193 179 q 194 122 193 149 q 194 74 194 94 l 194 32 l 215 43 l 217 43 q 224 42 222 43 l 226 42 l 226 17 q 244 36 239 25 q 251 60 249 47 q 258 96 254 69 q 265 144 263 122 q 269 174 268 168 l 281 174 q 279 137 281 154 q 276 103 278 119 q 272 33 272 69 l 272 15 m 24 801 l 25 801 q 0 831 0 811 q 24 876 0 860 l 22 879 l 24 879 q 0 913 0 885 q 4 930 0 924 q 15 943 8 936 l 15 946 q 4 959 8 951 q 0 979 0 967 q 13 1007 0 1000 l 8 1013 l 10 1013 q -10 1035 -6 1019 l -10 1043 q 4 1080 -10 1067 q 38 1099 18 1093 q 78 1106 58 1106 q 111 1107 99 1107 q 154 1106 133 1107 q 194 1101 175 1104 q 236 1097 215 1099 q 278 1096 257 1096 q 324 1097 301 1096 q 371 1101 347 1099 q 418 1106 394 1104 q 468 1107 442 1107 l 493 1107 q 497 1106 496 1107 q 501 1106 499 1106 l 567 1106 q 599 1088 582 1101 q 624 1057 617 1074 l 624 1058 l 647 1036 q 660 1019 654 1029 q 665 999 665 1010 q 662 979 665 986 q 651 967 658 972 l 664 956 l 664 915 l 636 882 l 664 854 l 664 758 l 544 758 l 536 749 q 531 726 536 749 q 520 674 526 704 q 508 610 514 643 q 497 556 501 576 q 483 472 486 511 q 478 393 481 433 q 469 296 475 343 q 469 290 469 293 q 468 285 468 288 q 462 242 464 260 q 456 197 460 224 q 447 127 453 169 q 432 10 442 85 l 397 -92 l 369 -64 l 369 -65 q 365 -72 367 -68 q 357 -81 363 -75 q 341 -75 350 -81 q 325 -62 332 -69 q 315 -76 322 -69 q 303 -82 308 -82 q 296 -81 300 -82 q 289 -76 292 -79 l 263 -50 l 260 -50 q 259 -50 258 -51 q 253 -56 260 -49 l 224 -26 l 219 -26 l 210 -18 l 206 -24 l 206 -12 l 182 11 l 174 11 l 174 146 q 173 163 174 154 q 172 179 172 171 l 172 263 q 172 271 172 267 q 171 279 171 275 l 171 297 q 170 304 171 300 q 169 313 169 308 l 169 414 q 169 431 169 422 q 168 447 168 439 l 168 563 q 167 591 168 571 q 163 637 165 611 q 159 690 161 663 q 154 743 157 718 q 94 752 125 746 q 53 772 64 758 l 24 801 z "},"U":{"ha":906,"x_min":-11,"x_max":892,"o":"m 150 347 q 149 347 150 347 q 149 346 149 347 l 150 347 m 496 50 l 497 49 l 497 50 l 496 50 m 88 1089 l 86 1089 l 88 1090 l 88 1089 m 532 -114 l 532 -112 l 533 -112 l 532 -114 m 561 53 q 561 51 561 51 q 563 51 563 51 l 564 53 l 561 53 m 503 1082 q 501 1082 501 1082 q 501 1083 501 1083 l 503 1085 l 503 1082 m 146 204 l 147 203 l 149 204 l 146 204 m 763 947 q 763 946 763 947 q 764 946 763 946 l 765 949 l 763 947 m 783 836 l 785 838 q 783 838 785 838 q 783 839 783 838 l 783 836 m 799 1036 l 801 1035 q 800 1038 800 1035 l 799 1036 m 553 308 q 551 310 551 310 q 551 311 553 310 l 550 310 l 553 308 m 406 47 l 408 49 q 406 49 407 49 q 406 50 406 50 l 406 47 m 90 974 q 88 970 89 971 q 88 969 88 969 l 90 968 l 90 974 m 322 165 q 323 169 322 168 q 324 171 324 169 l 321 169 l 322 165 m 728 261 l 728 263 l 726 263 l 726 260 l 729 260 l 729 263 l 728 261 m 453 -8 q 450 -7 451 -7 q 447 -6 449 -7 l 446 -8 l 453 -8 m 276 807 l 279 807 l 279 817 l 276 807 m 717 269 q 710 276 717 276 l 717 269 m 283 979 l 286 956 l 286 979 l 283 979 m 529 69 q 548 67 540 69 q 561 53 556 65 l 554 53 q 535 58 549 53 l 526 61 q 513 56 521 61 l 514 56 q 506 53 508 53 q 497 50 503 50 q 506 67 497 65 q 526 69 515 69 l 529 69 m 286 956 l 294 910 q 304 901 301 908 l 279 817 q 281 835 281 824 q 283 858 281 846 q 288 893 286 878 q 289 911 289 908 l 286 956 m 165 617 q 171 608 171 617 q 167 587 171 606 q 160 547 164 568 q 151 509 156 526 q 146 492 147 492 l 146 493 q 147 502 146 492 q 150 527 149 513 q 153 557 151 542 q 156 582 154 572 q 158 601 157 593 q 158 608 158 610 q 165 617 158 617 m 764 946 q 780 929 772 940 q 792 913 788 918 l 783 839 q 777 867 781 844 q 771 910 774 889 q 767 932 768 922 q 765 942 765 942 l 765 940 q 764 946 764 944 m 322 165 l 357 108 l 406 54 l 406 50 q 387 63 396 57 q 371 75 378 69 q 335 103 349 89 q 322 149 322 117 l 322 160 l 322 165 m 136 354 q 149 346 146 354 q 138 324 144 343 q 132 297 132 306 l 132 293 l 146 204 l 138 210 l 139 210 q 134 216 135 214 q 132 221 133 218 q 129 227 131 224 q 126 233 128 231 q 114 289 114 264 q 117 313 114 301 q 124 340 119 325 l 124 342 q 133 354 124 344 l 136 354 m 551 311 q 543 356 544 335 q 542 401 542 376 l 542 425 q 542 431 542 428 q 543 439 543 435 l 543 449 q 550 457 546 456 q 560 458 554 458 q 572 457 565 458 q 578 449 578 456 q 576 441 578 446 q 572 429 575 436 q 568 411 568 417 q 565 393 567 406 q 561 366 563 381 q 559 338 560 351 q 558 318 558 325 l 551 311 m 328 735 q 335 769 335 757 q 336 801 336 782 l 336 854 q 337 872 336 861 q 339 894 338 882 q 342 926 340 910 q 343 958 343 943 q 339 988 343 976 l 315 1081 q 308 1089 313 1089 q 294 1063 301 1089 q 282 1030 289 1046 q 264 1014 275 1014 q 263 1017 263 1014 q 264 1026 263 1014 q 267 1044 265 1038 q 269 1057 268 1051 q 269 1067 269 1063 q 267 1074 269 1074 l 103 1074 l 103 1014 q 99 1003 100 1011 q 94 988 97 994 q 92 979 92 983 q 90 974 92 976 q 86 1008 89 992 q 76 1038 83 1025 q 55 1058 68 1050 q 18 1065 42 1065 l 14 1065 q 8 1056 11 1063 q 4 1044 6 1049 l 4 1035 q 13 977 11 1011 q 18 910 15 943 q 21 855 19 881 q 26 813 22 829 q 17 756 17 792 q 19 719 17 738 q 24 678 21 700 q 31 606 28 646 q 35 513 35 565 q 59 285 35 379 q 138 126 83 192 q 276 18 192 61 q 482 -56 361 -25 l 485 -39 q 478 -21 485 -24 q 465 -15 472 -18 q 453 -8 460 -14 l 532 -21 q 557 -3 547 -11 q 576 14 567 6 q 599 31 588 22 q 626 51 610 40 q 701 125 668 82 q 756 218 733 168 q 792 322 779 268 q 804 428 804 375 l 839 1007 l 839 1024 q 837 1038 839 1031 q 822 1046 835 1046 l 818 1046 q 800 1038 808 1046 q 781 1058 793 1046 q 764 1074 768 1071 q 753 1075 758 1075 q 742 1065 749 1075 q 731 1044 736 1056 l 731 1046 q 719 1026 724 1035 q 711 1018 714 1018 q 701 1026 704 1018 q 693 1044 697 1033 q 684 1065 689 1056 q 674 1075 679 1075 q 658 1072 664 1075 q 647 1065 653 1068 q 624 1056 635 1056 l 614 1056 l 529 1065 l 524 1065 q 521 1066 522 1065 q 518 1067 519 1067 l 518 671 l 513 424 q 508 396 513 410 l 508 393 q 504 371 504 382 q 503 349 504 360 q 498 310 501 329 q 479 276 494 292 q 469 265 474 269 q 460 256 465 261 q 447 242 456 250 q 424 219 439 233 l 415 219 q 408 225 414 219 q 395 238 403 231 q 381 253 388 244 q 369 267 374 261 q 341 306 353 285 q 319 351 329 328 q 323 370 322 363 q 324 381 324 378 l 314 485 l 329 697 l 329 710 q 328 724 329 717 q 328 735 328 731 m 196 50 q 60 231 101 121 q 19 513 19 342 q 16 604 19 564 q 8 676 13 644 q 3 717 6 699 q 1 756 1 736 q 3 787 1 772 q 10 814 4 801 q 6 856 7 831 q 3 910 4 882 q -2 972 0 940 q -11 1029 -4 1004 l -11 1046 q -3 1062 -8 1051 q 10 1081 1 1072 l 18 1081 q 60 1071 43 1081 q 88 1046 76 1061 l 88 1089 l 267 1089 q 283 1081 279 1089 q 308 1104 294 1104 q 320 1099 314 1104 q 329 1083 326 1093 l 360 1053 q 367 1042 364 1047 l 392 949 q 396 917 396 936 q 395 895 396 907 q 393 871 394 883 q 392 860 393 865 q 392 851 392 856 q 391 847 392 849 q 390 842 390 844 q 389 825 389 832 q 389 813 389 818 l 389 760 q 388 725 389 739 q 381 689 388 711 q 381 683 381 686 q 382 678 382 681 l 382 654 l 367 443 l 376 340 q 376 328 376 336 q 372 308 375 319 q 391 269 381 289 q 414 235 401 250 l 419 235 q 445 259 439 251 q 458 274 451 267 q 463 279 461 276 q 468 285 465 282 q 483 313 479 297 q 488 349 486 329 l 488 357 q 490 381 489 369 q 493 400 490 393 l 493 401 q 497 424 497 415 l 503 671 l 503 1082 q 514 1081 508 1081 l 531 1081 l 614 1071 l 624 1071 q 643 1081 631 1071 l 644 1081 q 656 1087 649 1083 q 674 1090 663 1090 q 690 1082 683 1090 q 703 1061 696 1074 l 715 1049 q 732 1077 722 1064 q 753 1090 742 1090 q 758 1090 757 1090 q 769 1088 761 1090 l 768 1088 l 776 1079 q 788 1068 782 1074 q 801 1056 794 1063 q 818 1061 813 1061 l 822 1061 q 844 1055 838 1061 q 853 1039 850 1049 l 885 1008 q 891 996 890 1003 q 892 982 892 989 l 892 964 l 857 385 q 844 278 857 332 q 807 172 831 224 q 749 77 783 121 q 674 1 715 33 q 646 -19 657 -10 q 624 -36 635 -28 q 619 -40 621 -39 q 615 -43 618 -40 q 599 -56 608 -49 q 572 -74 589 -62 l 535 -68 q 538 -83 538 -74 l 532 -112 q 335 -45 418 -83 q 197 50 253 -7 l 196 50 z "}}}
